<svg xmlns="http://www.w3.org/2000/svg" viewBox="0 0 295.48 203.71"><title>set_simmetric_difference</title><path d="M149,22A70,70,0,1,0,149,120,70,70,0,0,1,149,22Z" style="fill:#39b54a"/><path d="M99,142A71,71,0,1,1,149.68,21.33l.69.7-.69.7a69,69,0,0,0,0,96.54l.69.7-.69.7A70.47,70.47,0,0,1,99,142ZM99,2a69,69,0,1,0,48.6,118,71,71,0,0,1,0-97.92A68.47,68.47,0,0,0,99,2Z" style="fill:#fbb03b"/><path d="M199,1a69.76,69.76,0,0,0-50,21A70,70,0,0,1,149,120,70,70,0,1,0,199,1Z" style="fill:#39b54a"/><path d="M199,142a70.51,70.51,0,0,1-50.72-21.33l-.68-.7.68-.7a68.94,68.94,0,0,0,0-96.54l-.68-.7.68-.7A71,71,0,1,1,199,142Zm-48.6-22A69,69,0,1,0,199,2a68.44,68.44,0,0,0-48.6,20,71,71,0,0,1,0,97.92Z" style="fill:#fbb03b"/><path d="M149,121.4l-.72-.73a71,71,0,0,1,0-99.34l.72-.73.71.73a70.94,70.94,0,0,1,0,99.34Zm0-97.93a69,69,0,0,0,0,95.06,69,69,0,0,0,0-95.06Z" style="fill:#fbb03b"/><path d="M88.61,81.56l5.67-21.9h3.93l5.64,21.9h-3l-1.38-5.7H93l-1.38,5.7Zm5-8.16h5.22l-1.56-6.54q-.45-1.8-.72-3.06t-.33-1.71q-.06.45-.33,1.71t-.69,3Z" style="fill:#fcee21"/><path d="M193.9,81.56V59.66h6.33A7.06,7.06,0,0,1,205,61.17a5.22,5.22,0,0,1,1.76,4.16,4.74,4.74,0,0,1-1.07,3A4.39,4.39,0,0,1,203,70v.09a4.44,4.44,0,0,1,2.23.9,5.19,5.19,0,0,1,1.53,1.9,6.32,6.32,0,0,1-1.23,7,6.85,6.85,0,0,1-4.84,1.65Zm2.91-12.66h3.39a3.75,3.75,0,0,0,2.64-.89,3.11,3.11,0,0,0,1-2.41,3.17,3.17,0,0,0-1-2.45,3.7,3.7,0,0,0-2.61-.88h-3.42Zm0,10h3.57a4.07,4.07,0,0,0,2.88-1,3.44,3.44,0,0,0,1.05-2.65,3.87,3.87,0,0,0-1.05-2.82,3.83,3.83,0,0,0-2.88-1.08h-3.57Z" style="fill:#fcee21"/><path d="M0,177.71l3.78-14.6H6.4l3.76,14.6h-2l-.92-3.8H2.94L2,177.71Zm3.34-5.44H6.82l-1-4.36q-.3-1.2-.48-2c-.12-.56-.19-.94-.22-1.14,0,.2-.1.58-.22,1.14s-.27,1.24-.46,2Z" style="fill:#00a99d"/><path d="M17.08,177.91a1.66,1.66,0,0,1-1.23-.46,1.6,1.6,0,0,1-.47-1.18,1.71,1.71,0,0,1,.47-1.24,1.82,1.82,0,0,1,2.46,0,1.71,1.71,0,0,1,.47,1.24,1.6,1.6,0,0,1-.47,1.18A1.66,1.66,0,0,1,17.08,177.91Z" style="fill:#ed1c24"/><path d="M28.64,177.87a4.53,4.53,0,0,1-2.92-.84,2.86,2.86,0,0,1-1-2.36h2a1.35,1.35,0,0,0,.53,1.13,2.36,2.36,0,0,0,1.47.41h.88a2.38,2.38,0,0,0,1.51-.42,1.42,1.42,0,0,0,.53-1.18,1.35,1.35,0,0,0-1.32-1.5l-3-.42a2.76,2.76,0,0,1-1.82-1,3.12,3.12,0,0,1-.64-2.05,2.81,2.81,0,0,1,1-2.3,4.29,4.29,0,0,1,2.8-.82h.88a4.35,4.35,0,0,1,2.72.8,2.71,2.71,0,0,1,1.1,2.12h-2a1.27,1.27,0,0,0-.52-.93,2.05,2.05,0,0,0-1.3-.37h-.88a2.13,2.13,0,0,0-1.39.4,1.32,1.32,0,0,0-.49,1.08,1.13,1.13,0,0,0,1.1,1.24l2.78.4a3,3,0,0,1,2.86,3.32,2.93,2.93,0,0,1-1,2.41,4.47,4.47,0,0,1-2.93.85Z" style="fill:#fbb03b"/><path d="M38.58,181.31l1.6-4.26-4.1-10.34h2.1l2.48,6.5c.11.28.21.58.32.9a5.27,5.27,0,0,1,.22.84,8.21,8.21,0,0,1,.2-.84q.14-.48.3-.9l2.3-6.5h2.1l-5.46,14.6Z" style="fill:#fbb03b"/><path d="M48.22,177.71v-11H49.9v1.5H50a1.9,1.9,0,0,1,.57-1.23,1.75,1.75,0,0,1,1.25-.47A1.83,1.83,0,0,1,53,167a2.51,2.51,0,0,1,.72,1.18,1.94,1.94,0,0,1,.62-1.19,1.84,1.84,0,0,1,1.26-.43,2.09,2.09,0,0,1,1.68.79,3.14,3.14,0,0,1,.64,2v8.36h-1.8v-8.34a1.49,1.49,0,0,0-.31-1A1,1,0,0,0,55,168a1,1,0,0,0-.82.36,1.53,1.53,0,0,0-.3,1v8.34h-1.6v-8.34a1.54,1.54,0,0,0-.3-1,1,1,0,0,0-.82-.37,1,1,0,0,0-.83.36,1.48,1.48,0,0,0-.31,1v8.34Z" style="fill:#fbb03b"/><path d="M60.22,177.71v-11H61.9v1.5H62a1.9,1.9,0,0,1,.57-1.23,1.75,1.75,0,0,1,1.25-.47A1.83,1.83,0,0,1,65,167a2.51,2.51,0,0,1,.72,1.18,1.94,1.94,0,0,1,.62-1.19,1.84,1.84,0,0,1,1.26-.43,2.09,2.09,0,0,1,1.68.79,3.14,3.14,0,0,1,.64,2v8.36h-1.8v-8.34a1.49,1.49,0,0,0-.31-1A1,1,0,0,0,67,168a1,1,0,0,0-.82.36,1.53,1.53,0,0,0-.3,1v8.34h-1.6v-8.34a1.54,1.54,0,0,0-.3-1,1,1,0,0,0-.82-.37,1,1,0,0,0-.83.36,1.48,1.48,0,0,0-.31,1v8.34Z" style="fill:#fbb03b"/><path d="M77.08,177.91a4.37,4.37,0,0,1-3.19-1.18,4.27,4.27,0,0,1-1.21-3.22v-2.6a4.28,4.28,0,0,1,1.21-3.22,4.37,4.37,0,0,1,3.19-1.18,4.86,4.86,0,0,1,2.31.53,3.85,3.85,0,0,1,1.54,1.48,4.29,4.29,0,0,1,.55,2.21v2H74.62v1a2.58,2.58,0,0,0,.66,1.88,2.4,2.4,0,0,0,1.8.68,3.11,3.11,0,0,0,1.58-.36,1.43,1.43,0,0,0,.74-1h2A3.13,3.13,0,0,1,80,177.09,5,5,0,0,1,77.08,177.91Zm-2.46-7.18v.52h4.92v-.52a2.7,2.7,0,0,0-.64-1.94,2.78,2.78,0,0,0-3.64,0A2.7,2.7,0,0,0,74.62,170.73Z" style="fill:#fbb03b"/><path d="M90.18,177.71a3,3,0,0,1-2.25-.82,2.94,2.94,0,0,1-.83-2.18v-6.2H84v-1.8H87.1v-3.1h2v3.1h4.46v1.8H89.08v6.18a1.25,1.25,0,0,0,.31.88,1.06,1.06,0,0,0,.83.34h3.22v1.8Z" style="fill:#fbb03b"/><path d="M97.24,177.71v-11h2v2.12h0a2.6,2.6,0,0,1,.93-1.7,3.19,3.19,0,0,1,2-.62,3.37,3.37,0,0,1,2.64,1.05,4.25,4.25,0,0,1,.94,2.95v1h-2v-.94a2,2,0,0,0-2.26-2.3,2.2,2.2,0,0,0-1.73.66,2.75,2.75,0,0,0-.59,1.88v6.94Z" style="fill:#fbb03b"/><path d="M108.74,177.71v-1.8h3.86v-7.4h-3.46v-1.8h5.44v9.2h3.62v1.8Zm4.66-12.94a1.61,1.61,0,0,1-1.08-.35,1.18,1.18,0,0,1-.4-.95,1.25,1.25,0,0,1,.4-1,1.8,1.8,0,0,1,2.16,0,1.25,1.25,0,0,1,.4,1,1.18,1.18,0,0,1-.4.95A1.61,1.61,0,0,1,113.4,164.77Z" style="fill:#fbb03b"/><path d="M125.24,177.91a4.54,4.54,0,0,1-3.24-1.13,4,4,0,0,1-1.22-3.11v-2.94a4,4,0,0,1,1.22-3.09,4.58,4.58,0,0,1,3.24-1.13,4.65,4.65,0,0,1,3.13,1,3.73,3.73,0,0,1,1.25,2.81h-2a2.12,2.12,0,0,0-.71-1.55,2.58,2.58,0,0,0-1.71-.55,2.51,2.51,0,0,0-1.81.65,2.42,2.42,0,0,0-.67,1.83v2.94a2.42,2.42,0,0,0,.67,1.84,2.5,2.5,0,0,0,1.81.64,2.59,2.59,0,0,0,1.72-.54,2.06,2.06,0,0,0,.7-1.54h2a3.69,3.69,0,0,1-1.25,2.81A4.6,4.6,0,0,1,125.24,177.91Z" style="fill:#fbb03b"/><path d="M132.28,179.91v-1.7h9.6v1.7Z" style="fill:#fbb03b"/><path d="M148.36,177.91a3.33,3.33,0,0,1-2.64-1.11,4.4,4.4,0,0,1-1-3v-3.16a4.41,4.41,0,0,1,1-3,3.33,3.33,0,0,1,2.64-1.11,3.27,3.27,0,0,1,2,.62,2.58,2.58,0,0,1,1,1.7l0-2.56v-3.16h2v14.6h-2v-2.14a2.63,2.63,0,0,1-1,1.72A3.16,3.16,0,0,1,148.36,177.91Zm.68-1.72a2.18,2.18,0,0,0,1.68-.66,2.63,2.63,0,0,0,.62-1.86v-2.92a2.63,2.63,0,0,0-.62-1.86,2.18,2.18,0,0,0-1.68-.66,2.09,2.09,0,0,0-2.32,2.42v3.12a2.09,2.09,0,0,0,2.32,2.42Z" style="fill:#fbb03b"/><path d="M156.74,177.71v-1.8h3.86v-7.4h-3.46v-1.8h5.44v9.2h3.62v1.8Zm4.66-12.94a1.61,1.61,0,0,1-1.08-.35,1.18,1.18,0,0,1-.4-.95,1.25,1.25,0,0,1,.4-1,1.8,1.8,0,0,1,2.16,0,1.25,1.25,0,0,1,.4,1,1.18,1.18,0,0,1-.4.95A1.61,1.61,0,0,1,161.4,164.77Z" style="fill:#fbb03b"/><path d="M171.3,177.71V170h-3.16v-1.8h3.16V166a2.71,2.71,0,0,1,.86-2.1,3.34,3.34,0,0,1,2.34-.78h3.22v1.78H174.5c-.81,0-1.22.37-1.22,1.12v2.2h4.44V170h-4.44v7.7Z" style="fill:#fbb03b"/><path d="M183.3,177.71V170h-3.16v-1.8h3.16V166a2.71,2.71,0,0,1,.86-2.1,3.34,3.34,0,0,1,2.34-.78h3.22v1.78H186.5c-.81,0-1.22.37-1.22,1.12v2.2h4.44V170h-4.44v7.7Z" style="fill:#fbb03b"/><path d="M197.08,177.91a4.37,4.37,0,0,1-3.19-1.18,4.27,4.27,0,0,1-1.21-3.22v-2.6a4.28,4.28,0,0,1,1.21-3.22,4.37,4.37,0,0,1,3.19-1.18,4.86,4.86,0,0,1,2.31.53,3.85,3.85,0,0,1,1.54,1.48,4.29,4.29,0,0,1,.55,2.21v2h-6.86v1a2.58,2.58,0,0,0,.66,1.88,2.4,2.4,0,0,0,1.8.68,3.11,3.11,0,0,0,1.58-.36,1.43,1.43,0,0,0,.74-1h2a3.13,3.13,0,0,1-1.38,2.22A5,5,0,0,1,197.08,177.91Zm-2.46-7.18v.52h4.92v-.52a2.7,2.7,0,0,0-.64-1.94,2.78,2.78,0,0,0-3.64,0A2.7,2.7,0,0,0,194.62,170.73Z" style="fill:#fbb03b"/><path d="M205.24,177.71v-11h2v2.12h0a2.6,2.6,0,0,1,.93-1.7,3.19,3.19,0,0,1,2-.62,3.37,3.37,0,0,1,2.64,1.05,4.25,4.25,0,0,1,.94,2.95v1h-2v-.94a2,2,0,0,0-2.26-2.3,2.2,2.2,0,0,0-1.73.66,2.75,2.75,0,0,0-.59,1.88v6.94Z" style="fill:#fbb03b"/><path d="M221.08,177.91a4.37,4.37,0,0,1-3.19-1.18,4.27,4.27,0,0,1-1.21-3.22v-2.6a4.28,4.28,0,0,1,1.21-3.22,4.37,4.37,0,0,1,3.19-1.18,4.86,4.86,0,0,1,2.31.53,3.85,3.85,0,0,1,1.54,1.48,4.29,4.29,0,0,1,.55,2.21v2h-6.86v1a2.58,2.58,0,0,0,.66,1.88,2.4,2.4,0,0,0,1.8.68,3.11,3.11,0,0,0,1.58-.36,1.43,1.43,0,0,0,.74-1h2a3.13,3.13,0,0,1-1.38,2.22A5,5,0,0,1,221.08,177.91Zm-2.46-7.18v.52h4.92v-.52a2.7,2.7,0,0,0-.64-1.94,2.78,2.78,0,0,0-3.64,0A2.7,2.7,0,0,0,218.62,170.73Z" style="fill:#fbb03b"/><path d="M228.84,177.71v-11h2v2.1h0a2.47,2.47,0,0,1,.91-1.69,3.15,3.15,0,0,1,2-.61,3.44,3.44,0,0,1,2.62,1,3.93,3.93,0,0,1,1,2.8v7.36h-2v-7a2.6,2.6,0,0,0-.6-1.84,2.13,2.13,0,0,0-1.64-.64,2.22,2.22,0,0,0-1.7.67,2.67,2.67,0,0,0-.62,1.87v7Z" style="fill:#fbb03b"/><path d="M245.24,177.91a4.54,4.54,0,0,1-3.24-1.13,4,4,0,0,1-1.22-3.11v-2.94a4,4,0,0,1,1.22-3.09,4.58,4.58,0,0,1,3.24-1.13,4.65,4.65,0,0,1,3.13,1,3.73,3.73,0,0,1,1.25,2.81h-2a2.12,2.12,0,0,0-.71-1.55,2.58,2.58,0,0,0-1.71-.55,2.51,2.51,0,0,0-1.81.65,2.42,2.42,0,0,0-.67,1.83v2.94a2.42,2.42,0,0,0,.67,1.84,2.5,2.5,0,0,0,1.81.64,2.59,2.59,0,0,0,1.72-.54,2.06,2.06,0,0,0,.7-1.54h2a3.69,3.69,0,0,1-1.25,2.81A4.6,4.6,0,0,1,245.24,177.91Z" style="fill:#fbb03b"/><path d="M257.08,177.91a4.37,4.37,0,0,1-3.19-1.18,4.27,4.27,0,0,1-1.21-3.22v-2.6a4.28,4.28,0,0,1,1.21-3.22,4.37,4.37,0,0,1,3.19-1.18,4.86,4.86,0,0,1,2.31.53,3.85,3.85,0,0,1,1.54,1.48,4.29,4.29,0,0,1,.55,2.21v2h-6.86v1a2.58,2.58,0,0,0,.66,1.88,2.4,2.4,0,0,0,1.8.68,3.11,3.11,0,0,0,1.58-.36,1.43,1.43,0,0,0,.74-1h2a3.13,3.13,0,0,1-1.38,2.22A5,5,0,0,1,257.08,177.91Zm-2.46-7.18v.52h4.92v-.52a2.7,2.7,0,0,0-.64-1.94,2.78,2.78,0,0,0-3.64,0A2.7,2.7,0,0,0,254.62,170.73Z" style="fill:#fbb03b"/><path d="M272.78,180.11a7.62,7.62,0,0,1-4.49-2.7,8,8,0,0,1-1.59-5.1v-3.6a8,8,0,0,1,1.59-5.1,7.62,7.62,0,0,1,4.49-2.7v1.92a5,5,0,0,0-2.18,1.11,5.4,5.4,0,0,0-1.42,2,7.27,7.27,0,0,0-.5,2.74v3.6a7.16,7.16,0,0,0,.5,2.72,5.4,5.4,0,0,0,1.42,2,5,5,0,0,0,2.18,1.11Z" style="fill:#b34fff"/><path d="M276.86,177.71v-14.6h4.22a4.73,4.73,0,0,1,3.19,1,3.47,3.47,0,0,1,1.17,2.77,3.18,3.18,0,0,1-.71,2A2.91,2.91,0,0,1,282.9,170v.06a3,3,0,0,1,1.49.6,3.54,3.54,0,0,1,1,1.27,4.23,4.23,0,0,1-.82,4.67,4.58,4.58,0,0,1-3.23,1.1Zm1.94-8.44h2.26a2.51,2.51,0,0,0,1.76-.59,2.07,2.07,0,0,0,.64-1.61,2.1,2.1,0,0,0-.64-1.63,2.49,2.49,0,0,0-1.74-.59H278.8Zm0,6.7h2.38a2.74,2.74,0,0,0,1.92-.65,2.28,2.28,0,0,0,.7-1.77,2.44,2.44,0,0,0-2.62-2.6H278.8Z" style="fill:#00a99d"/><path d="M289.38,180.11v-1.94a5,5,0,0,0,2.18-1.11,5.53,5.53,0,0,0,1.43-2,7,7,0,0,0,.51-2.72v-3.6A7.08,7.08,0,0,0,293,166a5.53,5.53,0,0,0-1.43-2,5,5,0,0,0-2.18-1.11v-1.92a7.68,7.68,0,0,1,4.5,2.7,8,8,0,0,1,1.6,5.1v3.6a8,8,0,0,1-1.6,5.1A7.68,7.68,0,0,1,289.38,180.11Z" style="fill:#b34fff"/><path d="M120,203.71l3.78-14.6h2.62l3.76,14.6h-2l-.92-3.8h-4.28l-.92,3.8Zm3.34-5.44h3.48l-1-4.36q-.3-1.2-.48-2c-.12-.56-.2-.94-.22-1.14,0,.2-.1.58-.22,1.14s-.28,1.24-.46,2Z" style="fill:#00a99d"/><path d="M144.62,196.91l3.54-7.8H150l3.5,7.8h-1.8l-2.14-5c-.11-.26-.21-.52-.29-.77a2.93,2.93,0,0,1-.17-.59c-.06.15-.13.35-.21.59s-.19.51-.31.77l-2.2,5Z" style="fill:#ff1d25"/><path d="M168.86,203.71v-14.6h4.22a4.75,4.75,0,0,1,3.19,1,3.47,3.47,0,0,1,1.17,2.77,3.18,3.18,0,0,1-.71,2A3,3,0,0,1,174.9,196v.06a3.06,3.06,0,0,1,1.49.6,3.54,3.54,0,0,1,1,1.27,4,4,0,0,1,.37,1.69,3.87,3.87,0,0,1-1.19,3,4.6,4.6,0,0,1-3.23,1.1Zm1.94-8.44h2.26a2.53,2.53,0,0,0,1.76-.59,2.1,2.1,0,0,0,.64-1.61,2.13,2.13,0,0,0-.64-1.63,2.49,2.49,0,0,0-1.74-.59H170.8Zm0,6.7h2.38a2.74,2.74,0,0,0,1.92-.65,2.31,2.31,0,0,0,.7-1.77,2.62,2.62,0,0,0-.7-1.88,2.56,2.56,0,0,0-1.92-.72H170.8Z" style="fill:#00a99d"/></svg>