<svg xmlns="http://www.w3.org/2000/svg" viewBox="0 0 242 203.71"><title>set_difference</title><path d="M121,22A70,70,0,1,0,121,120,70,70,0,0,1,121,22Z" style="fill:#39b54a"/><path d="M71,142A71,71,0,1,1,121.71,21.33l.69.7-.69.7a69,69,0,0,0,0,96.54l.69.7-.69.7A70.47,70.47,0,0,1,71,142ZM71,2a69,69,0,1,0,48.6,118,71,71,0,0,1,0-97.92A68.47,68.47,0,0,0,71,2Z" style="fill:#fbb03b"/><path d="M171,142a70.47,70.47,0,0,1-50.71-21.33l-.69-.7.69-.7a69,69,0,0,0,0-96.54l-.69-.7.69-.7A71,71,0,1,1,171,142Zm-48.6-22A69,69,0,1,0,171,2a68.47,68.47,0,0,0-48.6,20,71,71,0,0,1,0,97.92Z" style="fill:#fbb03b"/><path d="M121,121.4l-.71-.73a70.94,70.94,0,0,1,0-99.34l.71-.73.71.73a70.94,70.94,0,0,1,0,99.34Zm0-97.93a69,69,0,0,0,0,95.06,69,69,0,0,0,0-95.06Z" style="fill:#fbb03b"/><path d="M60.64,81.56l5.67-21.9h3.93l5.64,21.9h-3l-1.38-5.7H65.05l-1.38,5.7Zm5-8.16h5.22l-1.56-6.54q-.45-1.8-.72-3.06t-.33-1.71q-.06.45-.33,1.71t-.69,3Z" style="fill:#fcee21"/><path d="M165.93,81.56V59.66h6.33A7.06,7.06,0,0,1,177,61.17a5.22,5.22,0,0,1,1.76,4.16,4.74,4.74,0,0,1-1.07,3A4.39,4.39,0,0,1,175,70v.09a4.44,4.44,0,0,1,2.23.9,5.19,5.19,0,0,1,1.53,1.9,6.32,6.32,0,0,1-1.23,7,6.85,6.85,0,0,1-4.84,1.65Zm2.91-12.66h3.39a3.75,3.75,0,0,0,2.64-.89,3.11,3.11,0,0,0,1-2.41,3.17,3.17,0,0,0-1-2.45,3.7,3.7,0,0,0-2.61-.88h-3.42Zm0,10h3.57a4.07,4.07,0,0,0,2.88-1,3.44,3.44,0,0,0,1.05-2.65,3.87,3.87,0,0,0-1.05-2.82,3.83,3.83,0,0,0-2.88-1.08h-3.57Z" style="fill:#fbb03b"/><path d="M32,177.71l3.78-14.6h2.62l3.76,14.6h-2l-.92-3.8H35l-.92,3.8Zm3.34-5.44h3.48l-1-4.36q-.3-1.2-.48-2c-.12-.56-.19-.94-.22-1.14,0,.2-.1.58-.22,1.14s-.27,1.24-.46,2Z" style="fill:#00a99d"/><path d="M49.11,177.91a1.69,1.69,0,0,1-1.23-.46,1.6,1.6,0,0,1-.47-1.18,1.71,1.71,0,0,1,.47-1.24,1.67,1.67,0,0,1,1.23-.48,1.63,1.63,0,0,1,1.23.48,1.67,1.67,0,0,1,.47,1.24,1.56,1.56,0,0,1-.47,1.18A1.66,1.66,0,0,1,49.11,177.91Z" style="fill:#ed1c24"/><path d="M60.39,177.91a3.36,3.36,0,0,1-2.64-1.11,4.4,4.4,0,0,1-1-3v-3.16a4.41,4.41,0,0,1,1-3,3.36,3.36,0,0,1,2.64-1.11,3.25,3.25,0,0,1,2,.62,2.58,2.58,0,0,1,1,1.7l0-2.56v-3.16h2v14.6h-2v-2.14a2.59,2.59,0,0,1-1,1.72A3.14,3.14,0,0,1,60.39,177.91Zm.68-1.72a2.18,2.18,0,0,0,1.68-.66,2.58,2.58,0,0,0,.62-1.86v-2.92a2.58,2.58,0,0,0-.62-1.86,2.18,2.18,0,0,0-1.68-.66,2.42,2.42,0,0,0-1.71.57,2.46,2.46,0,0,0-.61,1.85v3.12a2.45,2.45,0,0,0,.61,1.85A2.42,2.42,0,0,0,61.07,176.19Z" style="fill:#fbb03b"/><path d="M68.77,177.71v-1.8h3.86v-7.4H69.17v-1.8h5.44v9.2h3.62v1.8Zm4.66-12.94a1.61,1.61,0,0,1-1.08-.35,1.21,1.21,0,0,1-.4-.95,1.28,1.28,0,0,1,.4-1,1.57,1.57,0,0,1,1.08-.36,1.53,1.53,0,0,1,1.08.36,1.25,1.25,0,0,1,.4,1,1.18,1.18,0,0,1-.4.95A1.58,1.58,0,0,1,73.43,164.77Z" style="fill:#fbb03b"/><path d="M83.33,177.71V170H80.17v-1.8h3.16V166a2.71,2.71,0,0,1,.86-2.1,3.38,3.38,0,0,1,2.34-.78h3.22v1.78H86.53c-.81,0-1.22.37-1.22,1.12v2.2h4.44V170H85.31v7.7Z" style="fill:#fbb03b"/><path d="M95.33,177.71V170H92.17v-1.8h3.16V166a2.71,2.71,0,0,1,.86-2.1,3.38,3.38,0,0,1,2.34-.78h3.22v1.78H98.53c-.81,0-1.22.37-1.22,1.12v2.2h4.44V170H97.31v7.7Z" style="fill:#fbb03b"/><path d="M109.11,177.91a4.37,4.37,0,0,1-3.19-1.18,4.31,4.31,0,0,1-1.21-3.22v-2.6a4.32,4.32,0,0,1,1.21-3.22,4.37,4.37,0,0,1,3.19-1.18,4.86,4.86,0,0,1,2.31.53,3.79,3.79,0,0,1,1.54,1.48,4.29,4.29,0,0,1,.55,2.21v2h-6.86v1a2.58,2.58,0,0,0,.66,1.88,2.4,2.4,0,0,0,1.8.68,3.11,3.11,0,0,0,1.58-.36,1.41,1.41,0,0,0,.74-1h2a3.13,3.13,0,0,1-1.38,2.22A5,5,0,0,1,109.11,177.91Zm-2.46-7.18v.52h4.92v-.52a2.7,2.7,0,0,0-.64-1.94,2.38,2.38,0,0,0-1.82-.68,2.41,2.41,0,0,0-1.82.68A2.75,2.75,0,0,0,106.65,170.73Z" style="fill:#fbb03b"/><path d="M117.27,177.71v-11h2v2.12h0a2.6,2.6,0,0,1,.93-1.7,3.21,3.21,0,0,1,2-.62,3.34,3.34,0,0,1,2.64,1.05,4.25,4.25,0,0,1,.94,2.95v1h-2v-.94a2,2,0,0,0-2.26-2.3,2.21,2.21,0,0,0-1.73.66,2.75,2.75,0,0,0-.59,1.88v6.94Z" style="fill:#fbb03b"/><path d="M133.11,177.91a4.37,4.37,0,0,1-3.19-1.18,4.31,4.31,0,0,1-1.21-3.22v-2.6a4.32,4.32,0,0,1,1.21-3.22,4.37,4.37,0,0,1,3.19-1.18,4.86,4.86,0,0,1,2.31.53,3.79,3.79,0,0,1,1.54,1.48,4.29,4.29,0,0,1,.55,2.21v2h-6.86v1a2.58,2.58,0,0,0,.66,1.88,2.4,2.4,0,0,0,1.8.68,3.11,3.11,0,0,0,1.58-.36,1.41,1.41,0,0,0,.74-1h2a3.13,3.13,0,0,1-1.38,2.22A5,5,0,0,1,133.11,177.91Zm-2.46-7.18v.52h4.92v-.52a2.7,2.7,0,0,0-.64-1.94,2.38,2.38,0,0,0-1.82-.68,2.41,2.41,0,0,0-1.82.68A2.75,2.75,0,0,0,130.65,170.73Z" style="fill:#fbb03b"/><path d="M140.87,177.71v-11h2v2.1h0a2.51,2.51,0,0,1,.91-1.69,3.17,3.17,0,0,1,2-.61,3.43,3.43,0,0,1,2.62,1,3.89,3.89,0,0,1,1,2.8v7.36h-2v-7a2.6,2.6,0,0,0-.6-1.84,2.12,2.12,0,0,0-1.64-.64,2.24,2.24,0,0,0-1.7.67,2.67,2.67,0,0,0-.62,1.87v7Z" style="fill:#fbb03b"/><path d="M157.27,177.91a4.57,4.57,0,0,1-3.24-1.13,4,4,0,0,1-1.22-3.11v-2.94a4,4,0,0,1,1.22-3.09,5.24,5.24,0,0,1,6.37-.1,3.69,3.69,0,0,1,1.25,2.81h-2a2.09,2.09,0,0,0-.71-1.55,2.58,2.58,0,0,0-1.71-.55,2.51,2.51,0,0,0-1.81.65,2.46,2.46,0,0,0-.67,1.83v2.94a2.46,2.46,0,0,0,.67,1.84,2.5,2.5,0,0,0,1.81.64,2.57,2.57,0,0,0,1.72-.54,2.06,2.06,0,0,0,.7-1.54h2a3.66,3.66,0,0,1-1.25,2.81A4.58,4.58,0,0,1,157.27,177.91Z" style="fill:#fbb03b"/><path d="M169.11,177.91a4.37,4.37,0,0,1-3.19-1.18,4.31,4.31,0,0,1-1.21-3.22v-2.6a4.32,4.32,0,0,1,1.21-3.22,4.37,4.37,0,0,1,3.19-1.18,4.86,4.86,0,0,1,2.31.53,3.79,3.79,0,0,1,1.54,1.48,4.29,4.29,0,0,1,.55,2.21v2h-6.86v1a2.58,2.58,0,0,0,.66,1.88,2.4,2.4,0,0,0,1.8.68,3.11,3.11,0,0,0,1.58-.36,1.41,1.41,0,0,0,.74-1h2a3.13,3.13,0,0,1-1.38,2.22A5,5,0,0,1,169.11,177.91Zm-2.46-7.18v.52h4.92v-.52a2.7,2.7,0,0,0-.64-1.94,2.38,2.38,0,0,0-1.82-.68,2.41,2.41,0,0,0-1.82.68A2.75,2.75,0,0,0,166.65,170.73Z" style="fill:#fbb03b"/><path d="M184.81,180.11a7.62,7.62,0,0,1-4.49-2.7,8,8,0,0,1-1.59-5.1v-3.6a8,8,0,0,1,1.59-5.1,7.62,7.62,0,0,1,4.49-2.7v1.92a5,5,0,0,0-2.18,1.11,5.51,5.51,0,0,0-1.42,2,7.27,7.27,0,0,0-.5,2.74v3.6a7.16,7.16,0,0,0,.5,2.72,5.51,5.51,0,0,0,1.42,2,5,5,0,0,0,2.18,1.11Z" style="fill:#b34fff"/><path d="M188.89,177.71v-14.6h4.22a4.73,4.73,0,0,1,3.19,1,3.47,3.47,0,0,1,1.17,2.77,3.12,3.12,0,0,1-.71,2,2.91,2.91,0,0,1-1.83,1.09v.06a3,3,0,0,1,1.49.6,3.34,3.34,0,0,1,1,1.27,4.23,4.23,0,0,1-.82,4.67,4.58,4.58,0,0,1-3.23,1.1Zm1.94-8.44h2.26a2.5,2.5,0,0,0,1.76-.59,2.07,2.07,0,0,0,.64-1.61,2.1,2.1,0,0,0-.64-1.63,2.46,2.46,0,0,0-1.74-.59h-2.28Zm0,6.7h2.38a2.7,2.7,0,0,0,1.92-.65,2.28,2.28,0,0,0,.7-1.77,2.57,2.57,0,0,0-.7-1.88,2.53,2.53,0,0,0-1.92-.72h-2.38Z" style="fill:#00a99d"/><path d="M201.41,180.11v-1.94a5,5,0,0,0,2.18-1.11,5.42,5.42,0,0,0,1.43-2,7,7,0,0,0,.51-2.72v-3.6A7.08,7.08,0,0,0,205,166a5.42,5.42,0,0,0-1.43-2,5,5,0,0,0-2.18-1.11v-1.92a7.61,7.61,0,0,1,4.5,2.7,8,8,0,0,1,1.6,5.1v3.6a8,8,0,0,1-1.6,5.1A7.61,7.61,0,0,1,201.41,180.11Z" style="fill:#b34fff"/><path d="M92,203.71l3.78-14.6h2.62l3.76,14.6h-2l-.92-3.8H95l-.92,3.8Zm3.34-5.44h3.48l-1-4.36q-.3-1.2-.48-2c-.12-.56-.19-.94-.22-1.14,0,.2-.1.58-.22,1.14s-.27,1.24-.46,2Z" style="fill:#00a99d"/><path d="M117.91,198v-1.78h6.4V198Z" style="fill:#ff1d25"/><path d="M140.89,203.71v-14.6h4.22a4.73,4.73,0,0,1,3.19,1,3.47,3.47,0,0,1,1.17,2.77,3.18,3.18,0,0,1-.71,2,2.91,2.91,0,0,1-1.83,1.09v.06a3,3,0,0,1,1.49.6,3.54,3.54,0,0,1,1,1.27,4.23,4.23,0,0,1-.82,4.67,4.58,4.58,0,0,1-3.23,1.1Zm1.94-8.44h2.26a2.51,2.51,0,0,0,1.76-.59,2.07,2.07,0,0,0,.64-1.61,2.1,2.1,0,0,0-.64-1.63,2.49,2.49,0,0,0-1.74-.59h-2.28Zm0,6.7h2.38a2.74,2.74,0,0,0,1.92-.65,2.28,2.28,0,0,0,.7-1.77,2.44,2.44,0,0,0-2.62-2.6h-2.38Z" style="fill:#00a99d"/></svg>