<svg xmlns="http://www.w3.org/2000/svg" viewBox="0 0 928.42 358.4"><title>lc1</title><path d="M0,199.82v-63.4H18v6.49H7.69v50.42H18v6.49Z" style="fill:#c46d76"/><path d="M43.53,158H33.72v-6.5H52.08v28.24h10v6.49H32.53v-6.49h11Zm9.23-16a5.38,5.38,0,0,1-.41,2.12,5.21,5.21,0,0,1-1.14,1.73A5.59,5.59,0,0,1,49.48,147a5.47,5.47,0,0,1-2.15.43,5.56,5.56,0,0,1-2.17-.43,5.46,5.46,0,0,1-1.75-1.16,5.21,5.21,0,0,1-1.14-1.73,5.69,5.69,0,0,1,0-4.24A5.31,5.31,0,0,1,45.16,137a5.56,5.56,0,0,1,2.17-.43,5.38,5.38,0,0,1,3.88,1.61A5.48,5.48,0,0,1,52.76,142Z" style="fill:#acafbc"/><path d="M88.4,167.49H81.26l.95-10.57-8.58,6.16-3.45-6,9.61-4.41-9.61-4.41,3.45-5.95,8.58,6.16L81.26,138H88.4l-1,10.57L96,142.36l3.42,5.95-9.57,4.41,9.57,4.41-3.42,6-8.61-6.16Z" style="fill:#82a6ea"/><path d="M126.4,167.49h-7.15l1-10.57-8.58,6.16-3.45-6,9.6-4.41-9.6-4.41,3.45-5.95,8.58,6.16-1-10.57h7.15l-1,10.57,8.61-6.16,3.42,5.95-9.57,4.41,9.57,4.41-3.42,6-8.61-6.16Z" style="fill:#82a6ea"/><path d="M146,186.25V180.1l10.56-10.56q3-3,4.77-5.13a28.07,28.07,0,0,0,2.77-3.85,11.07,11.07,0,0,0,1.28-3.12,14.55,14.55,0,0,0,.31-3,7.22,7.22,0,0,0-.41-2.41,5.69,5.69,0,0,0-1.2-2,5.52,5.52,0,0,0-2-1.33,7.12,7.12,0,0,0-2.74-.5,10.54,10.54,0,0,0-4.88,1.15,18,18,0,0,0-4.28,3.06l-4.4-5.68a23.53,23.53,0,0,1,6.54-4.32,19.16,19.16,0,0,1,7.88-1.62,19.76,19.76,0,0,1,5.95.83,12.87,12.87,0,0,1,4.56,2.48,11.08,11.08,0,0,1,2.94,4.1,14.53,14.53,0,0,1,1,5.68,16.63,16.63,0,0,1-.72,5,19.15,19.15,0,0,1-2.08,4.49,30.61,30.61,0,0,1-3.37,4.38q-2,2.19-4.56,4.61l-6.49,6.19h18.83v7.69Z" style="fill:#d7c280"/><path d="M253.48,145a23.78,23.78,0,0,0-3.58-.8,26.61,26.61,0,0,0-4.22-.33,9.19,9.19,0,0,0-2.73.39,5.8,5.8,0,0,0-2.19,1.25,6,6,0,0,0-1.45,2.17,8.68,8.68,0,0,0-.53,3.2v5.6h13.64V163H238.78v23.24h-8.41V163H220.29v-6.5h10.08v-5.26a16.78,16.78,0,0,1,1.08-6.34,11.16,11.16,0,0,1,3-4.34,12.37,12.37,0,0,1,4.73-2.48,22.83,22.83,0,0,1,6.19-.79,29.48,29.48,0,0,1,4.29.3c1.35.19,2.61.42,3.78.7Z" style="fill:#b470d8"/><path d="M291.58,168.61a23,23,0,0,1-1.17,7.51,16.46,16.46,0,0,1-3.35,5.82,14.73,14.73,0,0,1-5.36,3.76,18.6,18.6,0,0,1-7.25,1.34,19.77,19.77,0,0,1-6.9-1.13,13.38,13.38,0,0,1-5.16-3.37,14.78,14.78,0,0,1-3.25-5.6,24.8,24.8,0,0,1-1.13-7.85,22.64,22.64,0,0,1,1.18-7.52,16.36,16.36,0,0,1,3.38-5.77,14.89,14.89,0,0,1,5.39-3.71,18.55,18.55,0,0,1,7.17-1.32,19.46,19.46,0,0,1,6.94,1.15,13.34,13.34,0,0,1,5.16,3.4,14.73,14.73,0,0,1,3.23,5.59A24.07,24.07,0,0,1,291.58,168.61Zm-8.69.21q0-5.4-2-8.12a7,7,0,0,0-6-2.72,7.52,7.52,0,0,0-3.72.86,7.18,7.18,0,0,0-2.53,2.34,10.56,10.56,0,0,0-1.46,3.47,19.07,19.07,0,0,0-.46,4.24q0,5.43,2.19,8.18a7.21,7.21,0,0,0,6,2.75,7.42,7.42,0,0,0,3.62-.83,6.82,6.82,0,0,0,2.5-2.33,11.19,11.19,0,0,0,1.44-3.5A19.31,19.31,0,0,0,282.89,168.82Z" style="fill:#b470d8"/><path d="M320.65,165a15.12,15.12,0,0,0-.19-3.31,6.38,6.38,0,0,0-.82-2.26,3.56,3.56,0,0,0-1.38-1.3,4.22,4.22,0,0,0-1.88-.41,6.26,6.26,0,0,0-3.81,1.53,22.05,22.05,0,0,0-4.33,5v22H299.7V151.52h7.55l.31,5.06a13.73,13.73,0,0,1,1.93-2.39,12.13,12.13,0,0,1,2.39-1.83,11.59,11.59,0,0,1,2.93-1.18,14.35,14.35,0,0,1,3.52-.41,11.23,11.23,0,0,1,4.66.91,8.78,8.78,0,0,1,3.42,2.68,11.79,11.79,0,0,1,2,4.46A23.17,23.17,0,0,1,329,165Z" style="fill:#b470d8"/><path d="M385.5,158h-9.81v-6.5h18.36v28.24h10v6.49H374.5v-6.49h11Zm9.23-16a5.56,5.56,0,0,1-.41,2.12,5.24,5.24,0,0,1-1.15,1.73,5.55,5.55,0,0,1-1.72,1.16,5.48,5.48,0,0,1-2.16.43,5.55,5.55,0,0,1-2.16-.43,5.46,5.46,0,0,1-1.75-1.16,5.21,5.21,0,0,1-1.14-1.73,5.44,5.44,0,0,1,2.89-7.16,5.55,5.55,0,0,1,2.16-.43,5.33,5.33,0,0,1,3.88,1.61,5.39,5.39,0,0,1,1.15,1.74A5.56,5.56,0,0,1,394.73,142Z" style="fill:#acafbc"/><path d="M461.49,158h-9.81v-6.5H470v28.24h10v6.49H450.49v-6.49h11Zm9.23-16a5.38,5.38,0,0,1-.41,2.12,5.21,5.21,0,0,1-1.14,1.73,5.59,5.59,0,0,1-1.73,1.16,5.47,5.47,0,0,1-2.15.43,5.57,5.57,0,0,1-3.92-1.59,5.21,5.21,0,0,1-1.14-1.73,5.69,5.69,0,0,1,0-4.24,5.36,5.36,0,0,1,1.14-1.74,5.46,5.46,0,0,1,1.75-1.18,5.56,5.56,0,0,1,2.17-.43,5.38,5.38,0,0,1,3.88,1.61,5.48,5.48,0,0,1,1.55,3.86Z" style="fill:#b470d8"/><path d="M509,186.25V163.62q0-5.7-4.24-5.7a6,6,0,0,0-4.05,1.7,29.66,29.66,0,0,0-4.08,4.65v22h-8.34V151.52h7.21l.21,5.13a23.61,23.61,0,0,1,2.2-2.43,12.66,12.66,0,0,1,2.48-1.86,12.12,12.12,0,0,1,2.87-1.18,13.6,13.6,0,0,1,3.45-.41,11.48,11.48,0,0,1,4.65.87,9,9,0,0,1,3.32,2.46,10.82,10.82,0,0,1,2,3.83,17.67,17.67,0,0,1,.66,5v23.31Z" style="fill:#b470d8"/><path d="M586.63,165a15.77,15.77,0,0,0-.19-3.31,6.58,6.58,0,0,0-.82-2.26,3.59,3.59,0,0,0-1.39-1.3,4.16,4.16,0,0,0-1.88-.41,6.26,6.26,0,0,0-3.81,1.53,21.81,21.81,0,0,0-4.32,5v22h-8.55V151.52h7.56l.3,5.06a14.21,14.21,0,0,1,1.93-2.39,11.91,11.91,0,0,1,2.4-1.83,11.52,11.52,0,0,1,2.92-1.18,14.35,14.35,0,0,1,3.52-.41,11.31,11.31,0,0,1,4.67.91,8.82,8.82,0,0,1,3.41,2.68,11.8,11.8,0,0,1,2.06,4.46A23.2,23.2,0,0,1,595,165Z" style="fill:#a2c47d"/><path d="M624,186.25l-.2-4.55a23.05,23.05,0,0,1-2.3,2.14,14.07,14.07,0,0,1-5.75,2.8,16.55,16.55,0,0,1-3.71.4,13,13,0,0,1-4.69-.79,9.33,9.33,0,0,1-3.38-2.19,9.15,9.15,0,0,1-2.07-3.38,13.24,13.24,0,0,1-.7-4.38,9.94,9.94,0,0,1,1-4.54,9.64,9.64,0,0,1,3.17-3.59,16.87,16.87,0,0,1,5.34-2.36,29.22,29.22,0,0,1,7.5-.85h4.54v-2.09a7.3,7.3,0,0,0-.37-2.41,4.31,4.31,0,0,0-1.22-1.83,5.61,5.61,0,0,0-2.17-1.16,11.36,11.36,0,0,0-3.28-.41,26.27,26.27,0,0,0-6.06.7,31.22,31.22,0,0,0-5.8,2v-6.67a33.36,33.36,0,0,1,5.76-1.64,35,35,0,0,1,6.79-.65,26.13,26.13,0,0,1,6.63.74,12,12,0,0,1,4.56,2.2,8.74,8.74,0,0,1,2.65,3.68,14.12,14.12,0,0,1,.85,5.14v23.72Zm-1.2-15.35h-5.09a13.69,13.69,0,0,0-3.59.41,6.9,6.9,0,0,0-2.39,1.13,4.41,4.41,0,0,0-1.35,1.66,4.7,4.7,0,0,0-.43,2,3.93,3.93,0,0,0,1.37,3.23,5.74,5.74,0,0,0,3.73,1.11,6.47,6.47,0,0,0,3.62-1.27,26,26,0,0,0,4.13-3.62Z" style="fill:#a2c47d"/><path d="M661,186.25V163.62c0-3.8-1.42-5.7-4.24-5.7a6,6,0,0,0-4,1.7,29.66,29.66,0,0,0-4.09,4.65v22h-8.34V151.52h7.22l.2,5.13a23.67,23.67,0,0,1,2.21-2.43,12.6,12.6,0,0,1,2.47-1.86,12.29,12.29,0,0,1,2.87-1.18,13.63,13.63,0,0,1,3.46-.41,11.55,11.55,0,0,1,4.65.87,9,9,0,0,1,3.31,2.46,10.51,10.51,0,0,1,2,3.83,17.66,17.66,0,0,1,.67,5v23.31Z" style="fill:#a2c47d"/><path d="M704.31,157.61a7.69,7.69,0,0,1,1.35,2.51,9.39,9.39,0,0,1,.39,2.68,12.33,12.33,0,0,1-1,5.13,10.28,10.28,0,0,1-2.84,3.73,12.43,12.43,0,0,1-4.37,2.27,19.48,19.48,0,0,1-5.62.77,14.64,14.64,0,0,1-3.35-.36,8.25,8.25,0,0,1-2.33-.84,6.36,6.36,0,0,0-1,1.28,3.14,3.14,0,0,0-.41,1.59,2.48,2.48,0,0,0,.27,1.1,3,3,0,0,0,.81,1,4.24,4.24,0,0,0,1.26.7,5.27,5.27,0,0,0,1.66.31l8.24.31a20.19,20.19,0,0,1,5,.7,12.17,12.17,0,0,1,3.84,1.79,8.22,8.22,0,0,1,2.48,2.82,8,8,0,0,1,.87,3.78,10,10,0,0,1-1.09,4.58,10.51,10.51,0,0,1-3.3,3.74,17.22,17.22,0,0,1-5.49,2.51,28.08,28.08,0,0,1-7.62.93,34.35,34.35,0,0,1-7.23-.67,16.28,16.28,0,0,1-5-1.86,8,8,0,0,1-2.85-2.86,7.4,7.4,0,0,1-.92-3.64,7.49,7.49,0,0,1,.31-2.22,7.29,7.29,0,0,1,.92-2,10.25,10.25,0,0,1,1.54-1.83,17.23,17.23,0,0,1,2.18-1.78,6.76,6.76,0,0,1-2.54-2.46,6.32,6.32,0,0,1-.87-3.21,7.66,7.66,0,0,1,.3-2.18,11.26,11.26,0,0,1,.81-1.93,14,14,0,0,1,1.14-1.77c.43-.57.89-1.13,1.37-1.68a10.44,10.44,0,0,1-2.1-3.06,10.55,10.55,0,0,1-.84-4.49,12.38,12.38,0,0,1,1-5.18,10.91,10.91,0,0,1,2.89-3.83,12.61,12.61,0,0,1,4.39-2.36,18.58,18.58,0,0,1,5.56-.8,28,28,0,0,1,2.95.15,13.35,13.35,0,0,1,2.58.53h12v6.09Zm-19.66,33.25a3.14,3.14,0,0,0,2,3,13.71,13.71,0,0,0,5.72.95,15.14,15.14,0,0,0,4-.44,8.59,8.59,0,0,0,2.65-1.16,4.23,4.23,0,0,0,1.47-1.68,4.58,4.58,0,0,0,.45-2,2.74,2.74,0,0,0-.43-1.55,3.27,3.27,0,0,0-1.2-1.06,6.31,6.31,0,0,0-1.81-.65,14,14,0,0,0-2.31-.29l-7.34-.14a12.35,12.35,0,0,0-1.63,1.3,6.13,6.13,0,0,0-1,1.21,3.78,3.78,0,0,0-.48,1.22A6.73,6.73,0,0,0,684.65,190.86Zm1.4-27.85a5.91,5.91,0,0,0,1.63,4.39,6.12,6.12,0,0,0,4.53,1.62,6.54,6.54,0,0,0,2.68-.51,5.46,5.46,0,0,0,1.9-1.37,5.69,5.69,0,0,0,1.12-2,7.43,7.43,0,0,0,.38-2.36,5.62,5.62,0,0,0-6.15-6.15,6.51,6.51,0,0,0-2.68.51,5.29,5.29,0,0,0-1.9,1.39,5.85,5.85,0,0,0-1.13,2A7.92,7.92,0,0,0,686.05,163Z" style="fill:#a2c47d"/><path d="M746.51,166.22c0,.57,0,1.31,0,2.22s-.09,1.77-.16,2.57H723.47a10.7,10.7,0,0,0,.7,4,8,8,0,0,0,2,2.92,8.58,8.58,0,0,0,3.08,1.8,12.18,12.18,0,0,0,4,.61,40.65,40.65,0,0,0,5.42-.39,43.38,43.38,0,0,0,6-1.28v6.63c-.89.25-1.86.48-2.91.68s-2.12.39-3.21.55-2.2.28-3.32.36S733,187,732,187a21,21,0,0,1-7.11-1.13,14.08,14.08,0,0,1-5.34-3.33,14.63,14.63,0,0,1-3.35-5.46A22.37,22.37,0,0,1,715,169.6a24.26,24.26,0,0,1,1.16-7.7,17.58,17.58,0,0,1,3.29-6,14.36,14.36,0,0,1,5.14-3.83,16.41,16.41,0,0,1,6.75-1.35,17.22,17.22,0,0,1,6.53,1.15,13.17,13.17,0,0,1,4.75,3.19,13.78,13.78,0,0,1,2.9,4.89A18.49,18.49,0,0,1,746.51,166.22ZM738,165a10.26,10.26,0,0,0-.51-3.57,7.12,7.12,0,0,0-1.49-2.51,6,6,0,0,0-2.19-1.47,7.37,7.37,0,0,0-2.68-.48,6.83,6.83,0,0,0-5.16,2.1,9.64,9.64,0,0,0-2.39,5.93Z" style="fill:#a2c47d"/><path d="M775.41,200.61A50.13,50.13,0,0,1,763,185.5a37.39,37.39,0,0,1-4.15-17.37,37.89,37.89,0,0,1,4.7-18.52,44.2,44.2,0,0,1,5.33-7.64,59.56,59.56,0,0,1,6.79-6.68l4.75,4.75a41.85,41.85,0,0,0-10,12.92A33.18,33.18,0,0,0,767,167.55a34.83,34.83,0,0,0,3.35,14.92,40.3,40.3,0,0,0,10,13.08Z" style="fill:#7db2be"/><path d="M792.69,186.25v-7.42h11.39V150.12l-9.92,5.47-2.73-6.8,14.18-7.49h7v37.53h9.81v7.42Z" style="fill:#d7c280"/><path d="M862.17,163.73a37,37,0,0,1-1.2,9.84,20.82,20.82,0,0,1-3.5,7.33,15.17,15.17,0,0,1-5.62,4.56,18.74,18.74,0,0,1-14.39.28,13.62,13.62,0,0,1-5.37-4.09,20.1,20.1,0,0,1-3.52-7.12,37.63,37.63,0,0,1-1.26-10.39,36.64,36.64,0,0,1,1.21-9.85A21.53,21.53,0,0,1,832,147a15.19,15.19,0,0,1,5.64-4.56,18.86,18.86,0,0,1,14.39-.28,13.55,13.55,0,0,1,5.35,4.07,20.38,20.38,0,0,1,3.51,7.11A37.73,37.73,0,0,1,862.17,163.73Zm-26.46.13v1.28c0,.4,0,.81.07,1.22l16.75-12.1a11.13,11.13,0,0,0-3.16-5,7,7,0,0,0-4.63-1.62,6.86,6.86,0,0,0-3.56,1,8.48,8.48,0,0,0-2.85,3,17.2,17.2,0,0,0-1.91,5.06A32.26,32.26,0,0,0,835.71,163.86Zm18,.14c0-.39,0-.78,0-1.18s0-.78,0-1.15l-16.64,12a10.29,10.29,0,0,0,3.07,4.92,7.13,7.13,0,0,0,4.62,1.6,6.84,6.84,0,0,0,3.57-1,8.44,8.44,0,0,0,2.87-3,16.88,16.88,0,0,0,1.9-5.06A33.64,33.64,0,0,0,853.76,164Z" style="fill:#d7c280"/><path d="M876.24,135.29a48.43,48.43,0,0,1,12.48,15.05,39.29,39.29,0,0,1,2.87,27.23,40.21,40.21,0,0,1-3.44,8.71,42.59,42.59,0,0,1-5.28,7.68,58.32,58.32,0,0,1-6.77,6.65l-4.78-4.76a41.73,41.73,0,0,0,10-12.95,33.41,33.41,0,0,0,3.35-14.63,34.87,34.87,0,0,0-3.35-14.9,40.69,40.69,0,0,0-10-13.13Z" style="fill:#7db2be"/><path d="M910.51,199.82v-6.49h10.22V142.91H910.51v-6.49h17.91v63.4Z" style="fill:#c46d76"/><rect x="34.24" y="222.69" width="145" height="17" style="fill:#ed1e79"/><rect x="225.24" y="222.69" width="666" height="17" style="fill:#009245"/><path d="M404,297.18h2v11.29h-4.31l-.79-7H387.92l-.77,7h-4.33V297.18h1.69a6.72,6.72,0,0,0,1.45-2,13.93,13.93,0,0,0,.94-3.3c.25-1.42.48-3.34.66-5.77l.55-7.26H404Zm-5.38-14.27h-5.46l-.21,2.92a53.5,53.5,0,0,1-.72,5.93,11.07,11.07,0,0,1-1.11,3.31,7,7,0,0,1-1.93,2.11h9.43Z" style="fill:#009245"/><path d="M429.62,278.83v22.6H424V283.1h-6.08l-.28,3.88a48.23,48.23,0,0,1-1,8,10.47,10.47,0,0,1-2,4.36,12.62,12.62,0,0,1-3.87,2.85l-2.35-3.58a7.17,7.17,0,0,0,1.88-1.84,9.51,9.51,0,0,0,1.17-3.2,49.24,49.24,0,0,0,.84-6.33l.61-8.37Z" style="fill:#009245"/><path d="M454.49,278.83v22.6h-5.64v-8.19h-4.31l-4.48,8.19h-6l5.49-9.41a7.06,7.06,0,0,1-2.9-2.41,6.13,6.13,0,0,1-1-3.5,6.57,6.57,0,0,1,1.14-3.87,7.27,7.27,0,0,1,3.43-2.52,15.57,15.57,0,0,1,5.61-.89Zm-5.64,10.76v-7H445.7a5.16,5.16,0,0,0-3.25.84,3.08,3.08,0,0,0-1,2.55,3.33,3.33,0,0,0,1,2.7,5,5,0,0,0,3.29.89Z" style="fill:#009245"/><path d="M492.54,301.43h-5.63v-22.6h5.63v8.82h3.61l5.46-8.82h5.66l-6.73,10.48,7.54,12.12h-6.15L496,291.57h-3.46Z" style="fill:#009245"/><path d="M530.08,295.48a3.59,3.59,0,0,0,.38,1.86,2.19,2.19,0,0,0,1.24.91L530.49,302a7.7,7.7,0,0,1-3.13-.93,4.81,4.81,0,0,1-1.91-2.12,7.78,7.78,0,0,1-3.18,2.3,10.78,10.78,0,0,1-4.14.79,8.54,8.54,0,0,1-4-.89,6.28,6.28,0,0,1-2.62-2.48,7.32,7.32,0,0,1-.92-3.69,6.63,6.63,0,0,1,1.26-4.08,7.71,7.71,0,0,1,3.69-2.56,17.63,17.63,0,0,1,5.89-.87h3.16v-1.22a3.41,3.41,0,0,0-1.22-2.89,5.82,5.82,0,0,0-3.58-.93,15.24,15.24,0,0,0-2.8.31,24.79,24.79,0,0,0-3.28.86l-1.35-3.86a25.8,25.8,0,0,1,4.26-1.17,22.43,22.43,0,0,1,4.06-.41q4.68,0,7,2a7.09,7.09,0,0,1,2.35,5.73Zm-7.5,1.78a5.42,5.42,0,0,0,2-2v-4.39H522.4a8.13,8.13,0,0,0-4.5,1,3.68,3.68,0,0,0-.53,5.32,3.6,3.6,0,0,0,2.6.85A5.21,5.21,0,0,0,522.58,297.26Z" style="fill:#009245"/><path d="M548.78,301.43h-4.1V291.29h-1.55l-3.91,10.14h-5.14l5.21-12.12-5-10.48h5.08l3.69,9.05h1.6v-9.05h4.1v9.05h1.6l3.84-9.05h4.93l-4.93,10.48,5.21,12.12h-5.14l-4-10.14h-1.51Z" style="fill:#009245"/><path d="M581.16,297.18h2v11.29h-4.31l-.79-7H565.11l-.77,7H560V297.18h1.69a6.9,6.9,0,0,0,1.45-2,13.93,13.93,0,0,0,.94-3.3q.38-2.13.66-5.77l.55-7.26h15.86Zm-5.38-14.27h-5.46l-.22,2.92a53.94,53.94,0,0,1-.71,5.93,11.07,11.07,0,0,1-1.11,3.31,7,7,0,0,1-1.93,2.11h9.43Z" style="fill:#009245"/><path d="M603.08,279.65a9.38,9.38,0,0,1,3.59,4.14,15,15,0,0,1,1.23,6.29,15.27,15.27,0,0,1-1.24,6.37,9.33,9.33,0,0,1-3.62,4.16,10.67,10.67,0,0,1-5.68,1.46,10.86,10.86,0,0,1-5.7-1.43,9.16,9.16,0,0,1-3.61-4.12,15.26,15.26,0,0,1-1.23-6.4,14.76,14.76,0,0,1,1.24-6.24,9.6,9.6,0,0,1,3.63-4.19,10.45,10.45,0,0,1,5.69-1.5A10.69,10.69,0,0,1,603.08,279.65Zm-9.24,4.66a11.32,11.32,0,0,0-1.16,5.81q0,4,1.16,5.85a4.27,4.27,0,0,0,7,0q1.15-1.87,1.15-5.88a11.24,11.24,0,0,0-1.15-5.77,4.25,4.25,0,0,0-7,0Z" style="fill:#009245"/><path d="M621.24,283.25v18.18h-5.63v-22.6h17l-.64,4.42Z" style="fill:#009245"/><path d="M653.7,279.65a9.26,9.26,0,0,1,3.59,4.14,15,15,0,0,1,1.23,6.29,15.27,15.27,0,0,1-1.23,6.37,9.39,9.39,0,0,1-3.62,4.16,11.93,11.93,0,0,1-11.38,0,9.1,9.1,0,0,1-3.61-4.12,15.1,15.1,0,0,1-1.24-6.4,14.76,14.76,0,0,1,1.25-6.24,9.48,9.48,0,0,1,3.63-4.19,10.42,10.42,0,0,1,5.68-1.5A10.69,10.69,0,0,1,653.7,279.65Zm-9.24,4.66a11.34,11.34,0,0,0-1.15,5.81q0,4,1.15,5.85a4.27,4.27,0,0,0,7,0q1.15-1.87,1.15-5.88a11.24,11.24,0,0,0-1.15-5.77,3.82,3.82,0,0,0-3.5-1.87A3.87,3.87,0,0,0,644.46,284.31Z" style="fill:#009245"/><path d="M690.2,278.83h12v18.61h6v4H690v-4h6.61V282.82h-6.4Zm10.2-10.95a3.18,3.18,0,0,1,1.24,1.2,3.35,3.35,0,0,1-1.24,4.63,3.6,3.6,0,0,1-1.81.45,3.65,3.65,0,0,1-1.83-.45,3.39,3.39,0,0,1-1.25-4.63,3.21,3.21,0,0,1,1.25-1.2,3.75,3.75,0,0,1,1.83-.44A3.7,3.7,0,0,1,700.4,267.88Z" style="fill:#009245"/><path d="M328.11,340.76a5.12,5.12,0,0,1,1.46,3.83,5.53,5.53,0,0,1-2.8,5.11,14.14,14.14,0,0,1-7.3,1.66H310V329c1.59-.3,3.08-.52,4.47-.67a39.77,39.77,0,0,1,4.28-.23,17.45,17.45,0,0,1,5.1.68,7.58,7.58,0,0,1,3.41,2,4.72,4.72,0,0,1,1.22,3.27c0,2.47-1.55,4.11-4.65,4.9A7.31,7.31,0,0,1,328.11,340.76Zm-12.5-8.65v5.61h3.48A5,5,0,0,0,322,337a2.51,2.51,0,0,0,1-2.21,2.47,2.47,0,0,0-1.05-2.2,5.9,5.9,0,0,0-3.22-.7A22.58,22.58,0,0,0,315.61,332.11Zm3.69,15.34a5.86,5.86,0,0,0,3.4-.79,3.14,3.14,0,0,0-.08-4.86,5.64,5.64,0,0,0-3.19-.79h-3.82v6.44Z" style="fill:#009245"/><path d="M378.91,351.36H373.3V333h-7.51v18.33h-5.61v-22.6h18.73Z" style="fill:#009245"/><path d="M400.58,329.58a9.38,9.38,0,0,1,3.59,4.14A15,15,0,0,1,405.4,340a15.27,15.27,0,0,1-1.24,6.37,9.38,9.38,0,0,1-3.62,4.16,10.67,10.67,0,0,1-5.68,1.46,10.86,10.86,0,0,1-5.7-1.43,9.16,9.16,0,0,1-3.61-4.12,15.29,15.29,0,0,1-1.23-6.4,14.76,14.76,0,0,1,1.24-6.24,9.6,9.6,0,0,1,3.63-4.19,10.45,10.45,0,0,1,5.69-1.5A10.69,10.69,0,0,1,400.58,329.58Zm-9.24,4.65a11.39,11.39,0,0,0-1.16,5.82q0,4,1.16,5.85a4.26,4.26,0,0,0,7,0q1.15-1.86,1.15-5.87a11.29,11.29,0,0,0-1.15-5.78,4.26,4.26,0,0,0-7,0Z" style="fill:#009245"/><path d="M424.87,347a12.89,12.89,0,0,0,2.64-1.45l2.56,3.61a11.86,11.86,0,0,1-3.67,2.1,12.88,12.88,0,0,1-4.46.78,11.92,11.92,0,0,1-6.05-1.47,9.86,9.86,0,0,1-3.9-4.14,13.41,13.41,0,0,1-1.36-6.19A13.7,13.7,0,0,1,412,334a10.2,10.2,0,0,1,4-4.29,11.57,11.57,0,0,1,6.06-1.55,13.51,13.51,0,0,1,4.38.68,11.7,11.7,0,0,1,3.64,2.07l-2.5,3.46a9.42,9.42,0,0,0-5.35-1.79,5,5,0,0,0-4.13,1.88q-1.51,1.88-1.51,5.78t1.51,5.55a5.15,5.15,0,0,0,4.1,1.72A7.28,7.28,0,0,0,424.87,347Z" style="fill:#009245"/><path d="M454.93,328.76v22.6H449.3V333h-6.08l-.28,3.88a48.38,48.38,0,0,1-1,8,10.43,10.43,0,0,1-2,4.35,12.48,12.48,0,0,1-3.87,2.86l-2.35-3.58a7.18,7.18,0,0,0,1.88-1.84,9.38,9.38,0,0,0,1.17-3.2,49.24,49.24,0,0,0,.84-6.33l.62-8.37Z" style="fill:#009245"/><path d="M466.23,341.78a6.66,6.66,0,0,0,1.8,4.52,5.66,5.66,0,0,0,4,1.47,9.06,9.06,0,0,0,3-.49,12.55,12.55,0,0,0,2.88-1.45l2.35,3.22a12.24,12.24,0,0,1-3.84,2.17,14.11,14.11,0,0,1-4.74.78,11.8,11.8,0,0,1-6.13-1.5,9.49,9.49,0,0,1-3.82-4.18,15.57,15.57,0,0,1,0-12.34,10.25,10.25,0,0,1,3.67-4.29,10.12,10.12,0,0,1,5.67-1.57,10.27,10.27,0,0,1,5.36,1.37,9,9,0,0,1,3.52,3.93,14.1,14.1,0,0,1,1.23,6.12,22.24,22.24,0,0,1-.1,2.24Zm1.44-8.19a7.84,7.84,0,0,0-1.51,4.58h9.52a7.65,7.65,0,0,0-1.21-4.5,4,4,0,0,0-3.4-1.58A4.26,4.26,0,0,0,467.67,333.59Z" style="fill:#009245"/><path d="M505.22,347.11h2V358.4h-4.31l-.79-7H489.17l-.77,7h-4.33V347.11h1.69a6.64,6.64,0,0,0,1.45-2,13.83,13.83,0,0,0,.94-3.29c.25-1.42.48-3.34.66-5.77l.55-7.26h15.86Zm-5.38-14.27h-5.46l-.21,2.92a53.81,53.81,0,0,1-.72,5.93,11.07,11.07,0,0,1-1.11,3.31,7,7,0,0,1-1.93,2.11h9.43Z" style="fill:#009245"/><path d="M527.14,329.58a9.32,9.32,0,0,1,3.59,4.14A15,15,0,0,1,532,340a15.11,15.11,0,0,1-1.24,6.37,9.36,9.36,0,0,1-3.61,4.16,10.73,10.73,0,0,1-5.69,1.46,10.86,10.86,0,0,1-5.7-1.43,9.08,9.08,0,0,1-3.6-4.12,15.13,15.13,0,0,1-1.24-6.4,14.61,14.61,0,0,1,1.25-6.24,9.52,9.52,0,0,1,3.62-4.19,10.48,10.48,0,0,1,5.69-1.5A10.69,10.69,0,0,1,527.14,329.58Zm-9.24,4.65a11.4,11.4,0,0,0-1.15,5.82q0,4,1.15,5.85a4.26,4.26,0,0,0,7,0q1.15-1.86,1.15-5.87a11.29,11.29,0,0,0-1.15-5.78,3.84,3.84,0,0,0-3.5-1.86A3.88,3.88,0,0,0,517.9,334.23Z" style="fill:#009245"/><path d="M555.92,340.76a5.12,5.12,0,0,1,1.46,3.83,5.51,5.51,0,0,1-2.8,5.11,14.1,14.1,0,0,1-7.29,1.66h-9.5V329c1.59-.3,3.09-.52,4.47-.67a39.77,39.77,0,0,1,4.28-.23,17.45,17.45,0,0,1,5.1.68,7.58,7.58,0,0,1,3.41,2,4.72,4.72,0,0,1,1.22,3.27c0,2.47-1.55,4.11-4.65,4.9A7.31,7.31,0,0,1,555.92,340.76Zm-12.5-8.65v5.61h3.48a5,5,0,0,0,2.87-.69,2.51,2.51,0,0,0,1-2.21,2.47,2.47,0,0,0-1-2.2,5.88,5.88,0,0,0-3.21-.7A22.63,22.63,0,0,0,543.42,332.11Zm3.7,15.34a5.85,5.85,0,0,0,3.39-.79,3.14,3.14,0,0,0-.08-4.86,5.64,5.64,0,0,0-3.19-.79h-3.82v6.44Z" style="fill:#009245"/><path d="M580.71,345.4a3.64,3.64,0,0,0,.37,1.87,2.25,2.25,0,0,0,1.25.91L581.11,352A7.65,7.65,0,0,1,578,351a4.72,4.72,0,0,1-1.91-2.13,7.94,7.94,0,0,1-3.18,2.31,11,11,0,0,1-4.14.79,8.51,8.51,0,0,1-4-.89,6.28,6.28,0,0,1-2.62-2.48,7.22,7.22,0,0,1-.92-3.69,6.61,6.61,0,0,1,1.26-4.08,7.71,7.71,0,0,1,3.69-2.56,17.53,17.53,0,0,1,5.89-.88h3.15v-1.21a3.4,3.4,0,0,0-1.21-2.89,5.85,5.85,0,0,0-3.59-.93,15.15,15.15,0,0,0-2.79.31,23.46,23.46,0,0,0-3.29.86L563,329.7a25.8,25.8,0,0,1,4.26-1.17,22.34,22.34,0,0,1,4.06-.41c3.12,0,5.45.67,7,2a7.12,7.12,0,0,1,2.35,5.73Zm-7.5,1.79a5.39,5.39,0,0,0,2-2v-4.4H573a8.18,8.18,0,0,0-4.51,1,3.68,3.68,0,0,0-.53,5.32,3.64,3.64,0,0,0,2.6.85A5.25,5.25,0,0,0,573.21,347.19Z" style="fill:#009245"/><path d="M586.71,328.76h21.55l-.68,4.29h-7.41v18.31h-5.63V333.05h-7.83Z" style="fill:#009245"/><path d="M618.1,341.78a6.66,6.66,0,0,0,1.81,4.52,5.62,5.62,0,0,0,4,1.47,9.1,9.1,0,0,0,3-.49,12.55,12.55,0,0,0,2.88-1.45l2.34,3.22a12,12,0,0,1-3.84,2.17,14,14,0,0,1-4.73.78,11.84,11.84,0,0,1-6.14-1.5,9.55,9.55,0,0,1-3.82-4.18,15.51,15.51,0,0,1,0-12.34,10.59,10.59,0,0,1,14.69-4.49,9,9,0,0,1,3.52,3.93,14,14,0,0,1,1.24,6.12,22.1,22.1,0,0,1-.11,2.24Zm1.44-8.19a7.77,7.77,0,0,0-1.5,4.58h9.52a7.65,7.65,0,0,0-1.21-4.5,4,4,0,0,0-3.4-1.58A4.28,4.28,0,0,0,619.54,333.59Z" style="fill:#009245"/><path d="M657.43,328.76v22.6H651.8V333h-6.08l-.28,3.88a48.38,48.38,0,0,1-1,8,10.43,10.43,0,0,1-2,4.35,12.48,12.48,0,0,1-3.87,2.86l-2.35-3.58a7.18,7.18,0,0,0,1.88-1.84,9.38,9.38,0,0,0,1.17-3.2,49.24,49.24,0,0,0,.84-6.33l.62-8.37Z" style="fill:#009245"/><path d="M670.46,328.76v6.87h3.07q5.31,0,7.84,2a6.91,6.91,0,0,1,2.53,5.84c0,2.78-.92,4.79-2.74,6a12.66,12.66,0,0,1-7.27,1.88h-9.07v-22.6Zm0,10.76v7.8h3.41a4.64,4.64,0,0,0,3.1-.9,4.83,4.83,0,0,0,0-6,5.2,5.2,0,0,0-3.46-.91Z" style="fill:#009245"/><path d="M708,351.36h-5.63V342h-7.47v9.37h-5.63v-22.6h5.63v9h7.47v-9H708Z" style="fill:#009245"/><path d="M729.64,329.58a9.32,9.32,0,0,1,3.59,4.14,15,15,0,0,1,1.23,6.29,15.11,15.11,0,0,1-1.24,6.37,9.36,9.36,0,0,1-3.61,4.16,10.73,10.73,0,0,1-5.69,1.46,10.86,10.86,0,0,1-5.7-1.43,9.08,9.08,0,0,1-3.6-4.12,15.13,15.13,0,0,1-1.24-6.4,14.61,14.61,0,0,1,1.25-6.24,9.52,9.52,0,0,1,3.62-4.19,10.48,10.48,0,0,1,5.69-1.5A10.69,10.69,0,0,1,729.64,329.58Zm-9.24,4.65a11.4,11.4,0,0,0-1.15,5.82q0,4,1.15,5.85a4.26,4.26,0,0,0,7,0q1.15-1.86,1.15-5.87a11.29,11.29,0,0,0-1.15-5.78,4.26,4.26,0,0,0-7,0Z" style="fill:#009245"/><path d="M753.94,347a12.58,12.58,0,0,0,2.63-1.45l2.56,3.61a11.75,11.75,0,0,1-3.67,2.1A12.88,12.88,0,0,1,751,352a11.92,11.92,0,0,1-6-1.47,9.86,9.86,0,0,1-3.9-4.14,13.41,13.41,0,0,1-1.36-6.19,13.7,13.7,0,0,1,1.38-6.24,10.26,10.26,0,0,1,4-4.29,11.57,11.57,0,0,1,6.06-1.55,13.42,13.42,0,0,1,4.38.68,11.7,11.7,0,0,1,3.64,2.07l-2.5,3.46a9.42,9.42,0,0,0-5.35-1.79,5,5,0,0,0-4.13,1.88q-1.5,1.88-1.5,5.78t1.5,5.55a5.16,5.16,0,0,0,4.11,1.72A7.28,7.28,0,0,0,753.94,347Z" style="fill:#009245"/><path d="M763.9,328.76h21.55l-.69,4.29h-7.4v18.31h-5.63V333.05H763.9Z" style="fill:#009245"/><path d="M809.22,328.76v22.6h-5.39V343a46.56,46.56,0,0,1,.24-4.82,37.28,37.28,0,0,1,.65-4.14l-8.17,17.33h-6.06v-22.6h5.4v8.43a44.28,44.28,0,0,1-.25,4.77,32.15,32.15,0,0,1-.67,4.13l8.15-17.33Z" style="fill:#009245"/><path d="M444.92.51V15.06h2.51v9H444l-.61-5.58H430.08V.51h4.44V15h6V.51Z" style="fill:#009245"/><path d="M465.41.51V18.43h-4.28V11.8A36.11,36.11,0,0,1,461.32,8a31.2,31.2,0,0,1,.51-3.28l-6.48,13.74h-4.8V.51h4.28V7.19a36.22,36.22,0,0,1-.2,3.78,24.76,24.76,0,0,1-.53,3.28L460.57.51Z" style="fill:#009245"/><path d="M475.23,18.43h-4.47V.51h4.47v7h2.86l4.33-7h4.48l-5.33,8.31,6,9.61h-4.88L478,10.61h-2.74Z" style="fill:#009245"/><path d="M505.63.51V18.43h-4.47V3.89h-4.82L496.12,7a38.12,38.12,0,0,1-.8,6.31,8.25,8.25,0,0,1-1.6,3.46A9.86,9.86,0,0,1,490.65,19l-1.86-2.84a5.73,5.73,0,0,0,1.49-1.45,7.73,7.73,0,0,0,.93-2.54,39.36,39.36,0,0,0,.66-5l.49-6.63Z" style="fill:#009245"/><path d="M545.57,10a4,4,0,0,1,1.16,3,4.4,4.4,0,0,1-2.22,4.06,11.33,11.33,0,0,1-5.79,1.31h-7.53V.71c1.27-.24,2.45-.41,3.55-.53A31.25,31.25,0,0,1,538.13,0a13.67,13.67,0,0,1,4,.54,5.88,5.88,0,0,1,2.71,1.61,3.69,3.69,0,0,1,1,2.59q0,2.94-3.69,3.89A5.76,5.76,0,0,1,545.57,10Zm-9.91-6.87V7.62h2.76a4,4,0,0,0,2.27-.55,2,2,0,0,0,.79-1.76,1.94,1.94,0,0,0-.84-1.74A4.66,4.66,0,0,0,538.1,3,18.37,18.37,0,0,0,535.66,3.16Zm2.93,12.17a4.75,4.75,0,0,0,2.69-.62,2.22,2.22,0,0,0,.88-1.92,2.18,2.18,0,0,0-.94-1.94,4.49,4.49,0,0,0-2.53-.63h-3v5.11Z" style="fill:#009245"/><path d="M582.17,14.94a10.42,10.42,0,0,0,2.09-1.15l2,2.86a9.43,9.43,0,0,1-2.91,1.67,10.3,10.3,0,0,1-3.54.62,9.43,9.43,0,0,1-4.8-1.17,7.79,7.79,0,0,1-3.1-3.28,10.79,10.79,0,0,1-1.07-4.91A10.86,10.86,0,0,1,572,4.63a8.06,8.06,0,0,1,3.14-3.4A9.15,9.15,0,0,1,579.91,0a10.57,10.57,0,0,1,3.47.54,9.15,9.15,0,0,1,2.89,1.64l-2,2.74A7.51,7.51,0,0,0,580,3.5,4,4,0,0,0,576.77,5a7.26,7.26,0,0,0-1.2,4.59,6.61,6.61,0,0,0,1.2,4.4A4.1,4.1,0,0,0,580,15.35,5.81,5.81,0,0,0,582.17,14.94Z" style="fill:#009245"/><path d="M590.07.51h17.09l-.54,3.4h-5.88V18.43h-4.46V3.91h-6.21Z" style="fill:#009245"/><path d="M627,9.43a13.87,13.87,0,0,1-.81,4.92,7.49,7.49,0,0,1-2.35,3.37,5.87,5.87,0,0,1-3.73,1.22,5.59,5.59,0,0,1-4.43-2v8.34l-4.47.48V.51h3.92l.24,2.18a7,7,0,0,1,2.35-2A6,6,0,0,1,620.41,0Q627,0,627,9.43ZM615.63,5.7v8a3.67,3.67,0,0,0,3.14,1.83,2.88,2.88,0,0,0,2.63-1.46,9.1,9.1,0,0,0,.89-4.61,10.44,10.44,0,0,0-.78-4.72,2.59,2.59,0,0,0-2.4-1.41C617.78,3.35,616.62,4.14,615.63,5.7Z" style="fill:#009245"/><path d="M643.2,1.16a7.37,7.37,0,0,1,2.85,3.28,11.88,11.88,0,0,1,1,5,11.94,11.94,0,0,1-1,5.05,7.41,7.41,0,0,1-2.87,3.3,8.45,8.45,0,0,1-4.51,1.16,8.57,8.57,0,0,1-4.52-1.14,7.17,7.17,0,0,1-2.85-3.26,12,12,0,0,1-1-5.08,11.7,11.7,0,0,1,1-5,7.57,7.57,0,0,1,2.88-3.33,9.3,9.3,0,0,1,9,0Zm-7.33,3.69A9,9,0,0,0,635,9.46a9.07,9.07,0,0,0,.91,4.64,3.39,3.39,0,0,0,5.59,0,9.26,9.26,0,0,0,.91-4.66,9,9,0,0,0-.91-4.58,3.38,3.38,0,0,0-5.59,0Z" style="fill:#009245"/><path d="M655.91,18.43h-4.46V.51h4.46v7h2.86l4.34-7h4.48l-5.33,8.31,6,9.61h-4.87l-4.71-7.82h-2.74Z" style="fill:#009245"/><path d="M681.54,18.46a11.35,11.35,0,0,1-3.36,5.27,10.05,10.05,0,0,1-6,2.09l-.55-3.23a10.78,10.78,0,0,0,2.86-.75,4.73,4.73,0,0,0,1.73-1.3,7.84,7.84,0,0,0,1.16-2.11h-1.52L670,.51h4.72l4.06,14.94L683,.51h4.59Z" style="fill:#009245"/><path d="M20.3,10a4,4,0,0,1,1.16,3,4.4,4.4,0,0,1-2.22,4.06,11.32,11.32,0,0,1-5.78,1.31H5.92V.71C7.19.47,8.37.3,9.47.18A31.25,31.25,0,0,1,12.86,0a13.74,13.74,0,0,1,4.05.54,6,6,0,0,1,2.71,1.61,3.72,3.72,0,0,1,1,2.59q0,2.94-3.69,3.89A5.73,5.73,0,0,1,20.3,10ZM10.39,3.16V7.62h2.76a4,4,0,0,0,2.28-.55,2,2,0,0,0,.78-1.76,2,2,0,0,0-.83-1.74A4.68,4.68,0,0,0,12.83,3,18.47,18.47,0,0,0,10.39,3.16Zm2.93,12.17A4.73,4.73,0,0,0,16,14.71a2.2,2.2,0,0,0,.88-1.92A2.16,2.16,0,0,0,16,10.85a4.49,4.49,0,0,0-2.53-.63h-3v5.11Z" style="fill:#ed1e79"/><path d="M37.63,1.16a7.37,7.37,0,0,1,2.85,3.28,11.88,11.88,0,0,1,1,5,12.1,12.1,0,0,1-1,5.05,7.47,7.47,0,0,1-2.87,3.3,8.48,8.48,0,0,1-4.51,1.16,8.55,8.55,0,0,1-4.52-1.14,7.24,7.24,0,0,1-2.86-3.26,12.15,12.15,0,0,1-1-5.08,11.7,11.7,0,0,1,1-5A7.57,7.57,0,0,1,28.6,1.18,8.39,8.39,0,0,1,33.11,0,8.49,8.49,0,0,1,37.63,1.16ZM30.3,4.85a9,9,0,0,0-.92,4.61,9.05,9.05,0,0,0,.92,4.64,3.06,3.06,0,0,0,2.79,1.47,3,3,0,0,0,2.79-1.48,9.14,9.14,0,0,0,.92-4.66,8.93,8.93,0,0,0-.92-4.58,3,3,0,0,0-2.77-1.48A3.06,3.06,0,0,0,30.3,4.85Z" style="fill:#ed1e79"/><path d="M52.22,7.65A4,4,0,0,0,54.61,7a1.92,1.92,0,0,0,.86-1.64,1.83,1.83,0,0,0-.89-1.65A4.83,4.83,0,0,0,52,3.2a10.76,10.76,0,0,0-2.75.36A9.23,9.23,0,0,0,46.8,4.62l-2-2.44A11.24,11.24,0,0,1,48.24.57a14.27,14.27,0,0,1,4-.57,12.9,12.9,0,0,1,4,.57A6.15,6.15,0,0,1,59,2.25a3.92,3.92,0,0,1,1,2.69A3.22,3.22,0,0,1,58.94,7.4a7.1,7.1,0,0,1-3,1.52,7.2,7.2,0,0,1,3.68,1.29,3.58,3.58,0,0,1,1.32,3,4.65,4.65,0,0,1-1.11,3.14,6.84,6.84,0,0,1-3.09,2,14.18,14.18,0,0,1-4.51.66,12.7,12.7,0,0,1-8-2.41l2-2.64A11.64,11.64,0,0,0,49,15.21a11.2,11.2,0,0,0,3.17.43,5.33,5.33,0,0,0,3-.7,2.17,2.17,0,0,0,1-1.91,2,2,0,0,0-.93-1.76,5.35,5.35,0,0,0-2.8-.59h-3.8l.27-3Z" style="fill:#ed1e79"/><path d="M80.53,10a4,4,0,0,1,1.16,3,4.4,4.4,0,0,1-2.22,4.06,11.33,11.33,0,0,1-5.79,1.31H66.15V.71C67.42.47,68.6.3,69.7.18A31.25,31.25,0,0,1,73.09,0a13.74,13.74,0,0,1,4,.54,5.89,5.89,0,0,1,2.7,1.61,3.69,3.69,0,0,1,1,2.59q0,2.94-3.69,3.89A5.73,5.73,0,0,1,80.53,10ZM70.62,3.16V7.62h2.76a4,4,0,0,0,2.28-.55,2,2,0,0,0,.78-1.76,1.94,1.94,0,0,0-.84-1.74A4.62,4.62,0,0,0,73.06,3,18.47,18.47,0,0,0,70.62,3.16Zm2.93,12.17a4.73,4.73,0,0,0,2.69-.62,2.2,2.2,0,0,0,.88-1.92,2.16,2.16,0,0,0-.94-1.94,4.49,4.49,0,0,0-2.53-.63h-3v5.11Z" style="fill:#ed1e79"/><path d="M101.68,9.43a14.1,14.1,0,0,1-.8,4.92,7.51,7.51,0,0,1-2.36,3.37,5.85,5.85,0,0,1-3.73,1.22,5.62,5.62,0,0,1-4.43-2v8.34l-4.47.48V.51h3.93l.23,2.18a7.07,7.07,0,0,1,2.36-2A5.94,5.94,0,0,1,95.15,0Q101.68,0,101.68,9.43ZM90.36,5.7v8a3.68,3.68,0,0,0,3.15,1.83,2.9,2.9,0,0,0,2.63-1.46A9.21,9.21,0,0,0,97,9.48a10.42,10.42,0,0,0-.79-4.72,2.58,2.58,0,0,0-2.4-1.41C92.51,3.35,91.35,4.14,90.36,5.7Z" style="fill:#ed1e79"/><path d="M120.27,13.71a3,3,0,0,0,.29,1.48,1.81,1.81,0,0,0,1,.72l-1,3a6,6,0,0,1-2.48-.73,3.79,3.79,0,0,1-1.52-1.69,6.19,6.19,0,0,1-2.52,1.83,8.55,8.55,0,0,1-3.28.63,6.71,6.71,0,0,1-3.15-.71,4.89,4.89,0,0,1-2.08-2,5.8,5.8,0,0,1-.73-2.92,5.29,5.29,0,0,1,1-3.24,6.18,6.18,0,0,1,2.93-2,13.89,13.89,0,0,1,4.67-.69h2.5v-1a2.71,2.71,0,0,0-1-2.29,4.63,4.63,0,0,0-2.84-.74,12.72,12.72,0,0,0-2.22.25,18,18,0,0,0-2.61.69l-1.06-3.07a21.54,21.54,0,0,1,3.37-.93A18.18,18.18,0,0,1,112.84,0a8.47,8.47,0,0,1,5.57,1.58,5.65,5.65,0,0,1,1.86,4.55Zm-6,1.41a4.26,4.26,0,0,0,1.61-1.6V10h-1.76a6.44,6.44,0,0,0-3.57.77,2.57,2.57,0,0,0-1.13,2.27,2.58,2.58,0,0,0,.71,1.95,2.88,2.88,0,0,0,2.07.67A4.11,4.11,0,0,0,114.32,15.12Z" style="fill:#ed1e79"/><path d="M142.51.51V15.06h2v9H141l-.61-5.58h-16V.51h3.89V15h3.4V.51h3.48V15h3.39V.51Z" style="fill:#ed1e79"/><path d="M160.42,13.71a3,3,0,0,0,.29,1.48,1.8,1.8,0,0,0,1,.72l-1,3a6,6,0,0,1-2.48-.73,3.77,3.77,0,0,1-1.51-1.69,6.29,6.29,0,0,1-2.53,1.83,8.55,8.55,0,0,1-3.28.63,6.77,6.77,0,0,1-3.15-.71,5,5,0,0,1-2.08-2,5.8,5.8,0,0,1-.72-2.92,5.29,5.29,0,0,1,1-3.24,6.23,6.23,0,0,1,2.93-2,13.94,13.94,0,0,1,4.67-.69h2.51v-1a2.69,2.69,0,0,0-1-2.29,4.63,4.63,0,0,0-2.84-.74,12.72,12.72,0,0,0-2.22.25,17.52,17.52,0,0,0-2.6.69l-1.07-3.07a21.36,21.36,0,0,1,3.38-.93A18.08,18.08,0,0,1,153,0a8.45,8.45,0,0,1,5.57,1.58,5.65,5.65,0,0,1,1.86,4.55Zm-5.95,1.41a4.36,4.36,0,0,0,1.62-1.6V10h-1.76a6.39,6.39,0,0,0-3.57.77,2.56,2.56,0,0,0-1.14,2.27,2.58,2.58,0,0,0,.71,1.95,2.9,2.9,0,0,0,2.07.67A4.11,4.11,0,0,0,154.47,15.12Z" style="fill:#ed1e79"/><path d="M170,10.83a5.33,5.33,0,0,0,1.43,3.59,4.48,4.48,0,0,0,3.19,1.17A7.18,7.18,0,0,0,177,15.2a10.45,10.45,0,0,0,2.29-1.15l1.86,2.55a9.78,9.78,0,0,1-3,1.72,11.18,11.18,0,0,1-3.75.62,9.42,9.42,0,0,1-4.87-1.19,7.53,7.53,0,0,1-3-3.31,11.37,11.37,0,0,1-1-4.95,11.29,11.29,0,0,1,1-4.84,8.16,8.16,0,0,1,2.91-3.41A8,8,0,0,1,173.83,0a8.16,8.16,0,0,1,4.25,1.08,7.28,7.28,0,0,1,2.79,3.13,11.08,11.08,0,0,1,1,4.84c0,.65,0,1.24-.08,1.78Zm1.15-6.49A6.17,6.17,0,0,0,170,8h7.55a6,6,0,0,0-1-3.57,3.11,3.11,0,0,0-2.69-1.25A3.39,3.39,0,0,0,171.15,4.34Z" style="fill:#ed1e79"/><path d="M201.66.51l1.25,17.92h-4l-.4-7c-.07-1.14-.1-2.3-.1-3.49,0-1,0-2.12.1-3.25h-.14l-2.84,10.89H192L188.89,4.65h-.13c.09.94.13,2,.13,3.2,0,.8,0,2-.1,3.64l-.32,6.94h-4L185.71.51h5.06l3,11.45L196.48.51Z" style="fill:#ed1e79"/><path d="M89.76,278.83v22.6H84.13v-8.81a9.63,9.63,0,0,1-3,1.64,11.16,11.16,0,0,1-3.72.6,6.3,6.3,0,0,1-7-6.87v-9.16h5.64v8.45a3.41,3.41,0,0,0,.82,2.56,3.34,3.34,0,0,0,2.42.79,7.1,7.1,0,0,0,2.59-.51,6.6,6.6,0,0,0,2.19-1.34v-9.95Z" style="fill:#ed1e79"/><path d="M95.34,278.83h21.55l-.68,4.29H108.8v18.31h-5.63V283.12H95.34Z" style="fill:#ed1e79"/><path d="M137,279.65a9.32,9.32,0,0,1,3.59,4.14,15,15,0,0,1,1.23,6.29,15.11,15.11,0,0,1-1.24,6.37,9.27,9.27,0,0,1-3.62,4.16,10.67,10.67,0,0,1-5.68,1.46,10.86,10.86,0,0,1-5.7-1.43,9.08,9.08,0,0,1-3.6-4.12,15.1,15.1,0,0,1-1.24-6.4,14.61,14.61,0,0,1,1.25-6.24,9.52,9.52,0,0,1,3.62-4.19,10.48,10.48,0,0,1,5.69-1.5A10.69,10.69,0,0,1,137,279.65Zm-9.24,4.66a11.34,11.34,0,0,0-1.15,5.81q0,4,1.15,5.85a4.27,4.27,0,0,0,7,0q1.16-1.87,1.15-5.88a11.24,11.24,0,0,0-1.15-5.77,4.25,4.25,0,0,0-7,0Z" style="fill:#ed1e79"/><path d="M51.82,347.11h2V358.4H49.47l-.79-7H35.77l-.77,7H30.67V347.11h1.69a6.82,6.82,0,0,0,1.45-2,13.83,13.83,0,0,0,.94-3.29q.38-2.13.66-5.77l.55-7.26H51.82Zm-5.38-14.27H41l-.22,2.92a54.25,54.25,0,0,1-.71,5.93A11.07,11.07,0,0,1,38.94,345,7,7,0,0,1,37,347.11h9.43Z" style="fill:#ed1e79"/><path d="M63.45,341.78a6.71,6.71,0,0,0,1.8,4.52,5.67,5.67,0,0,0,4,1.47,9,9,0,0,0,3-.49,12.17,12.17,0,0,0,2.88-1.45l2.35,3.22a12.13,12.13,0,0,1-3.84,2.17,14.07,14.07,0,0,1-4.74.78,11.8,11.8,0,0,1-6.13-1.5A9.49,9.49,0,0,1,59,346.32a15.51,15.51,0,0,1,0-12.34,9.86,9.86,0,0,1,9.33-5.86,10.25,10.25,0,0,1,5.36,1.37,9,9,0,0,1,3.52,3.93,14.1,14.1,0,0,1,1.24,6.12,22.1,22.1,0,0,1-.11,2.24Zm1.44-8.19a7.77,7.77,0,0,0-1.5,4.58H72.9a7.65,7.65,0,0,0-1.2-4.5,4,4,0,0,0-3.41-1.58A4.27,4.27,0,0,0,64.89,333.59Z" style="fill:#ed1e79"/><path d="M102.78,328.76v22.6H97.15V333H91.07l-.28,3.88a48.38,48.38,0,0,1-1,8,10.43,10.43,0,0,1-2,4.35,12.48,12.48,0,0,1-3.87,2.86l-2.35-3.58a7.33,7.33,0,0,0,1.88-1.84,9.59,9.59,0,0,0,1.17-3.2,49.24,49.24,0,0,0,.84-6.33l.61-8.37Z" style="fill:#ed1e79"/><path d="M127.3,345.4a3.63,3.63,0,0,0,.38,1.87,2.21,2.21,0,0,0,1.25.91L127.71,352a7.75,7.75,0,0,1-3.13-.93,4.84,4.84,0,0,1-1.91-2.13,7.84,7.84,0,0,1-3.17,2.31,11,11,0,0,1-4.14.79,8.51,8.51,0,0,1-4-.89,6.36,6.36,0,0,1-2.63-2.48,7.32,7.32,0,0,1-.91-3.69,6.66,6.66,0,0,1,1.25-4.08,7.7,7.7,0,0,1,3.7-2.56,17.51,17.51,0,0,1,5.88-.88h3.16v-1.21a3.4,3.4,0,0,0-1.21-2.89,5.85,5.85,0,0,0-3.59-.93,15.06,15.06,0,0,0-2.79.31,23.46,23.46,0,0,0-3.29.86l-1.34-3.86a26,26,0,0,1,4.25-1.17,22.53,22.53,0,0,1,4.07-.41q4.66,0,7,2a7.11,7.11,0,0,1,2.34,5.73Zm-7.5,1.79a5.42,5.42,0,0,0,2-2v-4.4h-2.22a8.14,8.14,0,0,0-4.5,1,3.68,3.68,0,0,0-.53,5.32,3.62,3.62,0,0,0,2.6.85A5.21,5.21,0,0,0,119.8,347.19Z" style="fill:#ed1e79"/><path d="M139.39,341.78a6.66,6.66,0,0,0,1.8,4.52,5.66,5.66,0,0,0,4,1.47,9.06,9.06,0,0,0,3-.49,12.55,12.55,0,0,0,2.88-1.45l2.35,3.22a12.24,12.24,0,0,1-3.84,2.17,14.11,14.11,0,0,1-4.74.78,11.8,11.8,0,0,1-6.13-1.5,9.49,9.49,0,0,1-3.82-4.18,15.51,15.51,0,0,1,0-12.34,9.84,9.84,0,0,1,9.33-5.86,10.27,10.27,0,0,1,5.36,1.37,9,9,0,0,1,3.52,3.93,14.1,14.1,0,0,1,1.23,6.12,22.24,22.24,0,0,1-.1,2.24Zm1.44-8.19a7.84,7.84,0,0,0-1.51,4.58h9.52a7.65,7.65,0,0,0-1.21-4.5,4,4,0,0,0-3.4-1.58A4.26,4.26,0,0,0,140.83,333.59Z" style="fill:#ed1e79"/><path d="M179.29,328.76l1.58,22.6h-5.09l-.52-8.88c-.08-1.44-.13-2.9-.13-4.39,0-1.31.05-2.68.13-4.1h-.17l-3.58,13.72h-4.42L163.21,334H163c.11,1.18.17,2.52.17,4,0,1-.05,2.54-.13,4.59l-.41,8.75h-5l1.54-22.6h6.38l3.79,14.45,3.4-14.45Z" style="fill:#ed1e79"/><line x1="103.74" y1="101.69" x2="103.74" y2="74.99" style="fill:none;stroke:#ed1e79;stroke-miterlimit:10;stroke-width:11px"/><polygon points="103.74 51.69 117.16 84.53 103.74 76.74 90.33 84.53 103.74 51.69" style="fill:#ed1e79"/></svg>