<svg xmlns="http://www.w3.org/2000/svg" viewBox="0 0 1402.02 356.4"><title>lc2</title><path d="M0,196V132.58H18v6.5H7.69v50.41H18V196Z" style="fill:#c46d76"/><path d="M44,154.18H34.21v-6.49H52.57v28.23h10v6.5H33v-6.5H44Zm9.23-16a5.38,5.38,0,0,1-.41,2.12A5.17,5.17,0,0,1,51.7,142,5.62,5.62,0,0,1,50,143.2a5.46,5.46,0,0,1-2.15.42,5.56,5.56,0,0,1-2.17-.42A5.48,5.48,0,0,1,43.9,142a5.17,5.17,0,0,1-1.14-1.72,5.69,5.69,0,0,1,0-4.24,5.36,5.36,0,0,1,1.14-1.74,5.2,5.2,0,0,1,1.75-1.18,5.39,5.39,0,0,1,2.17-.43,5.38,5.38,0,0,1,3.88,1.61,5.48,5.48,0,0,1,1.55,3.86Z" style="fill:#acafbc"/><path d="M89.38,163.65H82.24l1-10.56-8.57,6.15-3.46-5.94,9.61-4.41-9.61-4.41,3.46-5.95,8.57,6.15-1-10.56h7.14l-1,10.56L97,138.53l3.42,5.95-9.57,4.41,9.57,4.41L97,159.24l-8.61-6.15Z" style="fill:#82a6ea"/><path d="M127.87,163.65h-7.15l1-10.56-8.58,6.15-3.45-5.94,9.6-4.41-9.6-4.41,3.45-5.95,8.58,6.15-1-10.56h7.15l-1,10.56,8.61-6.15,3.42,5.95-9.57,4.41,9.57,4.41-3.42,5.94-8.61-6.15Z" style="fill:#82a6ea"/><path d="M147.93,182.42v-6.16l10.56-10.56q3-3,4.77-5.12a28.07,28.07,0,0,0,2.77-3.85,10.83,10.83,0,0,0,1.28-3.13,13.72,13.72,0,0,0,.31-3,7.18,7.18,0,0,0-.41-2.41A5.5,5.5,0,0,0,164,144.9a7.12,7.12,0,0,0-2.74-.49,10.65,10.65,0,0,0-4.88,1.14,18.55,18.55,0,0,0-4.28,3.06l-4.41-5.67a23.73,23.73,0,0,1,6.55-4.32,19,19,0,0,1,7.88-1.63,19.75,19.75,0,0,1,5.95.84,12.72,12.72,0,0,1,4.56,2.48,11.08,11.08,0,0,1,2.94,4.1,14.52,14.52,0,0,1,1,5.67,16.65,16.65,0,0,1-.72,5,19.11,19.11,0,0,1-2.08,4.49,30.61,30.61,0,0,1-3.37,4.38q-2,2.17-4.56,4.61l-6.5,6.19h18.84v7.69Z" style="fill:#d7c280"/><path d="M256.42,141.2a25,25,0,0,0-3.58-.81,27.85,27.85,0,0,0-4.22-.32,9.19,9.19,0,0,0-2.73.39,5.67,5.67,0,0,0-2.19,1.25,5.91,5.91,0,0,0-1.45,2.17,8.64,8.64,0,0,0-.53,3.2v5.6h13.64v6.49H241.72v23.25h-8.41V159.17H223.23v-6.49h10.08v-5.26a16.75,16.75,0,0,1,1.08-6.34,11.08,11.08,0,0,1,3-4.34,12.23,12.23,0,0,1,4.73-2.48,22.44,22.44,0,0,1,6.19-.79,31,31,0,0,1,4.29.29c1.36.2,2.61.43,3.78.7Z" style="fill:#b470d8"/><path d="M295,164.78a22.91,22.91,0,0,1-1.17,7.5,16.51,16.51,0,0,1-3.35,5.83,14.73,14.73,0,0,1-5.36,3.76,18.6,18.6,0,0,1-7.25,1.33,19.78,19.78,0,0,1-6.9-1.12,13.5,13.5,0,0,1-5.16-3.37,14.74,14.74,0,0,1-3.25-5.61,24.74,24.74,0,0,1-1.13-7.84,22.64,22.64,0,0,1,1.18-7.52A16.4,16.4,0,0,1,266,152a15.15,15.15,0,0,1,5.39-3.71,18.74,18.74,0,0,1,7.17-1.31,19.69,19.69,0,0,1,6.94,1.14,13.56,13.56,0,0,1,5.16,3.4,14.88,14.88,0,0,1,3.23,5.59A24.37,24.37,0,0,1,295,164.78Zm-8.69.21c0-3.61-.67-6.31-2-8.12a7,7,0,0,0-6-2.72,7.63,7.63,0,0,0-3.72.85,7.21,7.21,0,0,0-2.53,2.35,10.47,10.47,0,0,0-1.46,3.47,19,19,0,0,0-.46,4.23q0,5.44,2.19,8.19a7.24,7.24,0,0,0,6,2.75,7.42,7.42,0,0,0,3.62-.84,6.71,6.71,0,0,0,2.5-2.32,11.19,11.19,0,0,0,1.44-3.5A19.31,19.31,0,0,0,286.32,165Z" style="fill:#b470d8"/><path d="M324.57,161.19a15.08,15.08,0,0,0-.19-3.31,6.24,6.24,0,0,0-.82-2.26,3.49,3.49,0,0,0-1.38-1.3,4.22,4.22,0,0,0-1.88-.41,6.31,6.31,0,0,0-3.81,1.52,22.37,22.37,0,0,0-4.33,5v22h-8.54V147.69h7.55l.31,5.06a13.37,13.37,0,0,1,1.93-2.39,12.13,12.13,0,0,1,2.39-1.83,11.24,11.24,0,0,1,2.93-1.18,14.35,14.35,0,0,1,3.52-.41,11.39,11.39,0,0,1,4.66.9,8.81,8.81,0,0,1,3.42,2.69,11.72,11.72,0,0,1,2.05,4.46,23.13,23.13,0,0,1,.57,6.2Z" style="fill:#b470d8"/><path d="M390.4,154.18h-9.81v-6.49H399v28.23h10v6.5H379.39v-6.5h11Zm9.23-16a5.56,5.56,0,0,1-.41,2.12,5.2,5.2,0,0,1-1.15,1.72,5.58,5.58,0,0,1-1.72,1.17,5.46,5.46,0,0,1-2.15.42,5.64,5.64,0,0,1-2.18-.42,5.55,5.55,0,0,1-1.74-1.17,5.17,5.17,0,0,1-1.14-1.72,5.55,5.55,0,0,1,1.14-6,5.26,5.26,0,0,1,1.74-1.18,5.47,5.47,0,0,1,2.18-.43,5.33,5.33,0,0,1,3.87,1.61,5.39,5.39,0,0,1,1.15,1.74A5.56,5.56,0,0,1,399.63,138.19Z" style="fill:#acafbc"/><path d="M467.37,154.18h-9.81v-6.49h18.36v28.23h10v6.5H456.37v-6.5h11Zm9.23-16a5.56,5.56,0,0,1-.41,2.12,5.17,5.17,0,0,1-1.14,1.72,5.62,5.62,0,0,1-1.73,1.17,5.46,5.46,0,0,1-2.15.42,5.56,5.56,0,0,1-2.17-.42,5.48,5.48,0,0,1-1.75-1.17,5.17,5.17,0,0,1-1.14-1.72,5.69,5.69,0,0,1,0-4.24,5.36,5.36,0,0,1,1.14-1.74,5.2,5.2,0,0,1,1.75-1.18,5.39,5.39,0,0,1,2.17-.43,5.38,5.38,0,0,1,3.88,1.61,5.36,5.36,0,0,1,1.14,1.74A5.56,5.56,0,0,1,476.6,138.19Z" style="fill:#b470d8"/><path d="M515.36,182.42V159.79q0-5.72-4.24-5.71a6.06,6.06,0,0,0-4.05,1.71,29.66,29.66,0,0,0-4.08,4.65v22h-8.34V147.69h7.21l.21,5.13a23.61,23.61,0,0,1,2.2-2.43,12.66,12.66,0,0,1,2.48-1.86,11.71,11.71,0,0,1,2.87-1.18,13.49,13.49,0,0,1,3.45-.41,11.48,11.48,0,0,1,4.65.87,9,9,0,0,1,3.32,2.46,10.82,10.82,0,0,1,2,3.83,17.67,17.67,0,0,1,.66,5v23.31Z" style="fill:#b470d8"/><path d="M594,161.19a15.14,15.14,0,0,0-.18-3.31,6.43,6.43,0,0,0-.82-2.26,3.51,3.51,0,0,0-1.39-1.3,4.16,4.16,0,0,0-1.88-.41,6.31,6.31,0,0,0-3.81,1.52,22.12,22.12,0,0,0-4.32,5v22H573V147.69h7.56l.3,5.06a13.41,13.41,0,0,1,1.94-2.39,11.57,11.57,0,0,1,2.39-1.83,11.17,11.17,0,0,1,2.92-1.18,14.41,14.41,0,0,1,3.52-.41,11.44,11.44,0,0,1,4.67.9,8.85,8.85,0,0,1,3.41,2.69,11.73,11.73,0,0,1,2.06,4.46,23.16,23.16,0,0,1,.56,6.2Z" style="fill:#a2c47d"/><path d="M631.88,182.42l-.2-4.55a23.05,23.05,0,0,1-2.3,2.14,14.07,14.07,0,0,1-5.75,2.8,16.57,16.57,0,0,1-3.71.39,13,13,0,0,1-4.69-.78,9.59,9.59,0,0,1-3.38-2.19,9.23,9.23,0,0,1-2.07-3.38,13.28,13.28,0,0,1-.7-4.38,10,10,0,0,1,1-4.55,9.69,9.69,0,0,1,3.17-3.58,16.55,16.55,0,0,1,5.34-2.36,29.19,29.19,0,0,1,7.5-.86h4.54V159a7.3,7.3,0,0,0-.37-2.41,4.31,4.31,0,0,0-1.22-1.83,5.61,5.61,0,0,0-2.17-1.16,11,11,0,0,0-3.28-.41,26.27,26.27,0,0,0-6.06.7,31.93,31.93,0,0,0-5.8,2v-6.66a33.36,33.36,0,0,1,5.76-1.64,35,35,0,0,1,6.79-.65,26.17,26.17,0,0,1,6.63.73,12,12,0,0,1,4.56,2.21,8.71,8.71,0,0,1,2.65,3.67,14.22,14.22,0,0,1,.85,5.15v23.72Zm-1.2-15.35h-5.09a13.69,13.69,0,0,0-3.59.41,6.73,6.73,0,0,0-2.39,1.13,4.32,4.32,0,0,0-1.35,1.66,4.67,4.67,0,0,0-.43,2,3.93,3.93,0,0,0,1.37,3.23,5.74,5.74,0,0,0,3.73,1.11,6.49,6.49,0,0,0,3.62-1.27,26,26,0,0,0,4.13-3.62Z" style="fill:#a2c47d"/><path d="M669.31,182.42V159.79c0-3.81-1.42-5.71-4.24-5.71a6.06,6.06,0,0,0-4.05,1.71,29.66,29.66,0,0,0-4.09,4.65v22h-8.34V147.69h7.22l.2,5.13a23.67,23.67,0,0,1,2.21-2.43,12.6,12.6,0,0,1,2.47-1.86,11.88,11.88,0,0,1,2.87-1.18,13.63,13.63,0,0,1,3.46-.41,11.55,11.55,0,0,1,4.65.87,9,9,0,0,1,3.31,2.46,10.51,10.51,0,0,1,2,3.83,17.66,17.66,0,0,1,.67,5v23.31Z" style="fill:#a2c47d"/><path d="M713.13,153.77a7.73,7.73,0,0,1,1.35,2.52,9.34,9.34,0,0,1,.39,2.68,12.33,12.33,0,0,1-1,5.13,10.16,10.16,0,0,1-2.84,3.72,12.45,12.45,0,0,1-4.37,2.28,19.49,19.49,0,0,1-5.62.76,15.24,15.24,0,0,1-3.35-.35,8.25,8.25,0,0,1-2.33-.84,6.09,6.09,0,0,0-1,1.28,3.14,3.14,0,0,0-.41,1.59,2.44,2.44,0,0,0,.27,1.09,3,3,0,0,0,.81,1,4.48,4.48,0,0,0,1.26.7,5.57,5.57,0,0,0,1.66.31l8.24.3a20.51,20.51,0,0,1,5,.7,11.92,11.92,0,0,1,3.85,1.8,7.79,7.79,0,0,1,3.35,6.59,10,10,0,0,1-1.1,4.58,10.33,10.33,0,0,1-3.29,3.75,17.44,17.44,0,0,1-5.49,2.51,28.5,28.5,0,0,1-7.62.92,34.41,34.41,0,0,1-7.23-.66,16,16,0,0,1-5-1.87,7.93,7.93,0,0,1-2.85-2.85,7.32,7.32,0,0,1-.92-3.64,7.84,7.84,0,0,1,.3-2.22,7.7,7.7,0,0,1,.93-2,11,11,0,0,1,1.54-1.83,18.12,18.12,0,0,1,2.18-1.77,6.76,6.76,0,0,1-2.54-2.46,6.37,6.37,0,0,1-.88-3.22,7.59,7.59,0,0,1,.31-2.17,11.26,11.26,0,0,1,.81-1.93,14.1,14.1,0,0,1,1.14-1.78c.43-.57.89-1.12,1.37-1.67a10.44,10.44,0,0,1-2.1-3.06,10.63,10.63,0,0,1-.84-4.5,12.33,12.33,0,0,1,1-5.17,10.91,10.91,0,0,1,2.89-3.83,12.61,12.61,0,0,1,4.39-2.36A18.58,18.58,0,0,1,701,147a28,28,0,0,1,3,.15,12.64,12.64,0,0,1,2.58.53h12v6.08ZM693.47,187a3.11,3.11,0,0,0,2,3,13.69,13.69,0,0,0,5.72,1,15.58,15.58,0,0,0,4-.44,8.83,8.83,0,0,0,2.65-1.16,4.23,4.23,0,0,0,1.47-1.68,4.62,4.62,0,0,0,.45-2,2.75,2.75,0,0,0-.43-1.56,3.46,3.46,0,0,0-1.2-1.06,6.63,6.63,0,0,0-1.81-.65,16.52,16.52,0,0,0-2.31-.29l-7.34-.13a11.58,11.58,0,0,0-1.63,1.3,6.13,6.13,0,0,0-1,1.21,3.73,3.73,0,0,0-.48,1.21A6.83,6.83,0,0,0,693.47,187Zm1.4-27.86a5.93,5.93,0,0,0,1.63,4.4,6.12,6.12,0,0,0,4.53,1.62,6.54,6.54,0,0,0,2.68-.51,5.56,5.56,0,0,0,1.9-1.37,5.69,5.69,0,0,0,1.12-2,7.43,7.43,0,0,0,.38-2.36,5.62,5.62,0,0,0-6.15-6.15,6.59,6.59,0,0,0-2.69.51,5.32,5.32,0,0,0-1.89,1.38,5.8,5.8,0,0,0-1.13,2A7.81,7.81,0,0,0,694.87,159.17Z" style="fill:#a2c47d"/><path d="M755.82,162.39q0,.86-.06,2.22c0,.91-.08,1.77-.15,2.56H732.78a10.75,10.75,0,0,0,.7,4,8,8,0,0,0,2,2.92,8.71,8.71,0,0,0,3.08,1.79,12.17,12.17,0,0,0,4,.62,39.13,39.13,0,0,0,5.42-.4,42,42,0,0,0,6-1.28v6.63c-.89.26-1.86.48-2.91.69s-2.12.38-3.21.54-2.2.28-3.32.36-2.2.12-3.24.12a21,21,0,0,1-7.11-1.12,14.22,14.22,0,0,1-5.34-3.34,14.72,14.72,0,0,1-3.35-5.45,22.37,22.37,0,0,1-1.16-7.52,24.37,24.37,0,0,1,1.16-7.71,17.62,17.62,0,0,1,3.29-5.94,14.25,14.25,0,0,1,5.14-3.83,16.41,16.41,0,0,1,6.75-1.35,17.42,17.42,0,0,1,6.53,1.14,13.19,13.19,0,0,1,4.75,3.2,13.64,13.64,0,0,1,2.9,4.89A18.49,18.49,0,0,1,755.82,162.39Zm-8.48-1.2a10.19,10.19,0,0,0-.51-3.57,7.12,7.12,0,0,0-1.49-2.51,6,6,0,0,0-2.19-1.47,7.37,7.37,0,0,0-2.68-.48,6.83,6.83,0,0,0-5.16,2.1,9.62,9.62,0,0,0-2.39,5.93Z" style="fill:#a2c47d"/><path d="M785.21,196.77a50.09,50.09,0,0,1-12.46-15.1,37.39,37.39,0,0,1-4.15-17.37,37.81,37.81,0,0,1,4.7-18.52,43.82,43.82,0,0,1,5.33-7.64,60.39,60.39,0,0,1,6.79-6.68l4.75,4.75a41.74,41.74,0,0,0-10,12.92,33.18,33.18,0,0,0-3.35,14.59,34.86,34.86,0,0,0,3.35,14.92,40.27,40.27,0,0,0,10,13.07Z" style="fill:#7db2be"/><path d="M803,182.42V175h11.39V146.29l-9.92,5.47-2.73-6.8,14.18-7.49h7V175h9.81v7.42Z" style="fill:#d7c280"/><path d="M873,159.89a37.06,37.06,0,0,1-1.2,9.85,20.9,20.9,0,0,1-3.5,7.33,15.37,15.37,0,0,1-5.62,4.56,18.8,18.8,0,0,1-14.39.27,13.5,13.5,0,0,1-5.37-4.08,20.16,20.16,0,0,1-3.52-7.13,37.53,37.53,0,0,1-1.26-10.39,36.51,36.51,0,0,1,1.21-9.84,21.53,21.53,0,0,1,3.5-7.33,15.12,15.12,0,0,1,5.64-4.57A17.82,17.82,0,0,1,856,137a17.57,17.57,0,0,1,6.8,1.3,13.46,13.46,0,0,1,5.35,4.07,20.21,20.21,0,0,1,3.51,7.11A37.71,37.71,0,0,1,873,159.89Zm-26.46.14v1.28c0,.4,0,.8.07,1.21l16.75-12.1a11.15,11.15,0,0,0-3.16-5,7.07,7.07,0,0,0-4.63-1.63,6.86,6.86,0,0,0-3.56,1,8.4,8.4,0,0,0-2.85,3,17.09,17.09,0,0,0-1.91,5.06A32.26,32.26,0,0,0,846.49,160Zm18,.14c0-.39,0-.78,0-1.18s0-.78,0-1.15l-16.64,12a10.29,10.29,0,0,0,3.07,4.92,7.07,7.07,0,0,0,4.62,1.61,6.87,6.87,0,0,0,3.57-1,8.52,8.52,0,0,0,2.87-3,16.88,16.88,0,0,0,1.9-5.06A33.71,33.71,0,0,0,864.54,160.17Z" style="fill:#d7c280"/><path d="M887.51,131.46a48.21,48.21,0,0,1,12.48,15,39.29,39.29,0,0,1,2.87,27.23,40.21,40.21,0,0,1-3.44,8.71,42.94,42.94,0,0,1-5.28,7.68,57.44,57.44,0,0,1-6.77,6.64L882.59,192a41.84,41.84,0,0,0,10-13A33.44,33.44,0,0,0,896,164.44a34.87,34.87,0,0,0-3.35-14.9,40.69,40.69,0,0,0-10-13.13Z" style="fill:#7db2be"/><path d="M967.7,154.18h-9.81v-6.49h18.35v28.23h10v6.5H956.69v-6.5h11Zm9.22-16a5.38,5.38,0,0,1-.41,2.12,5.17,5.17,0,0,1-1.14,1.72,5.62,5.62,0,0,1-1.73,1.17,5.46,5.46,0,0,1-2.15.42,5.41,5.41,0,0,1-3.91-1.59,5.35,5.35,0,0,1-1.15-1.72,5.52,5.52,0,0,1,1.15-6,5.26,5.26,0,0,1,1.74-1.18,5.39,5.39,0,0,1,2.17-.43,5.38,5.38,0,0,1,3.88,1.61,5.48,5.48,0,0,1,1.55,3.86Z" style="fill:#b470d8"/><path d="M1026.14,141.2a24.51,24.51,0,0,0-3.57-.81,28,28,0,0,0-4.22-.32,9.19,9.19,0,0,0-2.73.39,5.53,5.53,0,0,0-2.19,1.25,5.79,5.79,0,0,0-1.45,2.17,8.44,8.44,0,0,0-.53,3.2v5.6h13.63v6.49h-13.63v23.25H1003V159.17H993v-6.49H1003v-5.26a16.75,16.75,0,0,1,1.08-6.34,11,11,0,0,1,3-4.34,12.16,12.16,0,0,1,4.73-2.48,22.44,22.44,0,0,1,6.19-.79,31,31,0,0,1,4.29.29c1.35.2,2.61.43,3.77.7Z" style="fill:#b470d8"/><path d="M1083.16,154.18h-9.81v-6.49h18.35v28.23h10v6.5h-29.56v-6.5h11Zm9.22-16a5.38,5.38,0,0,1-.41,2.12,5.17,5.17,0,0,1-1.14,1.72,5.62,5.62,0,0,1-1.73,1.17,5.46,5.46,0,0,1-2.15.42A5.41,5.41,0,0,1,1083,142a5,5,0,0,1-1.15-1.72,5.69,5.69,0,0,1,0-4.24,5.39,5.39,0,0,1,2.89-2.92,5.39,5.39,0,0,1,2.17-.43,5.38,5.38,0,0,1,3.88,1.61,5.48,5.48,0,0,1,1.55,3.86Z" style="fill:#acafbc"/><path d="M1112.48,182.42h-6.8l31.72-48.3h6.77Zm13-38.63a13.3,13.3,0,0,1-.65,4.23,10.23,10.23,0,0,1-1.87,3.35,8.48,8.48,0,0,1-3,2.2,9.72,9.72,0,0,1-4,.79,8.74,8.74,0,0,1-6.75-2.6c-1.61-1.73-2.41-4.3-2.41-7.69a13.49,13.49,0,0,1,.63-4.22,9.65,9.65,0,0,1,1.85-3.35,8.23,8.23,0,0,1,3-2.22,9.4,9.4,0,0,1,4-.81,8.83,8.83,0,0,1,6.77,2.6C1124.63,137.8,1125.44,140.38,1125.44,143.79Zm-6.09.14a7.51,7.51,0,0,0-.82-4,2.69,2.69,0,0,0-2.43-1.28q-3.21,0-3.21,5.26a7.56,7.56,0,0,0,.82,3.95,2.68,2.68,0,0,0,2.39,1.28Q1119.36,149.16,1119.35,143.93Zm23.72,28.54a13,13,0,0,1-.65,4.22,9.84,9.84,0,0,1-1.86,3.35,8.38,8.38,0,0,1-3,2.21,9.8,9.8,0,0,1-4,.78,8.79,8.79,0,0,1-6.75-2.58c-1.6-1.72-2.41-4.29-2.41-7.71a13.39,13.39,0,0,1,.64-4.25,9.45,9.45,0,0,1,1.84-3.33,8.57,8.57,0,0,1,3-2.21,9.56,9.56,0,0,1,4-.8,8.79,8.79,0,0,1,6.77,2.6Q1143.07,167.34,1143.07,172.47Zm-6.08.14a7.6,7.6,0,0,0-.82-4,2.7,2.7,0,0,0-2.43-1.29q-3.21,0-3.21,5.27a7.4,7.4,0,0,0,.82,4,2.66,2.66,0,0,0,2.39,1.27C1135.91,177.84,1137,176.09,1137,172.61Z" style="fill:#82a6ea"/><path d="M1148.58,182.42v-6.16l10.56-10.56q3-3,4.76-5.12a28.07,28.07,0,0,0,2.77-3.85,11.18,11.18,0,0,0,1.29-3.13,14.38,14.38,0,0,0,.3-3,6.94,6.94,0,0,0-.41-2.41,5.66,5.66,0,0,0-1.19-2,5.81,5.81,0,0,0-2-1.34,7.07,7.07,0,0,0-2.73-.49,10.69,10.69,0,0,0-4.89,1.14,18.5,18.5,0,0,0-4.27,3.06l-4.41-5.67a23.73,23.73,0,0,1,6.55-4.32,19,19,0,0,1,7.87-1.63,19.75,19.75,0,0,1,6,.84,12.55,12.55,0,0,1,4.56,2.48,10.86,10.86,0,0,1,2.94,4.1,14.34,14.34,0,0,1,1,5.67,16.65,16.65,0,0,1-.72,5,19.57,19.57,0,0,1-2.09,4.49,30.51,30.51,0,0,1-3.36,4.38q-2,2.17-4.57,4.61l-6.49,6.19h18.83v7.69Z" style="fill:#d7c280"/><path d="M1225.68,160.34v-6.63h29.4v6.63Zm0,13.46v-6.63h29.4v6.63Z" style="fill:#82a6ea"/><path d="M1264.17,160.34v-6.63h29.4v6.63Zm0,13.46v-6.63h29.4v6.63Z" style="fill:#82a6ea"/><path d="M1373.27,159.89a37.5,37.5,0,0,1-1.19,9.85,21.09,21.09,0,0,1-3.51,7.33,15.29,15.29,0,0,1-5.62,4.56,18.8,18.8,0,0,1-14.39.27,13.57,13.57,0,0,1-5.37-4.08,20.32,20.32,0,0,1-3.52-7.13,37.53,37.53,0,0,1-1.26-10.39,36.51,36.51,0,0,1,1.21-9.84,21.36,21.36,0,0,1,3.51-7.33,15,15,0,0,1,5.64-4.57,18.8,18.8,0,0,1,14.39-.27,13.5,13.5,0,0,1,5.34,4.07,20,20,0,0,1,3.51,7.11A37.71,37.71,0,0,1,1373.27,159.89Zm-26.45.14v1.28a9.93,9.93,0,0,0,.07,1.21l16.74-12.1a11.07,11.07,0,0,0-3.16-5,7.06,7.06,0,0,0-4.63-1.63,6.8,6.8,0,0,0-3.55,1,8.34,8.34,0,0,0-2.86,3,17.09,17.09,0,0,0-1.91,5.06A32.31,32.31,0,0,0,1346.82,160Zm18,.14c0-.39,0-.78,0-1.18s0-.78,0-1.15l-16.65,12a10.23,10.23,0,0,0,3.08,4.92,7.06,7.06,0,0,0,4.61,1.61,6.82,6.82,0,0,0,3.57-1,8.52,8.52,0,0,0,2.87-3,16.88,16.88,0,0,0,1.9-5.06A33.07,33.07,0,0,0,1364.86,160.17Z" style="fill:#d7c280"/><path d="M1384.11,196v-6.5h10.22V139.08h-10.22v-6.5H1402V196Z" style="fill:#c46d76"/><path d="M447.92.67V15.23h2.51v9H447l-.61-5.58H433.08V.67h4.44V15.21h6V.67Z" style="fill:#009245"/><path d="M468.41.67V18.6h-4.28V12a36,36,0,0,1,.19-3.82,31.84,31.84,0,0,1,.51-3.29L458.35,18.6h-4.8V.67h4.28V7.36a36.52,36.52,0,0,1-.2,3.78,24.76,24.76,0,0,1-.53,3.28L463.57.67Z" style="fill:#009245"/><path d="M478.23,18.6h-4.47V.67h4.47v7h2.86l4.33-7h4.48L484.57,9l6,9.62h-4.88L481,10.78h-2.74Z" style="fill:#009245"/><path d="M508.63.67V18.6h-4.47V4.06h-4.82l-.22,3.08a38.27,38.27,0,0,1-.8,6.31,8.15,8.15,0,0,1-1.6,3.45,9.88,9.88,0,0,1-3.07,2.27l-1.86-2.84a5.76,5.76,0,0,0,1.49-1.46,7.64,7.64,0,0,0,.93-2.54,39.15,39.15,0,0,0,.66-5l.49-6.64Z" style="fill:#009245"/><path d="M548.57,10.19a4.06,4.06,0,0,1,1.16,3,4.4,4.4,0,0,1-2.22,4.06,11.33,11.33,0,0,1-5.79,1.31h-7.53V.88c1.27-.24,2.45-.42,3.55-.54S540,.17,541.13.17a13.67,13.67,0,0,1,4,.54,5.88,5.88,0,0,1,2.71,1.61,3.69,3.69,0,0,1,1,2.59q0,2.94-3.69,3.89A5.76,5.76,0,0,1,548.57,10.19Zm-9.91-6.86V7.78h2.76a3.9,3.9,0,0,0,2.27-.55,2,2,0,0,0,.79-1.75,1.94,1.94,0,0,0-.84-1.74,4.66,4.66,0,0,0-2.54-.56A18.37,18.37,0,0,0,538.66,3.33Zm2.93,12.17a4.66,4.66,0,0,0,2.69-.63,2.19,2.19,0,0,0,.88-1.91,2.2,2.2,0,0,0-.94-2,4.58,4.58,0,0,0-2.53-.62h-3V15.5Z" style="fill:#009245"/><path d="M585.17,15.11A10.42,10.42,0,0,0,587.26,14l2,2.86a9.63,9.63,0,0,1-2.91,1.67,10.29,10.29,0,0,1-3.54.61,9.53,9.53,0,0,1-4.8-1.16,7.82,7.82,0,0,1-3.1-3.29,10.75,10.75,0,0,1-1.07-4.9,10.9,10.9,0,0,1,1.09-5,8.18,8.18,0,0,1,3.14-3.4A9.24,9.24,0,0,1,582.91.17a10.57,10.57,0,0,1,3.47.54,9.15,9.15,0,0,1,2.89,1.64l-2,2.74A7.44,7.44,0,0,0,583,3.67a4,4,0,0,0-3.27,1.49,7.24,7.24,0,0,0-1.2,4.59,6.61,6.61,0,0,0,1.2,4.4A4.1,4.1,0,0,0,583,15.52,5.81,5.81,0,0,0,585.17,15.11Z" style="fill:#009245"/><path d="M593.07.67h17.09l-.54,3.41h-5.88V18.6h-4.46V4.08h-6.21Z" style="fill:#009245"/><path d="M630,9.59a14,14,0,0,1-.81,4.93,7.46,7.46,0,0,1-2.35,3.36,5.81,5.81,0,0,1-3.73,1.22,5.59,5.59,0,0,1-4.43-1.94V25.5l-4.47.47V.67h3.92l.24,2.19a7.07,7.07,0,0,1,2.35-2,6,6,0,0,1,2.74-.67Q630,.17,630,9.59ZM618.63,5.87v8a3.67,3.67,0,0,0,3.14,1.83,2.88,2.88,0,0,0,2.63-1.46,9.14,9.14,0,0,0,.89-4.62,10.36,10.36,0,0,0-.78-4.71,2.59,2.59,0,0,0-2.4-1.41C620.78,3.52,619.62,4.3,618.63,5.87Z" style="fill:#009245"/><path d="M646.2,1.33a7.32,7.32,0,0,1,2.85,3.28,11.86,11.86,0,0,1,1,5,11.91,11.91,0,0,1-1,5.05A7.38,7.38,0,0,1,646.17,18a8.45,8.45,0,0,1-4.51,1.15A8.57,8.57,0,0,1,637.14,18a7.19,7.19,0,0,1-2.85-3.27,11.94,11.94,0,0,1-1-5.07,11.63,11.63,0,0,1,1-5,7.57,7.57,0,0,1,2.88-3.33,9.3,9.3,0,0,1,9,0ZM638.87,5A9,9,0,0,0,638,9.63a9,9,0,0,0,.91,4.63,3.38,3.38,0,0,0,5.59,0,9.3,9.3,0,0,0,.91-4.67A9,9,0,0,0,644.46,5a3.38,3.38,0,0,0-5.59,0Z" style="fill:#009245"/><path d="M658.91,18.6h-4.46V.67h4.46v7h2.86l4.34-7h4.48L665.26,9l6,9.62h-4.87l-4.71-7.82h-2.74Z" style="fill:#009245"/><path d="M684.54,18.63a11.35,11.35,0,0,1-3.36,5.27,10.12,10.12,0,0,1-6,2.09l-.55-3.23a10.78,10.78,0,0,0,2.86-.75,4.75,4.75,0,0,0,1.73-1.31,7.77,7.77,0,0,0,1.16-2.1h-1.52L673,.67h4.72l4.06,15L686,.67h4.59Z" style="fill:#009245"/><path d="M23.3,10.19a4.06,4.06,0,0,1,1.16,3,4.4,4.4,0,0,1-2.22,4.06,11.32,11.32,0,0,1-5.78,1.31H8.92V.88C10.19.64,11.37.46,12.47.34S14.7.17,15.86.17a13.74,13.74,0,0,1,4.05.54,6,6,0,0,1,2.71,1.61,3.72,3.72,0,0,1,1,2.59q0,2.94-3.69,3.89A5.73,5.73,0,0,1,23.3,10.19ZM13.39,3.33V7.78h2.76a4,4,0,0,0,2.28-.55,2,2,0,0,0,.78-1.75,2,2,0,0,0-.83-1.74,4.68,4.68,0,0,0-2.55-.56A18.47,18.47,0,0,0,13.39,3.33ZM16.32,15.5A4.64,4.64,0,0,0,19,14.87,2.17,2.17,0,0,0,19.89,13,2.18,2.18,0,0,0,19,11a4.58,4.58,0,0,0-2.53-.62h-3V15.5Z" style="fill:#ed1e79"/><path d="M40.63,1.33a7.32,7.32,0,0,1,2.85,3.28,11.86,11.86,0,0,1,1,5,12.07,12.07,0,0,1-1,5.05A7.44,7.44,0,0,1,40.6,18a8.47,8.47,0,0,1-4.51,1.15A8.55,8.55,0,0,1,31.57,18a7.27,7.27,0,0,1-2.86-3.27,12.1,12.1,0,0,1-1-5.07,11.63,11.63,0,0,1,1-5A7.57,7.57,0,0,1,31.6,1.35,8.31,8.31,0,0,1,36.11.17,8.4,8.4,0,0,1,40.63,1.33ZM33.3,5a9,9,0,0,0-.92,4.61,9,9,0,0,0,.92,4.63,3.37,3.37,0,0,0,5.58,0,9.18,9.18,0,0,0,.92-4.67A8.89,8.89,0,0,0,38.88,5a3,3,0,0,0-2.77-1.48A3.06,3.06,0,0,0,33.3,5Z" style="fill:#ed1e79"/><path d="M55.22,7.82a4.1,4.1,0,0,0,2.39-.61,1.93,1.93,0,0,0,.86-1.64,1.8,1.8,0,0,0-.89-1.65A4.83,4.83,0,0,0,55,3.37a10.76,10.76,0,0,0-2.75.36A8.64,8.64,0,0,0,49.8,4.79l-2-2.44A11.5,11.5,0,0,1,51.24.73a14.64,14.64,0,0,1,4-.56,13.21,13.21,0,0,1,4,.56A6.17,6.17,0,0,1,62,2.42a3.91,3.91,0,0,1,1,2.69,3.22,3.22,0,0,1-1.06,2.46,7.1,7.1,0,0,1-3,1.52,7.11,7.11,0,0,1,3.68,1.29,3.55,3.55,0,0,1,1.32,3,4.65,4.65,0,0,1-1.11,3.14,6.91,6.91,0,0,1-3.09,2,14.18,14.18,0,0,1-4.51.66,12.76,12.76,0,0,1-8-2.4l2-2.64A11.6,11.6,0,0,0,52,15.37a10.85,10.85,0,0,0,3.17.43,5.42,5.42,0,0,0,3-.69,2.17,2.17,0,0,0,1-1.91,1.94,1.94,0,0,0-.93-1.76,5.26,5.26,0,0,0-2.8-.59h-3.8l.27-3Z" style="fill:#ed1e79"/><path d="M83.53,10.19a4.06,4.06,0,0,1,1.16,3,4.4,4.4,0,0,1-2.22,4.06,11.33,11.33,0,0,1-5.79,1.31H69.15V.88C70.42.64,71.6.46,72.7.34S74.93.17,76.09.17a13.74,13.74,0,0,1,4,.54,5.89,5.89,0,0,1,2.7,1.61,3.69,3.69,0,0,1,1,2.59q0,2.94-3.69,3.89A5.73,5.73,0,0,1,83.53,10.19ZM73.62,3.33V7.78h2.76a4,4,0,0,0,2.28-.55,2,2,0,0,0,.78-1.75,1.94,1.94,0,0,0-.84-1.74,4.62,4.62,0,0,0-2.54-.56A18.47,18.47,0,0,0,73.62,3.33ZM76.55,15.5a4.64,4.64,0,0,0,2.69-.63A2.17,2.17,0,0,0,80.12,13a2.18,2.18,0,0,0-.94-2,4.58,4.58,0,0,0-2.53-.62h-3V15.5Z" style="fill:#ed1e79"/><path d="M104.68,9.59a14.2,14.2,0,0,1-.8,4.93,7.47,7.47,0,0,1-2.36,3.36,5.79,5.79,0,0,1-3.73,1.22,5.61,5.61,0,0,1-4.43-1.94V25.5L88.89,26V.67h3.93l.23,2.19a7.1,7.1,0,0,1,2.36-2A5.93,5.93,0,0,1,98.15.17Q104.68.17,104.68,9.59ZM93.36,5.87v8a3.68,3.68,0,0,0,3.15,1.83,2.9,2.9,0,0,0,2.63-1.46A9.25,9.25,0,0,0,100,9.64a10.34,10.34,0,0,0-.79-4.71,2.58,2.58,0,0,0-2.4-1.41C95.51,3.52,94.35,4.3,93.36,5.87Z" style="fill:#ed1e79"/><path d="M123.27,13.88a3,3,0,0,0,.29,1.48,1.75,1.75,0,0,0,1,.71l-1,3a6,6,0,0,1-2.48-.74,3.77,3.77,0,0,1-1.52-1.68,6.19,6.19,0,0,1-2.52,1.83,8.74,8.74,0,0,1-3.28.62,6.71,6.71,0,0,1-3.15-.7,5,5,0,0,1-2.08-2,5.84,5.84,0,0,1-.73-2.93,5.28,5.28,0,0,1,1-3.23,6.11,6.11,0,0,1,2.93-2,13.88,13.88,0,0,1,4.67-.7h2.5v-1a2.7,2.7,0,0,0-1-2.29,4.63,4.63,0,0,0-2.84-.74,11.82,11.82,0,0,0-2.22.25,19.3,19.3,0,0,0-2.61.68l-1.06-3.06a19.55,19.55,0,0,1,3.37-.93,17.29,17.29,0,0,1,3.23-.32,8.41,8.41,0,0,1,5.57,1.58,5.63,5.63,0,0,1,1.86,4.54Zm-6,1.41a4.26,4.26,0,0,0,1.61-1.6V10.2h-1.76a6.52,6.52,0,0,0-3.57.77,2.59,2.59,0,0,0-1.13,2.28,2.61,2.61,0,0,0,.71,1.95,2.88,2.88,0,0,0,2.07.67A4.11,4.11,0,0,0,117.32,15.29Z" style="fill:#ed1e79"/><path d="M145.51.67V15.23h2v9H144l-.61-5.58h-16V.67h3.89V15.21h3.4V.67h3.48V15.21h3.39V.67Z" style="fill:#ed1e79"/><path d="M163.42,13.88a3,3,0,0,0,.29,1.48,1.75,1.75,0,0,0,1,.71l-1,3a6,6,0,0,1-2.48-.74,3.75,3.75,0,0,1-1.51-1.68,6.29,6.29,0,0,1-2.53,1.83,8.74,8.74,0,0,1-3.28.62,6.77,6.77,0,0,1-3.15-.7,5,5,0,0,1-2.08-2A5.84,5.84,0,0,1,148,13.5a5.28,5.28,0,0,1,1-3.23,6.16,6.16,0,0,1,2.93-2,13.92,13.92,0,0,1,4.67-.7h2.51v-1a2.68,2.68,0,0,0-1-2.29,4.63,4.63,0,0,0-2.84-.74,11.82,11.82,0,0,0-2.22.25,18.79,18.79,0,0,0-2.6.68l-1.07-3.06a19.42,19.42,0,0,1,3.38-.93A17.19,17.19,0,0,1,156,.17c2.47,0,4.33.52,5.57,1.58a5.63,5.63,0,0,1,1.86,4.54Zm-5.95,1.41a4.36,4.36,0,0,0,1.62-1.6V10.2h-1.76a6.48,6.48,0,0,0-3.57.77,2.58,2.58,0,0,0-1.14,2.28,2.61,2.61,0,0,0,.71,1.95,2.9,2.9,0,0,0,2.07.67A4.11,4.11,0,0,0,157.47,15.29Z" style="fill:#ed1e79"/><path d="M173,11a5.33,5.33,0,0,0,1.43,3.59,4.52,4.52,0,0,0,3.19,1.16,7.18,7.18,0,0,0,2.37-.39,10,10,0,0,0,2.29-1.15l1.86,2.56a10,10,0,0,1-3,1.72,11.17,11.17,0,0,1-3.75.61,9.42,9.42,0,0,1-4.87-1.18,7.55,7.55,0,0,1-3-3.32,11.32,11.32,0,0,1-1-4.94,11.37,11.37,0,0,1,1-4.85,8.13,8.13,0,0,1,2.91-3.4,8,8,0,0,1,4.5-1.24,8.16,8.16,0,0,1,4.25,1.08,7.2,7.2,0,0,1,2.79,3.12,11.16,11.16,0,0,1,1,4.85c0,.64,0,1.24-.08,1.78Zm1.15-6.49A6.12,6.12,0,0,0,173,8.14h7.55a6,6,0,0,0-1-3.57,3.12,3.12,0,0,0-2.69-1.26A3.37,3.37,0,0,0,174.15,4.51Z" style="fill:#ed1e79"/><path d="M204.66.67l1.25,17.93h-4l-.4-7c-.07-1.14-.1-2.31-.1-3.49s0-2.12.1-3.25h-.14L198.48,15.7H195L191.89,4.82h-.13c.09.94.13,2,.13,3.2,0,.8,0,2-.1,3.64l-.32,6.94h-4L188.71.67h5.06l3,11.46L199.48.67Z" style="fill:#ed1e79"/><line x1="106.74" y1="101.86" x2="106.74" y2="75.16" style="fill:none;stroke:#ed1e79;stroke-miterlimit:10;stroke-width:11px"/><polygon points="106.74 51.86 120.16 84.69 106.74 76.9 93.33 84.69 106.74 51.86" style="fill:#ed1e79"/><rect x="32.24" y="219.86" width="148" height="17" style="fill:#ed1e79"/><rect x="230.24" y="219.86" width="672" height="17" style="fill:#009245"/><rect x="957.24" y="219.86" width="417" height="17" style="fill:#c184ae"/><path d="M418.75,295.18h2v11.29H416.4l-.79-7H402.7l-.77,7H397.6V295.18h1.69a6.9,6.9,0,0,0,1.45-2,13.93,13.93,0,0,0,.94-3.3q.38-2.13.66-5.77l.55-7.26h15.86Zm-5.38-14.27h-5.46l-.22,2.92a53.94,53.94,0,0,1-.71,5.93,11.07,11.07,0,0,1-1.11,3.31,7,7,0,0,1-1.93,2.11h9.43Z" style="fill:#009245"/><path d="M444.4,276.83v22.6h-5.63V281.1h-6.08l-.28,3.88a48.23,48.23,0,0,1-1,8,10.47,10.47,0,0,1-2,4.36,12.8,12.8,0,0,1-3.87,2.86l-2.35-3.59a7.3,7.3,0,0,0,1.88-1.83,9.91,9.91,0,0,0,1.17-3.2,50,50,0,0,0,.83-6.34l.62-8.37Z" style="fill:#009245"/><path d="M469.26,276.83v22.6h-5.63v-8.19h-4.31l-4.48,8.19h-6l5.49-9.41a7.16,7.16,0,0,1-2.91-2.41,6.12,6.12,0,0,1-1-3.5,6.59,6.59,0,0,1,1.14-3.87,7.17,7.17,0,0,1,3.43-2.52,15.57,15.57,0,0,1,5.61-.89Zm-5.63,10.76v-7h-3.16a5.15,5.15,0,0,0-3.24.84,3.09,3.09,0,0,0-1.05,2.55,3.33,3.33,0,0,0,1.05,2.7,5,5,0,0,0,3.29.89Z" style="fill:#009245"/><path d="M507.32,299.43h-5.63v-22.6h5.63v8.82h3.61l5.46-8.82H522l-6.72,10.48,7.53,12.12h-6.14l-5.93-9.86h-3.46Z" style="fill:#009245"/><path d="M544.86,293.48a3.6,3.6,0,0,0,.37,1.86,2.25,2.25,0,0,0,1.25.91L545.27,300a7.65,7.65,0,0,1-3.13-.93,4.81,4.81,0,0,1-1.91-2.12,7.92,7.92,0,0,1-3.18,2.3,10.78,10.78,0,0,1-4.14.79,8.51,8.51,0,0,1-4-.89,6.22,6.22,0,0,1-2.62-2.48,7.32,7.32,0,0,1-.92-3.69,6.63,6.63,0,0,1,1.26-4.08,7.78,7.78,0,0,1,3.69-2.56,17.59,17.59,0,0,1,5.89-.87h3.16v-1.22a3.41,3.41,0,0,0-1.22-2.89,5.82,5.82,0,0,0-3.58-.93,15.24,15.24,0,0,0-2.8.31,24.79,24.79,0,0,0-3.28.86l-1.35-3.86a25.8,25.8,0,0,1,4.26-1.17,22.43,22.43,0,0,1,4.06-.41q4.68,0,7,2a7.09,7.09,0,0,1,2.35,5.73Zm-7.5,1.78a5.42,5.42,0,0,0,2-2v-4.39h-2.22a8.13,8.13,0,0,0-4.5,1,3.22,3.22,0,0,0-1.43,2.87,3.26,3.26,0,0,0,.89,2.45,3.65,3.65,0,0,0,2.61.85A5.21,5.21,0,0,0,537.36,295.26Z" style="fill:#009245"/><path d="M563.56,299.43h-4.1V289.29H557.9L554,299.43h-5.14l5.2-12.12-5-10.48h5.08l3.69,9.05h1.6v-9.05h4.1v9.05h1.6l3.84-9.05h4.93L569,287.31l5.21,12.12h-5.15l-4-10.14h-1.51Z" style="fill:#009245"/><path d="M595.93,295.18h2v11.29h-4.31l-.79-7H579.89l-.77,7h-4.33V295.18h1.68a6.72,6.72,0,0,0,1.45-2,13.47,13.47,0,0,0,.94-3.3q.39-2.13.67-5.77l.55-7.26h15.85Zm-5.37-14.27h-5.47l-.21,2.92a56.53,56.53,0,0,1-.71,5.93,11.07,11.07,0,0,1-1.11,3.31,7.12,7.12,0,0,1-1.93,2.11h9.43Z" style="fill:#009245"/><path d="M617.85,277.66a9.26,9.26,0,0,1,3.6,4.13,15,15,0,0,1,1.23,6.29,15.24,15.24,0,0,1-1.24,6.37,9.33,9.33,0,0,1-3.62,4.16,10.7,10.7,0,0,1-5.69,1.46,10.85,10.85,0,0,1-5.69-1.43,9.16,9.16,0,0,1-3.61-4.12,15.25,15.25,0,0,1-1.24-6.4,14.76,14.76,0,0,1,1.25-6.24,9.48,9.48,0,0,1,3.63-4.19,10.45,10.45,0,0,1,5.69-1.5A10.57,10.57,0,0,1,617.85,277.66Zm-9.24,4.65a15.35,15.35,0,0,0,0,11.66,4.28,4.28,0,0,0,7,0,11.66,11.66,0,0,0,1.15-5.88,11.35,11.35,0,0,0-1.15-5.77,4.26,4.26,0,0,0-7,0Z" style="fill:#009245"/><path d="M636,281.25v18.18h-5.64v-22.6h17l-.64,4.42Z" style="fill:#009245"/><path d="M668.48,277.66a9.24,9.24,0,0,1,3.59,4.13,16.84,16.84,0,0,1,0,12.66,9.3,9.3,0,0,1-3.61,4.16,10.73,10.73,0,0,1-5.69,1.46,10.86,10.86,0,0,1-5.7-1.43,9.08,9.08,0,0,1-3.6-4.12,15.1,15.1,0,0,1-1.24-6.4,14.61,14.61,0,0,1,1.25-6.24,9.52,9.52,0,0,1,3.62-4.19,10.48,10.48,0,0,1,5.69-1.5A10.6,10.6,0,0,1,668.48,277.66Zm-9.24,4.65a11.34,11.34,0,0,0-1.15,5.81q0,4,1.15,5.85a4.27,4.27,0,0,0,7,0q1.15-1.87,1.15-5.88a11.24,11.24,0,0,0-1.15-5.77,3.82,3.82,0,0,0-3.5-1.87A3.87,3.87,0,0,0,659.24,282.31Z" style="fill:#009245"/><path d="M705,276.83h12v18.61h6v4h-18.2v-4h6.62V280.82H705Zm10.2-10.95a3.15,3.15,0,0,1,1.23,1.2,3.47,3.47,0,0,1,0,3.42,3.25,3.25,0,0,1-1.23,1.21,3.91,3.91,0,0,1-3.64,0,3.39,3.39,0,0,1-1.25-4.63,3.21,3.21,0,0,1,1.25-1.2,4,4,0,0,1,3.64,0Z" style="fill:#009245"/><path d="M342.88,338.76a5.09,5.09,0,0,1,1.46,3.83,5.52,5.52,0,0,1-2.79,5.11,14.14,14.14,0,0,1-7.3,1.66h-9.49V327c1.59-.3,3.08-.52,4.47-.67a39.58,39.58,0,0,1,4.27-.23,17.35,17.35,0,0,1,5.1.68,7.56,7.56,0,0,1,3.42,2,4.71,4.71,0,0,1,1.21,3.27c0,2.47-1.55,4.11-4.65,4.9A7.28,7.28,0,0,1,342.88,338.76Zm-12.49-8.65v5.61h3.48a5,5,0,0,0,2.87-.69,2.51,2.51,0,0,0,1-2.21,2.45,2.45,0,0,0-1.06-2.2,5.84,5.84,0,0,0-3.21-.7A22.48,22.48,0,0,0,330.39,330.11Zm3.69,15.34a5.85,5.85,0,0,0,3.39-.79,3.15,3.15,0,0,0-.07-4.86,5.64,5.64,0,0,0-3.19-.79h-3.82v6.44Z" style="fill:#009245"/><path d="M393.69,349.36h-5.61V331h-7.51v18.33H375v-22.6h18.73Z" style="fill:#009245"/><path d="M415.35,327.58a9.34,9.34,0,0,1,3.6,4.14,15,15,0,0,1,1.23,6.29,15.27,15.27,0,0,1-1.24,6.37,9.38,9.38,0,0,1-3.62,4.16,10.7,10.7,0,0,1-5.69,1.46,10.85,10.85,0,0,1-5.69-1.43,9.16,9.16,0,0,1-3.61-4.12,15.28,15.28,0,0,1-1.24-6.4,14.76,14.76,0,0,1,1.25-6.24,9.48,9.48,0,0,1,3.63-4.19,10.45,10.45,0,0,1,5.69-1.5A10.65,10.65,0,0,1,415.35,327.58Zm-9.24,4.65a15.38,15.38,0,0,0,0,11.67,4.27,4.27,0,0,0,7.05,0,11.59,11.59,0,0,0,1.15-5.87,11.39,11.39,0,0,0-1.15-5.78,4.27,4.27,0,0,0-7.05,0Z" style="fill:#009245"/><path d="M439.65,345a12.89,12.89,0,0,0,2.64-1.45l2.56,3.61a11.86,11.86,0,0,1-3.67,2.1,12.92,12.92,0,0,1-4.46.78,11.89,11.89,0,0,1-6.05-1.47,10,10,0,0,1-3.91-4.14,13.53,13.53,0,0,1-1.35-6.19,13.7,13.7,0,0,1,1.38-6.24,10.18,10.18,0,0,1,3.95-4.29,11.57,11.57,0,0,1,6.06-1.55,13.52,13.52,0,0,1,4.39.68,11.81,11.81,0,0,1,3.64,2.07l-2.5,3.46a9.45,9.45,0,0,0-5.36-1.79,5,5,0,0,0-4.12,1.88q-1.52,1.88-1.51,5.78c0,2.55.5,4.39,1.51,5.55a5.15,5.15,0,0,0,4.1,1.72A7.28,7.28,0,0,0,439.65,345Z" style="fill:#009245"/><path d="M469.71,326.76v22.6h-5.63V331H458l-.28,3.88a48.23,48.23,0,0,1-1,8,10.37,10.37,0,0,1-2,4.35,12.48,12.48,0,0,1-3.87,2.86l-2.35-3.58a7.33,7.33,0,0,0,1.88-1.84,9.51,9.51,0,0,0,1.17-3.2,49.24,49.24,0,0,0,.84-6.33l.61-8.37Z" style="fill:#009245"/><path d="M481,339.78a6.61,6.61,0,0,0,1.8,4.52,5.64,5.64,0,0,0,4,1.47,9.06,9.06,0,0,0,3-.49,12.55,12.55,0,0,0,2.88-1.45l2.35,3.22a12.24,12.24,0,0,1-3.84,2.17,14.11,14.11,0,0,1-4.74.78,11.84,11.84,0,0,1-6.14-1.5,9.61,9.61,0,0,1-3.82-4.18,15.51,15.51,0,0,1,0-12.34,10.59,10.59,0,0,1,14.69-4.49,8.93,8.93,0,0,1,3.52,3.93,14,14,0,0,1,1.24,6.12,19.53,19.53,0,0,1-.11,2.24Zm1.44-8.19a7.77,7.77,0,0,0-1.51,4.58h9.52a7.65,7.65,0,0,0-1.21-4.5,4,4,0,0,0-3.4-1.58A4.26,4.26,0,0,0,482.45,331.59Z" style="fill:#009245"/><path d="M520,345.11h2V356.4h-4.31l-.79-7H504l-.77,7h-4.33V345.11h1.69a6.82,6.82,0,0,0,1.45-2,13.83,13.83,0,0,0,.94-3.29q.38-2.13.66-5.77l.55-7.26H520Zm-5.38-14.27h-5.46l-.22,2.92a54.25,54.25,0,0,1-.71,5.93,11.07,11.07,0,0,1-1.11,3.31,7,7,0,0,1-1.93,2.11h9.43Z" style="fill:#009245"/><path d="M541.92,327.58a9.38,9.38,0,0,1,3.59,4.14,15,15,0,0,1,1.23,6.29,15.27,15.27,0,0,1-1.24,6.37,9.38,9.38,0,0,1-3.62,4.16A10.67,10.67,0,0,1,536.2,350a10.86,10.86,0,0,1-5.7-1.43,9.16,9.16,0,0,1-3.61-4.12,15.29,15.29,0,0,1-1.23-6.4,14.76,14.76,0,0,1,1.24-6.24,9.6,9.6,0,0,1,3.63-4.19,10.45,10.45,0,0,1,5.69-1.5A10.69,10.69,0,0,1,541.92,327.58Zm-9.24,4.65a11.39,11.39,0,0,0-1.16,5.82q0,4,1.16,5.85a4.26,4.26,0,0,0,7,0q1.15-1.86,1.15-5.87a11.29,11.29,0,0,0-1.15-5.78,4.26,4.26,0,0,0-7,0Z" style="fill:#009245"/><path d="M570.7,338.76a5.12,5.12,0,0,1,1.46,3.83,5.53,5.53,0,0,1-2.8,5.11,14.12,14.12,0,0,1-7.3,1.66h-9.49V327c1.59-.3,3.08-.52,4.47-.67a39.77,39.77,0,0,1,4.28-.23,17.45,17.45,0,0,1,5.1.68,7.58,7.58,0,0,1,3.41,2,4.72,4.72,0,0,1,1.22,3.27c0,2.47-1.55,4.11-4.65,4.9A7.31,7.31,0,0,1,570.7,338.76Zm-12.5-8.65v5.61h3.48a5,5,0,0,0,2.87-.69,2.51,2.51,0,0,0,1-2.21,2.47,2.47,0,0,0-1-2.2,5.88,5.88,0,0,0-3.21-.7A22.63,22.63,0,0,0,558.2,330.11Zm3.69,15.34a5.86,5.86,0,0,0,3.4-.79,3.14,3.14,0,0,0-.08-4.86A5.64,5.64,0,0,0,562,339H558.2v6.44Z" style="fill:#009245"/><path d="M595.48,343.4a3.63,3.63,0,0,0,.38,1.87,2.21,2.21,0,0,0,1.25.91L595.89,350a7.75,7.75,0,0,1-3.13-.93,4.7,4.7,0,0,1-1.9-2.13,7.94,7.94,0,0,1-3.18,2.31,11,11,0,0,1-4.14.79,8.51,8.51,0,0,1-4-.89,6.3,6.3,0,0,1-2.63-2.48,7.32,7.32,0,0,1-.91-3.69,6.61,6.61,0,0,1,1.26-4.08A7.62,7.62,0,0,1,581,336.3a17.53,17.53,0,0,1,5.89-.88H590v-1.21a3.4,3.4,0,0,0-1.21-2.89,5.85,5.85,0,0,0-3.59-.93,15.06,15.06,0,0,0-2.79.31,24.93,24.93,0,0,0-3.29.86l-1.34-3.86a26,26,0,0,1,4.25-1.17,22.53,22.53,0,0,1,4.07-.41q4.67,0,7,2a7.11,7.11,0,0,1,2.34,5.73Zm-7.5,1.79a5.42,5.42,0,0,0,2-2v-4.4H587.8a8.14,8.14,0,0,0-4.5,1,3.68,3.68,0,0,0-.53,5.32,3.62,3.62,0,0,0,2.6.85A5.21,5.21,0,0,0,588,345.19Z" style="fill:#009245"/><path d="M601.49,326.76H623l-.68,4.29H615v18.31h-5.63V331.05h-7.83Z" style="fill:#009245"/><path d="M632.88,339.78a6.71,6.71,0,0,0,1.8,4.52,5.67,5.67,0,0,0,4,1.47,9,9,0,0,0,3-.49,12.17,12.17,0,0,0,2.88-1.45l2.35,3.22a12.13,12.13,0,0,1-3.84,2.17,14,14,0,0,1-4.74.78,11.8,11.8,0,0,1-6.13-1.5,9.49,9.49,0,0,1-3.82-4.18,15.51,15.51,0,0,1,0-12.34,9.86,9.86,0,0,1,9.33-5.86,10.25,10.25,0,0,1,5.36,1.37,9,9,0,0,1,3.52,3.93,14.1,14.1,0,0,1,1.24,6.12,22.1,22.1,0,0,1-.11,2.24Zm1.44-8.19a7.77,7.77,0,0,0-1.5,4.58h9.51a7.73,7.73,0,0,0-1.2-4.5,4,4,0,0,0-3.41-1.58A4.27,4.27,0,0,0,634.32,331.59Z" style="fill:#009245"/><path d="M672.21,326.76v22.6h-5.63V331H660.5l-.28,3.88a48.23,48.23,0,0,1-1,8,10.37,10.37,0,0,1-2,4.35,12.48,12.48,0,0,1-3.87,2.86L651,346.5a7.33,7.33,0,0,0,1.88-1.84,9.51,9.51,0,0,0,1.17-3.2,49.24,49.24,0,0,0,.84-6.33l.61-8.37Z" style="fill:#009245"/><path d="M685.23,326.76v6.87h3.08q5.31,0,7.84,2a6.94,6.94,0,0,1,2.53,5.84q0,4.17-2.75,6a12.63,12.63,0,0,1-7.26,1.88H679.6v-22.6Zm0,10.76v7.81h3.42a4.66,4.66,0,0,0,3.1-.91,3.81,3.81,0,0,0,1.06-3,3.76,3.76,0,0,0-1-2.95,5.15,5.15,0,0,0-3.45-.91Z" style="fill:#009245"/><path d="M722.75,349.36h-5.63V340h-7.47v9.37H704v-22.6h5.63v9h7.47v-9h5.63Z" style="fill:#009245"/><path d="M744.42,327.58a9.38,9.38,0,0,1,3.59,4.14,15,15,0,0,1,1.23,6.29,15.27,15.27,0,0,1-1.24,6.37,9.38,9.38,0,0,1-3.62,4.16A10.67,10.67,0,0,1,738.7,350a10.86,10.86,0,0,1-5.7-1.43,9.16,9.16,0,0,1-3.61-4.12,15.29,15.29,0,0,1-1.23-6.4,14.76,14.76,0,0,1,1.24-6.24,9.6,9.6,0,0,1,3.63-4.19,10.45,10.45,0,0,1,5.69-1.5A10.69,10.69,0,0,1,744.42,327.58Zm-9.24,4.65a11.39,11.39,0,0,0-1.16,5.82q0,4,1.16,5.85a4.26,4.26,0,0,0,7,0q1.15-1.86,1.15-5.87a11.29,11.29,0,0,0-1.15-5.78,4.26,4.26,0,0,0-7,0Z" style="fill:#009245"/><path d="M768.71,345a12.89,12.89,0,0,0,2.64-1.45l2.56,3.61a11.86,11.86,0,0,1-3.67,2.1,12.88,12.88,0,0,1-4.46.78,11.92,11.92,0,0,1-6-1.47,9.86,9.86,0,0,1-3.9-4.14,13.41,13.41,0,0,1-1.36-6.19,13.7,13.7,0,0,1,1.38-6.24,10.2,10.2,0,0,1,4-4.29,11.57,11.57,0,0,1,6.06-1.55,13.51,13.51,0,0,1,4.38.68,11.7,11.7,0,0,1,3.64,2.07l-2.5,3.46a9.42,9.42,0,0,0-5.35-1.79,5,5,0,0,0-4.13,1.88q-1.51,1.88-1.51,5.78c0,2.55.5,4.39,1.51,5.55a5.15,5.15,0,0,0,4.1,1.72A7.28,7.28,0,0,0,768.71,345Z" style="fill:#009245"/><path d="M778.67,326.76h21.55l-.68,4.29h-7.4v18.31h-5.63V331.05h-7.84Z" style="fill:#009245"/><path d="M824,326.76v22.6h-5.4V341a44,44,0,0,1,.25-4.82,37.28,37.28,0,0,1,.65-4.14l-8.17,17.33h-6.06v-22.6h5.4v8.43a47,47,0,0,1-.25,4.77,32.15,32.15,0,0,1-.67,4.13l8.15-17.33Z" style="fill:#009245"/><path d="M1014.82,288.84a5.09,5.09,0,0,1,1.46,3.83,5.54,5.54,0,0,1-2.79,5.11,14.27,14.27,0,0,1-7.3,1.65h-9.5V277.09c1.6-.3,3.09-.52,4.47-.67a39.91,39.91,0,0,1,4.28-.23,17,17,0,0,1,5.1.69,7.52,7.52,0,0,1,3.42,2,4.71,4.71,0,0,1,1.21,3.27q0,3.7-4.65,4.91A7.16,7.16,0,0,1,1014.82,288.84Zm-12.49-8.66v5.61h3.47a5,5,0,0,0,2.87-.69,2.49,2.49,0,0,0,1-2.21,2.44,2.44,0,0,0-1.06-2.19,5.83,5.83,0,0,0-3.21-.71A24.19,24.19,0,0,0,1002.33,280.18Zm3.69,15.34a5.94,5.94,0,0,0,3.39-.78,2.77,2.77,0,0,0,1.11-2.42,2.73,2.73,0,0,0-1.18-2.45,5.66,5.66,0,0,0-3.19-.79h-3.82v6.44Z" style="fill:#c184ae"/><path d="M1052.7,299.43h-5.64v-22.6h5.64v8.82h3.6l5.46-8.82h5.66l-6.72,10.48,7.53,12.12h-6.15l-5.93-9.86h-3.45Z" style="fill:#c184ae"/><path d="M1090.23,293.48a3.59,3.59,0,0,0,.38,1.86,2.21,2.21,0,0,0,1.25.91l-1.22,3.78a7.75,7.75,0,0,1-3.13-.93,4.81,4.81,0,0,1-1.91-2.12,7.82,7.82,0,0,1-3.17,2.3,10.86,10.86,0,0,1-4.14.79,8.51,8.51,0,0,1-4-.89,6.24,6.24,0,0,1-2.63-2.48,7.32,7.32,0,0,1-.91-3.69,6.68,6.68,0,0,1,1.25-4.08,7.76,7.76,0,0,1,3.7-2.56,17.52,17.52,0,0,1,5.88-.87h3.16v-1.22a3.4,3.4,0,0,0-1.21-2.89,5.85,5.85,0,0,0-3.59-.93,15.06,15.06,0,0,0-2.79.31,24.93,24.93,0,0,0-3.29.86l-1.34-3.86a25.69,25.69,0,0,1,4.25-1.17,22.53,22.53,0,0,1,4.07-.41q4.67,0,7,2a7.11,7.11,0,0,1,2.34,5.73Zm-7.5,1.78a5.35,5.35,0,0,0,2-2v-4.39h-2.22a8.13,8.13,0,0,0-4.5,1,3.68,3.68,0,0,0-.53,5.32,3.62,3.62,0,0,0,2.6.85A5.21,5.21,0,0,0,1082.73,295.26Z" style="fill:#c184ae"/><path d="M1103.32,299.43h-5.63v-22.6h5.63v8.82h3.61l5.46-8.82H1118l-6.72,10.48,7.53,12.12h-6.14l-5.93-9.86h-3.46Z" style="fill:#c184ae"/><path d="M1137.92,277.66a9.3,9.3,0,0,1,3.59,4.13,15,15,0,0,1,1.23,6.29,15.24,15.24,0,0,1-1.24,6.37,9.33,9.33,0,0,1-3.62,4.16,10.67,10.67,0,0,1-5.68,1.46,10.86,10.86,0,0,1-5.7-1.43,9.16,9.16,0,0,1-3.61-4.12,15.26,15.26,0,0,1-1.23-6.4,14.76,14.76,0,0,1,1.24-6.24,9.6,9.6,0,0,1,3.63-4.19,10.45,10.45,0,0,1,5.69-1.5A10.6,10.6,0,0,1,1137.92,277.66Zm-9.24,4.65a11.32,11.32,0,0,0-1.16,5.81q0,4,1.16,5.85a4.27,4.27,0,0,0,7,0q1.15-1.87,1.15-5.88a11.24,11.24,0,0,0-1.15-5.77,4.25,4.25,0,0,0-7,0Z" style="fill:#c184ae"/><path d="M1167.54,276.83l1.58,22.6H1164l-.52-8.88c-.08-1.43-.12-2.9-.12-4.39,0-1.31,0-2.68.12-4.1h-.17l-3.58,13.72h-4.42l-3.88-13.72h-.17c.11,1.18.17,2.53.17,4,0,1,0,2.54-.13,4.59l-.4,8.75h-5l1.54-22.6h6.38l3.8,14.45,3.39-14.45Z" style="fill:#c184ae"/><path d="M1212.84,295a12.58,12.58,0,0,0,2.63-1.45l2.57,3.61a11.86,11.86,0,0,1-3.67,2.1,12.92,12.92,0,0,1-4.46.78,11.89,11.89,0,0,1-6.05-1.47,9.77,9.77,0,0,1-3.91-4.14,13.53,13.53,0,0,1-1.35-6.19A13.83,13.83,0,0,1,1200,282a10.26,10.26,0,0,1,4-4.29,11.57,11.57,0,0,1,6.06-1.55,13.26,13.26,0,0,1,4.39.69A11.37,11.37,0,0,1,1218,279l-2.49,3.45a9.45,9.45,0,0,0-5.36-1.79,5,5,0,0,0-4.13,1.88q-1.5,1.88-1.5,5.78t1.5,5.55a5.18,5.18,0,0,0,4.11,1.73A7.09,7.09,0,0,0,1212.84,295Z" style="fill:#c184ae"/><path d="M1242.9,276.83v22.6h-5.63V281.1h-6.08l-.28,3.88a49.34,49.34,0,0,1-1,8,10.47,10.47,0,0,1-2,4.36,12.8,12.8,0,0,1-3.87,2.86l-2.35-3.59a7.3,7.3,0,0,0,1.88-1.83,9.91,9.91,0,0,0,1.17-3.2,50,50,0,0,0,.83-6.34l.62-8.37Z" style="fill:#c184ae"/><path d="M1262.19,299.47a14.18,14.18,0,0,1-4.23,6.65,12.81,12.81,0,0,1-7.52,2.63l-.71-4.07a13.44,13.44,0,0,0,3.61-.95,6.07,6.07,0,0,0,2.19-1.64,10.45,10.45,0,0,0,1.46-2.66h-1.92l-7.41-22.6h6l5.12,18.84,5.33-18.84h5.78Z" style="fill:#c184ae"/><path d="M1293.16,276.83v22.6h-5.63v-8.81a9.63,9.63,0,0,1-3,1.64,11.16,11.16,0,0,1-3.72.6,6.3,6.3,0,0,1-7-6.87v-9.16h5.64v8.45a3.41,3.41,0,0,0,.82,2.56,3.34,3.34,0,0,0,2.42.79,7.1,7.1,0,0,0,2.59-.51,6.6,6.6,0,0,0,2.19-1.34v-9.95Z" style="fill:#c184ae"/><path d="M1318.05,293.48a3.6,3.6,0,0,0,.37,1.86,2.21,2.21,0,0,0,1.25.91l-1.22,3.78a7.65,7.65,0,0,1-3.12-.93,4.75,4.75,0,0,1-1.91-2.12,7.92,7.92,0,0,1-3.18,2.3,10.86,10.86,0,0,1-4.14.79,8.51,8.51,0,0,1-4-.89,6.22,6.22,0,0,1-2.62-2.48,7.22,7.22,0,0,1-.92-3.69,6.63,6.63,0,0,1,1.26-4.08,7.78,7.78,0,0,1,3.69-2.56,17.54,17.54,0,0,1,5.89-.87h3.15v-1.22a3.4,3.4,0,0,0-1.21-2.89,5.85,5.85,0,0,0-3.59-.93,15.15,15.15,0,0,0-2.79.31,24.93,24.93,0,0,0-3.29.86l-1.34-3.86a25.8,25.8,0,0,1,4.26-1.17,22.34,22.34,0,0,1,4.06-.41c3.12,0,5.45.67,7,2a7.12,7.12,0,0,1,2.35,5.73Zm-7.5,1.78a5.32,5.32,0,0,0,2-2v-4.39h-2.21a8.19,8.19,0,0,0-4.51,1,3.68,3.68,0,0,0-.53,5.32,3.62,3.62,0,0,0,2.6.85A5.22,5.22,0,0,0,1310.55,295.26Z" style="fill:#c184ae"/><path d="M1330.13,289.85a6.71,6.71,0,0,0,1.8,4.52,5.67,5.67,0,0,0,4,1.47,9,9,0,0,0,3-.49,12.17,12.17,0,0,0,2.88-1.45l2.35,3.23a12.3,12.3,0,0,1-3.84,2.16,14.07,14.07,0,0,1-4.74.78,11.9,11.9,0,0,1-6.13-1.49,9.52,9.52,0,0,1-3.82-4.19,15.51,15.51,0,0,1,0-12.34,9.86,9.86,0,0,1,9.33-5.86,10.25,10.25,0,0,1,5.36,1.37,9,9,0,0,1,3.52,3.94,14,14,0,0,1,1.24,6.11,22,22,0,0,1-.11,2.24Zm1.44-8.18a7.73,7.73,0,0,0-1.5,4.57h9.51a7.73,7.73,0,0,0-1.2-4.5,4,4,0,0,0-3.41-1.58A4.25,4.25,0,0,0,1331.57,281.67Z" style="fill:#c184ae"/><path d="M1119.63,18.46a11.35,11.35,0,0,1-3.36,5.27,10.12,10.12,0,0,1-6,2.1l-.56-3.24a10.67,10.67,0,0,0,2.86-.75,4.73,4.73,0,0,0,1.73-1.3,7.84,7.84,0,0,0,1.16-2.11H1114L1108.11.51h4.72l4.06,14.94L1121.12.51h4.59Z" style="fill:#c184ae"/><path d="M1140.71,14.94a9.91,9.91,0,0,0,2.09-1.15l2,2.86a9.2,9.2,0,0,1-2.91,1.67,10.2,10.2,0,0,1-3.53.62,9.43,9.43,0,0,1-4.8-1.17,7.79,7.79,0,0,1-3.1-3.28,10.79,10.79,0,0,1-1.07-4.91,10.86,10.86,0,0,1,1.09-4.95,8.06,8.06,0,0,1,3.14-3.4A9.15,9.15,0,0,1,1138.46,0a10.57,10.57,0,0,1,3.47.54,9.15,9.15,0,0,1,2.89,1.64l-2,2.74a7.53,7.53,0,0,0-4.25-1.42A4,4,0,0,0,1135.32,5a7.26,7.26,0,0,0-1.2,4.59,6.61,6.61,0,0,0,1.2,4.4,4.09,4.09,0,0,0,3.25,1.37A5.74,5.74,0,0,0,1140.71,14.94Z" style="fill:#c184ae"/><path d="M1164.56.51V18.43h-4.47V3.89h-4.83L1155,7a37.54,37.54,0,0,1-.79,6.32,8.27,8.27,0,0,1-1.6,3.45,9.86,9.86,0,0,1-3.07,2.26l-1.86-2.84a5.73,5.73,0,0,0,1.49-1.45,7.73,7.73,0,0,0,.93-2.54,39.36,39.36,0,0,0,.66-5l.49-6.63Z" style="fill:#c184ae"/><path d="M1181.67,1.16a7.37,7.37,0,0,1,2.85,3.28,11.88,11.88,0,0,1,1,5,11.94,11.94,0,0,1-1,5.05,7.39,7.39,0,0,1-2.86,3.3,9.44,9.44,0,0,1-9,0,7.19,7.19,0,0,1-2.86-3.26,12,12,0,0,1-1-5.08,11.7,11.7,0,0,1,1-5,7.55,7.55,0,0,1,2.87-3.33,9.3,9.3,0,0,1,9,0Zm-7.33,3.69a9,9,0,0,0-.91,4.61,9.07,9.07,0,0,0,.91,4.64,3.39,3.39,0,0,0,5.59,0,9.15,9.15,0,0,0,.91-4.66,8.94,8.94,0,0,0-.91-4.58,3.38,3.38,0,0,0-5.59,0Z" style="fill:#c184ae"/><path d="M1204.5,10a4,4,0,0,1,1.16,3,4.4,4.4,0,0,1-2.22,4.06,11.33,11.33,0,0,1-5.79,1.31h-7.53V.71c1.26-.24,2.45-.41,3.55-.53a31.25,31.25,0,0,1,3.39-.18,13.67,13.67,0,0,1,4,.54,5.88,5.88,0,0,1,2.71,1.61,3.69,3.69,0,0,1,1,2.59q0,2.94-3.69,3.89A5.76,5.76,0,0,1,1204.5,10Zm-9.91-6.86V7.62h2.76a4,4,0,0,0,2.27-.55,2,2,0,0,0,.79-1.76,1.94,1.94,0,0,0-.84-1.74A4.64,4.64,0,0,0,1197,3,16.75,16.75,0,0,0,1194.59,3.17Zm2.93,12.16a4.75,4.75,0,0,0,2.69-.62,2.22,2.22,0,0,0,.88-1.92,2.18,2.18,0,0,0-.94-1.94,4.49,4.49,0,0,0-2.53-.63h-3v5.11Z" style="fill:#c184ae"/><path d="M1224.72.51V18.43h-4.28V11.8a36.11,36.11,0,0,1,.19-3.83,28.66,28.66,0,0,1,.52-3.28l-6.48,13.74h-4.81V.51h4.28V7.19A36.24,36.24,0,0,1,1214,11a24.64,24.64,0,0,1-.54,3.28L1219.88.51Z" style="fill:#c184ae"/><path d="M1233.74,10.83a5.33,5.33,0,0,0,1.43,3.59,4.48,4.48,0,0,0,3.19,1.17,7.18,7.18,0,0,0,2.37-.39,10.45,10.45,0,0,0,2.29-1.15l1.86,2.55a9.78,9.78,0,0,1-3.05,1.72,11.18,11.18,0,0,1-3.75.62,9.42,9.42,0,0,1-4.87-1.19,7.53,7.53,0,0,1-3-3.31,11.37,11.37,0,0,1-1-4.95,11.29,11.29,0,0,1,1-4.84,8,8,0,0,1,2.91-3.41,8.82,8.82,0,0,1,8.74-.16,7.24,7.24,0,0,1,2.8,3.13,11.11,11.11,0,0,1,1,4.84,16.15,16.15,0,0,1-.09,1.78Zm1.14-6.49A6.17,6.17,0,0,0,1233.69,8h7.55a6.06,6.06,0,0,0-1-3.57,3.14,3.14,0,0,0-2.7-1.25A3.42,3.42,0,0,0,1234.88,4.34Z" style="fill:#c184ae"/><path d="M93.54,276.83v22.6H87.91v-8.81a9.63,9.63,0,0,1-3,1.64,11.21,11.21,0,0,1-3.72.6A7,7,0,0,1,76,291,6.89,6.89,0,0,1,74.25,286v-9.16h5.63v8.45a3.41,3.41,0,0,0,.83,2.56,3.33,3.33,0,0,0,2.42.79,7.1,7.1,0,0,0,2.59-.51,6.7,6.7,0,0,0,2.19-1.34v-9.95Z" style="fill:#ed1e79"/><path d="M99.12,276.83h21.55l-.69,4.29h-7.4v18.31H107V281.12H99.12Z" style="fill:#ed1e79"/><path d="M140.79,277.66a9.26,9.26,0,0,1,3.6,4.13,15,15,0,0,1,1.23,6.29,15.24,15.24,0,0,1-1.24,6.37,9.33,9.33,0,0,1-3.62,4.16,10.67,10.67,0,0,1-5.68,1.46,10.86,10.86,0,0,1-5.7-1.43,9.16,9.16,0,0,1-3.61-4.12,15.26,15.26,0,0,1-1.23-6.4,14.76,14.76,0,0,1,1.24-6.24,9.54,9.54,0,0,1,3.63-4.19,10.45,10.45,0,0,1,5.69-1.5A10.57,10.57,0,0,1,140.79,277.66Zm-9.23,4.65a11.32,11.32,0,0,0-1.16,5.81q0,4,1.16,5.85a4.27,4.27,0,0,0,7,0q1.16-1.87,1.15-5.88a11.24,11.24,0,0,0-1.15-5.77,4.25,4.25,0,0,0-7,0Z" style="fill:#ed1e79"/><path d="M55.59,345.11h2V356.4H53.25l-.79-7H39.55l-.77,7H34.45V345.11h1.68a6.64,6.64,0,0,0,1.45-2,13,13,0,0,0,.94-3.29q.39-2.13.67-5.77l.55-7.26H55.59Zm-5.37-14.27H44.75l-.21,2.92a56.88,56.88,0,0,1-.71,5.93A11.07,11.07,0,0,1,42.72,343a7.12,7.12,0,0,1-1.93,2.11h9.43Z" style="fill:#ed1e79"/><path d="M67.23,339.78A6.66,6.66,0,0,0,69,344.3a5.66,5.66,0,0,0,4,1.47,9.06,9.06,0,0,0,3-.49,12.55,12.55,0,0,0,2.88-1.45l2.35,3.22a12.24,12.24,0,0,1-3.84,2.17,14.11,14.11,0,0,1-4.74.78,11.8,11.8,0,0,1-6.13-1.5,9.49,9.49,0,0,1-3.82-4.18,15.51,15.51,0,0,1,0-12.34,9.86,9.86,0,0,1,9.33-5.86,10.27,10.27,0,0,1,5.36,1.37,9,9,0,0,1,3.52,3.93,14.1,14.1,0,0,1,1.23,6.12,22.24,22.24,0,0,1-.1,2.24Zm1.44-8.19a7.84,7.84,0,0,0-1.51,4.58h9.52a7.73,7.73,0,0,0-1.2-4.5,4,4,0,0,0-3.41-1.58A4.26,4.26,0,0,0,68.67,331.59Z" style="fill:#ed1e79"/><path d="M106.56,326.76v22.6h-5.63V331H94.85l-.28,3.88a48.23,48.23,0,0,1-1,8,10.37,10.37,0,0,1-2,4.35,12.48,12.48,0,0,1-3.87,2.86l-2.35-3.58a7.33,7.33,0,0,0,1.88-1.84,9.73,9.73,0,0,0,1.17-3.2,49.58,49.58,0,0,0,.83-6.33l.62-8.37Z" style="fill:#ed1e79"/><path d="M131.08,343.4a3.63,3.63,0,0,0,.38,1.87,2.22,2.22,0,0,0,1.24.91L131.49,350a7.7,7.7,0,0,1-3.13-.93,4.78,4.78,0,0,1-1.91-2.13,7.8,7.8,0,0,1-3.18,2.31,11,11,0,0,1-4.14.79,8.47,8.47,0,0,1-4-.89,6.3,6.3,0,0,1-2.63-2.48,7.32,7.32,0,0,1-.92-3.69,6.61,6.61,0,0,1,1.26-4.08,7.71,7.71,0,0,1,3.69-2.56,17.61,17.61,0,0,1,5.89-.88h3.16v-1.21a3.41,3.41,0,0,0-1.22-2.89,5.82,5.82,0,0,0-3.58-.93,15.24,15.24,0,0,0-2.8.31,24.79,24.79,0,0,0-3.28.86l-1.35-3.86a25.8,25.8,0,0,1,4.26-1.17,22.45,22.45,0,0,1,4.07-.41q4.66,0,7,2a7.11,7.11,0,0,1,2.34,5.73Zm-7.5,1.79a5.49,5.49,0,0,0,2-2v-4.4H123.4a8.12,8.12,0,0,0-4.5,1,3.68,3.68,0,0,0-.53,5.32,3.6,3.6,0,0,0,2.6.85A5.21,5.21,0,0,0,123.58,345.19Z" style="fill:#ed1e79"/><path d="M143.17,339.78a6.61,6.61,0,0,0,1.8,4.52,5.64,5.64,0,0,0,4,1.47,9.06,9.06,0,0,0,3-.49,12.55,12.55,0,0,0,2.88-1.45l2.35,3.22a12.24,12.24,0,0,1-3.84,2.17,14.11,14.11,0,0,1-4.74.78,11.84,11.84,0,0,1-6.14-1.5,9.61,9.61,0,0,1-3.82-4.18,15.51,15.51,0,0,1,0-12.34,10.59,10.59,0,0,1,14.69-4.49,8.93,8.93,0,0,1,3.52,3.93,14,14,0,0,1,1.24,6.12,22.24,22.24,0,0,1-.1,2.24Zm1.44-8.19a7.77,7.77,0,0,0-1.51,4.58h9.52a7.65,7.65,0,0,0-1.21-4.5,4,4,0,0,0-3.4-1.58A4.26,4.26,0,0,0,144.61,331.59Z" style="fill:#ed1e79"/><path d="M183.07,326.76l1.58,22.6h-5.1l-.51-8.88c-.08-1.44-.13-2.9-.13-4.39,0-1.31.05-2.68.13-4.1h-.17l-3.58,13.72h-4.42L167,332h-.18a40.18,40.18,0,0,1,.18,4c0,1-.05,2.54-.13,4.59l-.41,8.75h-5l1.53-22.6h6.38l3.8,14.45,3.39-14.45Z" style="fill:#ed1e79"/></svg>