<svg xmlns="http://www.w3.org/2000/svg" viewBox="0 0 1786.96 365.58"><title>lc3</title><path d="M.08,194.82v-63.4h18v6.49H7.77v50.42H18.05v6.49Z" style="fill:#c46d76"/><path d="M44.1,153H34.29v-6.5H52.64v28.24h10v6.49H33.09v-6.49h11Zm9.23-16a5.56,5.56,0,0,1-.41,2.12,5.4,5.4,0,0,1-1.15,1.73A5.55,5.55,0,0,1,50.05,142a5.48,5.48,0,0,1-2.16.43,5.64,5.64,0,0,1-2.17-.43A5.52,5.52,0,0,1,44,140.87a5.21,5.21,0,0,1-1.14-1.73,5.55,5.55,0,0,1,1.14-6A5.26,5.26,0,0,1,45.72,132a5.64,5.64,0,0,1,2.17-.43,5.48,5.48,0,0,1,2.16.43,5.28,5.28,0,0,1,1.72,1.18A5.44,5.44,0,0,1,53.33,137Z" style="fill:#acafbc"/><path d="M89.46,162.49H82.31l1-10.57-8.58,6.16-3.45-6,9.6-4.41-9.6-4.41,3.45-5.95,8.58,6.16-1-10.57h7.15l-1,10.57,8.62-6.16,3.42,5.95-9.57,4.41,9.57,4.41-3.42,6-8.62-6.16Z" style="fill:#82a6ea"/><path d="M127.94,162.49H120.8l1-10.57-8.58,6.16-3.46-6,9.61-4.41-9.61-4.41,3.46-5.95,8.58,6.16-1-10.57h7.14l-1,10.57,8.61-6.16,3.42,5.95-9.57,4.41,9.57,4.41-3.42,6L127,151.92Z" style="fill:#82a6ea"/><path d="M148,181.25V175.1l10.56-10.56q3-3,4.77-5.13a27.9,27.9,0,0,0,2.76-3.85,11.13,11.13,0,0,0,1.29-3.12,14.55,14.55,0,0,0,.3-3,7,7,0,0,0-.41-2.41,5.4,5.4,0,0,0-3.17-3.31,7.12,7.12,0,0,0-2.74-.5,10.61,10.61,0,0,0-4.89,1.15,17.92,17.92,0,0,0-4.27,3.06l-4.41-5.68a23.73,23.73,0,0,1,6.55-4.32,19.11,19.11,0,0,1,7.87-1.62,19.76,19.76,0,0,1,5.95.83,12.83,12.83,0,0,1,4.57,2.48,11,11,0,0,1,2.93,4.1,14.35,14.35,0,0,1,1.05,5.68,16.63,16.63,0,0,1-.72,5,18.79,18.79,0,0,1-2.09,4.49,30.51,30.51,0,0,1-3.36,4.38c-1.34,1.46-2.86,3-4.57,4.61l-6.49,6.19h18.83v7.69Z" style="fill:#d7c280"/><path d="M236.53,153h-9.81v-6.5h18.36v28.24h10v6.49H225.53v-6.49h11Zm9.23-16a5.56,5.56,0,0,1-.41,2.12,5.21,5.21,0,0,1-1.14,1.73,5.71,5.71,0,0,1-1.73,1.16,5.47,5.47,0,0,1-2.15.43,5.56,5.56,0,0,1-2.17-.43,5.46,5.46,0,0,1-1.75-1.16,5.21,5.21,0,0,1-1.14-1.73,5.55,5.55,0,0,1,1.14-6,5.2,5.2,0,0,1,1.75-1.18,5.56,5.56,0,0,1,2.17-.43,5.38,5.38,0,0,1,3.88,1.61,5.36,5.36,0,0,1,1.14,1.74A5.56,5.56,0,0,1,245.76,137Z" style="fill:#b470d8"/><path d="M295,140a23.35,23.35,0,0,0-3.57-.8,26.8,26.8,0,0,0-4.22-.33,9.26,9.26,0,0,0-2.74.39,5.8,5.8,0,0,0-2.19,1.25,5.91,5.91,0,0,0-1.45,2.17,8.68,8.68,0,0,0-.53,3.2v5.6h13.64V158H280.28v23.24h-8.41V158H261.79v-6.5h10.08v-5.26a16.78,16.78,0,0,1,1.08-6.34,11.16,11.16,0,0,1,3-4.34,12.34,12.34,0,0,1,4.74-2.48,22.7,22.7,0,0,1,6.18-.79,30.78,30.78,0,0,1,4.29.29c1.36.2,2.62.43,3.78.71Z" style="fill:#b470d8"/><path d="M352,153h-9.81v-6.5h18.36v28.24h10v6.49H341v-6.49h11Zm9.23-16a5.56,5.56,0,0,1-.41,2.12,5.24,5.24,0,0,1-1.15,1.73,5.55,5.55,0,0,1-1.72,1.16,5.47,5.47,0,0,1-2.15.43,5.65,5.65,0,0,1-2.18-.43,5.52,5.52,0,0,1-1.74-1.16,5.21,5.21,0,0,1-1.14-1.73,5.55,5.55,0,0,1,1.14-6,5.26,5.26,0,0,1,1.74-1.18,5.65,5.65,0,0,1,2.18-.43,5.47,5.47,0,0,1,2.15.43,5.28,5.28,0,0,1,1.72,1.18,5.39,5.39,0,0,1,1.15,1.74A5.56,5.56,0,0,1,361.22,137Z" style="fill:#acafbc"/><path d="M381.32,181.25h-6.8L406.23,133H413Zm12.95-38.62a13.29,13.29,0,0,1-.65,4.22,9.93,9.93,0,0,1-1.86,3.35,8.36,8.36,0,0,1-3,2.2,9.63,9.63,0,0,1-4,.79,8.77,8.77,0,0,1-6.75-2.6c-1.6-1.73-2.41-4.29-2.41-7.69a13.24,13.24,0,0,1,.64-4.22,9.72,9.72,0,0,1,1.84-3.35,8.41,8.41,0,0,1,3-2.22,9.48,9.48,0,0,1,4-.81,8.79,8.79,0,0,1,6.76,2.6Q394.27,137.5,394.27,142.63Zm-6.08.13a7.63,7.63,0,0,0-.82-4,2.71,2.71,0,0,0-2.43-1.28q-3.21,0-3.21,5.26a7.43,7.43,0,0,0,.82,4,2.64,2.64,0,0,0,2.39,1.28C387.1,148,388.19,146.25,388.19,142.76Zm23.72,28.54a13.2,13.2,0,0,1-.65,4.22,10,10,0,0,1-1.86,3.35,8.21,8.21,0,0,1-3,2.21,9.72,9.72,0,0,1-4,.79,8.8,8.8,0,0,1-6.75-2.59c-1.61-1.72-2.41-4.28-2.41-7.7a13.7,13.7,0,0,1,.63-4.26,9.47,9.47,0,0,1,1.85-3.33,8.75,8.75,0,0,1,3-2.21,9.56,9.56,0,0,1,4-.8,8.81,8.81,0,0,1,6.77,2.6C411.1,165.31,411.91,167.89,411.91,171.3Zm-6.09.14a7.51,7.51,0,0,0-.82-4,2.67,2.67,0,0,0-2.42-1.28q-3.22,0-3.22,5.26a7.56,7.56,0,0,0,.82,4,2.69,2.69,0,0,0,2.4,1.26Q405.82,176.67,405.82,171.44Z" style="fill:#82a6ea"/><path d="M417.41,181.25V175.1L428,164.54c2-2,3.57-3.7,4.77-5.13a28.07,28.07,0,0,0,2.77-3.85,10.79,10.79,0,0,0,1.28-3.12,13.88,13.88,0,0,0,.31-3,7.22,7.22,0,0,0-.41-2.41,5.69,5.69,0,0,0-1.2-2,5.52,5.52,0,0,0-2-1.33,7.11,7.11,0,0,0-2.73-.5,10.55,10.55,0,0,0-4.89,1.15,17.72,17.72,0,0,0-4.27,3.06l-4.41-5.68a23.53,23.53,0,0,1,6.54-4.32,19.16,19.16,0,0,1,7.88-1.62,19.76,19.76,0,0,1,5.95.83,12.79,12.79,0,0,1,4.56,2.48,11.08,11.08,0,0,1,2.94,4.1,14.53,14.53,0,0,1,1,5.68,16.63,16.63,0,0,1-.72,5,18.75,18.75,0,0,1-2.08,4.49,29.9,29.9,0,0,1-3.37,4.38c-1.33,1.46-2.85,3-4.56,4.61l-6.5,6.19h18.84v7.69Z" style="fill:#d7c280"/><path d="M494.52,159.17v-6.63h29.39v6.63Zm0,13.47V166h29.39v6.63Z" style="fill:#82a6ea"/><path d="M533,159.17v-6.63H562.4v6.63Zm0,13.47V166H562.4v6.63Z" style="fill:#82a6ea"/><path d="M642.11,158.73a37,37,0,0,1-1.2,9.84,21,21,0,0,1-3.5,7.33,15.17,15.17,0,0,1-5.62,4.56,18.74,18.74,0,0,1-14.39.28,13.55,13.55,0,0,1-5.37-4.09,20.1,20.1,0,0,1-3.52-7.12,37.6,37.6,0,0,1-1.27-10.39,36.62,36.62,0,0,1,1.22-9.85A21.35,21.35,0,0,1,612,142a15.19,15.19,0,0,1,5.64-4.56,18.86,18.86,0,0,1,14.39-.28,13.62,13.62,0,0,1,5.35,4.07,20.2,20.2,0,0,1,3.5,7.11A37.33,37.33,0,0,1,642.11,158.73Zm-26.46.13v1.28c0,.4,0,.81.07,1.22l16.75-12.1a11.13,11.13,0,0,0-3.16-5,7.07,7.07,0,0,0-4.63-1.62,6.83,6.83,0,0,0-3.56,1,8.48,8.48,0,0,0-2.85,3,17.48,17.48,0,0,0-1.92,5.06A32.91,32.91,0,0,0,615.65,158.86Zm18.05.14c0-.39,0-.78,0-1.18s0-.78,0-1.15l-16.64,12a10.22,10.22,0,0,0,3.07,4.92,7.11,7.11,0,0,0,4.62,1.6,6.87,6.87,0,0,0,3.57-1,8.61,8.61,0,0,0,2.87-3,16.88,16.88,0,0,0,1.9-5.06A33.57,33.57,0,0,0,633.7,159Z" style="fill:#d7c280"/><path d="M717.41,161.22q0,.85-.06,2.22c0,.91-.08,1.77-.15,2.57H694.37a10.7,10.7,0,0,0,.7,4,8,8,0,0,0,2,2.92,8.58,8.58,0,0,0,3.08,1.8,12.18,12.18,0,0,0,4,.61,40.65,40.65,0,0,0,5.42-.39,43.38,43.38,0,0,0,6-1.28v6.63c-.89.25-1.86.48-2.91.68s-2.12.39-3.21.55-2.2.28-3.32.36-2.2.12-3.24.12a21,21,0,0,1-7.11-1.13,14.08,14.08,0,0,1-5.34-3.33,14.76,14.76,0,0,1-3.35-5.46,22.37,22.37,0,0,1-1.16-7.52,24.26,24.26,0,0,1,1.16-7.7,17.58,17.58,0,0,1,3.29-6,14.36,14.36,0,0,1,5.14-3.83,16.41,16.41,0,0,1,6.75-1.35,17.22,17.22,0,0,1,6.53,1.15,13.17,13.17,0,0,1,4.75,3.19,13.64,13.64,0,0,1,2.9,4.89A18.49,18.49,0,0,1,717.41,161.22Zm-8.48-1.2a10.26,10.26,0,0,0-.51-3.57,7.12,7.12,0,0,0-1.49-2.51,6,6,0,0,0-2.19-1.47,7.37,7.37,0,0,0-2.68-.48,6.83,6.83,0,0,0-5.16,2.1,9.64,9.64,0,0,0-2.39,5.93Z" style="fill:#b470d8"/><path d="M736.85,139.45H727V133H745.4v41.81h10v6.49H725.85v-6.49h11Z" style="fill:#b470d8"/><path d="M792.77,171a9.48,9.48,0,0,1-1.31,5.08,10.35,10.35,0,0,1-3.49,3.41,16,16,0,0,1-4.92,1.92,26.36,26.36,0,0,1-5.62.6,59.83,59.83,0,0,1-6.91-.36,45.17,45.17,0,0,1-5.81-1.05v-7.51a32.76,32.76,0,0,0,12.44,2.52,9.2,9.2,0,0,0,4.91-1,3.12,3.12,0,0,0,1.62-2.72,3,3,0,0,0-.34-1.43,3.64,3.64,0,0,0-1.28-1.25,14.3,14.3,0,0,0-2.65-1.23c-1.14-.42-2.63-.89-4.48-1.42a29.3,29.3,0,0,1-4.49-1.62,11.46,11.46,0,0,1-3.2-2.14,8,8,0,0,1-1.9-2.85,10.49,10.49,0,0,1-.63-3.81,8.67,8.67,0,0,1,1-4,9.54,9.54,0,0,1,2.85-3.3,14.8,14.8,0,0,1,4.74-2.24,23.85,23.85,0,0,1,6.63-.82,45.36,45.36,0,0,1,5.81.34c1.68.23,3.18.48,4.47.76v6.8a34.15,34.15,0,0,0-10.76-1.75,8,8,0,0,0-4.12.93,2.84,2.84,0,0,0-1.56,2.56,3.17,3.17,0,0,0,.31,1.4,3.36,3.36,0,0,0,1.21,1.2,14.75,14.75,0,0,0,2.53,1.21c1.09.42,2.52.88,4.29,1.39a31.48,31.48,0,0,1,5.06,1.82,11.93,11.93,0,0,1,3.3,2.21,7.18,7.18,0,0,1,1.79,2.8A10.79,10.79,0,0,1,792.77,171Z" style="fill:#b470d8"/><path d="M832.87,161.22q0,.85-.06,2.22c0,.91-.08,1.77-.15,2.57H809.83a10.7,10.7,0,0,0,.7,4,8,8,0,0,0,2,2.92,8.58,8.58,0,0,0,3.08,1.8,12.18,12.18,0,0,0,4,.61A40.77,40.77,0,0,0,825,175a43,43,0,0,0,6-1.28v6.63c-.88.25-1.85.48-2.9.68s-2.12.39-3.21.55-2.2.28-3.32.36-2.2.12-3.25.12a20.94,20.94,0,0,1-7.1-1.13,14.08,14.08,0,0,1-5.34-3.33,14.63,14.63,0,0,1-3.35-5.46,22.37,22.37,0,0,1-1.16-7.52,24.26,24.26,0,0,1,1.16-7.7,17.73,17.73,0,0,1,3.28-6,14.48,14.48,0,0,1,5.15-3.83,16.41,16.41,0,0,1,6.75-1.35,17.22,17.22,0,0,1,6.53,1.15,13.17,13.17,0,0,1,4.75,3.19,13.78,13.78,0,0,1,2.9,4.89A18.74,18.74,0,0,1,832.87,161.22Zm-8.48-1.2a10.26,10.26,0,0,0-.51-3.57,7.12,7.12,0,0,0-1.49-2.51,6,6,0,0,0-2.19-1.47,7.41,7.41,0,0,0-2.68-.48,6.83,6.83,0,0,0-5.16,2.1A9.65,9.65,0,0,0,810,160Z" style="fill:#b470d8"/><path d="M890.8,153H881v-6.5h18.35v28.24h10v6.49H879.79v-6.49h11ZM900,137a5.56,5.56,0,0,1-.41,2.12,5.4,5.4,0,0,1-1.15,1.73,5.55,5.55,0,0,1-1.72,1.16,5.48,5.48,0,0,1-2.16.43,5.6,5.6,0,0,1-2.17-.43,5.52,5.52,0,0,1-1.74-1.16,5.21,5.21,0,0,1-1.14-1.73,5.55,5.55,0,0,1,1.14-6,5.26,5.26,0,0,1,1.74-1.18,5.6,5.6,0,0,1,2.17-.43,5.48,5.48,0,0,1,2.16.43,5.28,5.28,0,0,1,1.72,1.18A5.44,5.44,0,0,1,900,137Z" style="fill:#acafbc"/><path d="M936.16,162.49H929l1-10.57-8.58,6.16-3.45-6,9.6-4.41-9.6-4.41,3.45-5.95,8.58,6.16L929,133h7.15l-1,10.57,8.61-6.16,3.42,5.95-9.57,4.41,9.57,4.41-3.42,6-8.61-6.16Z" style="fill:#82a6ea"/><path d="M974.64,162.49H967.5l1-10.57-8.58,6.16-3.46-6,9.61-4.41-9.61-4.41,3.46-5.95,8.58,6.16-1-10.57h7.14l-1,10.57,8.61-6.16,3.42,5.95-9.57,4.41,9.57,4.41-3.42,6-8.61-6.16Z" style="fill:#82a6ea"/><path d="M1025.16,167.61a14,14,0,0,1-1.23,6,11.63,11.63,0,0,1-3.78,4.51,18.5,18.5,0,0,1-6.41,2.85,36.84,36.84,0,0,1-9.09,1c-.77,0-1.59,0-2.44-.05s-1.71-.08-2.55-.13-1.66-.13-2.46-.21-1.51-.18-2.15-.29V174c1.43.28,3,.5,4.83.67s3.66.26,5.59.26a21.74,21.74,0,0,0,4.89-.48,9.83,9.83,0,0,0,3.38-1.39,5.59,5.59,0,0,0,2-2.23,7,7,0,0,0,.63-3,5.29,5.29,0,0,0-2.63-4.7,10.83,10.83,0,0,0-3.4-1.3,22.7,22.7,0,0,0-4.91-.46h-4.95V155H1005a15.74,15.74,0,0,0,4.43-.53,7.66,7.66,0,0,0,2.8-1.42,5,5,0,0,0,1.49-2.1,7.28,7.28,0,0,0,.44-2.55,5,5,0,0,0-1.77-4.15c-1.19-.94-3-1.42-5.51-1.42a27.26,27.26,0,0,0-5.26.51c-1.73.35-3.52.8-5.37,1.37v-7c1-.35,2-.63,2.94-.86s1.87-.42,2.81-.58,1.88-.27,2.83-.34,1.95-.1,3-.1a24,24,0,0,1,6.47.78,13.91,13.91,0,0,1,4.69,2.24,9.36,9.36,0,0,1,2.85,3.54,11,11,0,0,1,1,4.65,10.74,10.74,0,0,1-1.87,6.58,11.7,11.7,0,0,1-5.21,3.84,14,14,0,0,1,3.9,1.18,10.25,10.25,0,0,1,3,2.15,9.21,9.21,0,0,1,1.91,3A10.23,10.23,0,0,1,1025.16,167.61Z" style="fill:#d7c280"/><path d="M1103.19,140a23.35,23.35,0,0,0-3.57-.8,26.8,26.8,0,0,0-4.22-.33,9.19,9.19,0,0,0-2.73.39,5.65,5.65,0,0,0-2.19,1.25,5.79,5.79,0,0,0-1.45,2.17,8.47,8.47,0,0,0-.53,3.2v5.6h13.63V158H1088.5v23.24h-8.41V158H1070v-6.5h10.09v-5.26a17,17,0,0,1,1.07-6.34,11.07,11.07,0,0,1,3-4.34,12.29,12.29,0,0,1,4.73-2.48,22.83,22.83,0,0,1,6.19-.79,31,31,0,0,1,4.29.29c1.35.2,2.61.43,3.77.71Z" style="fill:#b470d8"/><path d="M1141.78,163.61a23.24,23.24,0,0,1-1.16,7.51,16.61,16.61,0,0,1-3.35,5.82,14.85,14.85,0,0,1-5.37,3.76,18.54,18.54,0,0,1-7.24,1.34,19.83,19.83,0,0,1-6.91-1.13,13.38,13.38,0,0,1-5.16-3.37,15,15,0,0,1-3.25-5.6,24.82,24.82,0,0,1-1.12-7.85,22.64,22.64,0,0,1,1.18-7.52,16.21,16.21,0,0,1,3.38-5.77,14.86,14.86,0,0,1,5.38-3.71,18.56,18.56,0,0,1,7.18-1.32,19.46,19.46,0,0,1,6.94,1.15,13.34,13.34,0,0,1,5.16,3.4,14.86,14.86,0,0,1,3.23,5.59A24.36,24.36,0,0,1,1141.78,163.61Zm-8.68.21q0-5.4-2-8.12a7,7,0,0,0-6-2.72,7.59,7.59,0,0,0-3.73.86,7.27,7.27,0,0,0-2.53,2.34,10.55,10.55,0,0,0-1.45,3.47,18.49,18.49,0,0,0-.46,4.24q0,5.43,2.19,8.18a7.2,7.2,0,0,0,6,2.75,7.42,7.42,0,0,0,3.62-.83,6.82,6.82,0,0,0,2.5-2.33,11.42,11.42,0,0,0,1.43-3.5A18.68,18.68,0,0,0,1133.1,163.82Z" style="fill:#b470d8"/><path d="M1171.35,160a15.77,15.77,0,0,0-.19-3.31,6.58,6.58,0,0,0-.82-2.26,3.59,3.59,0,0,0-1.39-1.3,4.16,4.16,0,0,0-1.88-.41,6.31,6.31,0,0,0-3.81,1.52,22.12,22.12,0,0,0-4.32,5v22h-8.55V146.52H1158l.31,5.06a13.73,13.73,0,0,1,1.93-2.39,11.47,11.47,0,0,1,5.31-3,14.41,14.41,0,0,1,3.52-.41,11.28,11.28,0,0,1,4.67.91,8.93,8.93,0,0,1,3.42,2.68,12,12,0,0,1,2.05,4.46,23.2,23.2,0,0,1,.56,6.2Z" style="fill:#b470d8"/><path d="M1237.18,153h-9.81v-6.5h18.35v28.24h10v6.49h-29.57v-6.49h11Zm9.23-16a5.56,5.56,0,0,1-.41,2.12,5.4,5.4,0,0,1-1.15,1.73,5.59,5.59,0,0,1-1.73,1.16,5.43,5.43,0,0,1-2.15.43,5.6,5.6,0,0,1-2.17-.43,5.52,5.52,0,0,1-1.74-1.16,5.4,5.4,0,0,1-1.15-1.73,5.52,5.52,0,0,1,1.15-6,5.26,5.26,0,0,1,1.74-1.18,5.6,5.6,0,0,1,2.17-.43,5.43,5.43,0,0,1,2.15.43,5.32,5.32,0,0,1,1.73,1.18,5.44,5.44,0,0,1,1.56,3.86Z" style="fill:#acafbc"/><path d="M1314.15,153h-9.81v-6.5h18.35v28.24h10v6.49h-29.57v-6.49h11Zm9.23-16a5.56,5.56,0,0,1-.41,2.12,5.4,5.4,0,0,1-1.15,1.73,5.55,5.55,0,0,1-1.72,1.16,5.48,5.48,0,0,1-2.16.43,5.6,5.6,0,0,1-2.17-.43,5.52,5.52,0,0,1-1.74-1.16,5.4,5.4,0,0,1-1.15-1.73,5.52,5.52,0,0,1,1.15-6,5.26,5.26,0,0,1,1.74-1.18,5.6,5.6,0,0,1,2.17-.43,5.48,5.48,0,0,1,2.16.43,5.28,5.28,0,0,1,1.72,1.18,5.44,5.44,0,0,1,1.56,3.86Z" style="fill:#b470d8"/><path d="M1362.14,181.25V158.62c0-3.8-1.42-5.7-4.24-5.7a6.1,6.1,0,0,0-4.05,1.7,29.66,29.66,0,0,0-4.09,4.65v22h-8.34V146.52h7.22l.2,5.13a23.67,23.67,0,0,1,2.21-2.43,13.33,13.33,0,0,1,2.47-1.86,12.19,12.19,0,0,1,2.88-1.18,13.49,13.49,0,0,1,3.45-.41,11.52,11.52,0,0,1,4.65.87,9,9,0,0,1,3.31,2.46,10.51,10.51,0,0,1,2,3.83,17.31,17.31,0,0,1,.67,5v23.31Z" style="fill:#b470d8"/><path d="M1440.75,160a15.12,15.12,0,0,0-.19-3.31,6.38,6.38,0,0,0-.82-2.26,3.49,3.49,0,0,0-1.38-1.3,4.22,4.22,0,0,0-1.88-.41,6.31,6.31,0,0,0-3.81,1.52,22.37,22.37,0,0,0-4.33,5v22h-8.54V146.52h7.55l.31,5.06a13.73,13.73,0,0,1,1.93-2.39,12.13,12.13,0,0,1,2.39-1.83,11.59,11.59,0,0,1,2.93-1.18,14.35,14.35,0,0,1,3.52-.41,11.23,11.23,0,0,1,4.66.91,8.78,8.78,0,0,1,3.42,2.68,11.79,11.79,0,0,1,2,4.46,23.17,23.17,0,0,1,.57,6.2Z" style="fill:#a2c47d"/><path d="M1478.66,181.25l-.21-4.55a23,23,0,0,1-2.29,2.14,14.24,14.24,0,0,1-2.63,1.69,14,14,0,0,1-3.13,1.11,15.93,15.93,0,0,1-3.71.4,12.92,12.92,0,0,1-4.68-.79,9.33,9.33,0,0,1-3.38-2.19,9,9,0,0,1-2.07-3.38,13,13,0,0,1-.7-4.38,10.06,10.06,0,0,1,1-4.54,9.75,9.75,0,0,1,3.18-3.59,16.71,16.71,0,0,1,5.33-2.36,29.22,29.22,0,0,1,7.5-.85h4.55v-2.09a7.3,7.3,0,0,0-.38-2.41,4.29,4.29,0,0,0-1.21-1.83,5.68,5.68,0,0,0-2.17-1.16,11.4,11.4,0,0,0-3.28-.41,26.42,26.42,0,0,0-6.07.7,31.37,31.37,0,0,0-5.79,2v-6.67a32.85,32.85,0,0,1,5.76-1.64,34.81,34.81,0,0,1,6.78-.65,26,26,0,0,1,6.63.74,12,12,0,0,1,4.57,2.2,8.83,8.83,0,0,1,2.65,3.68,14.34,14.34,0,0,1,.85,5.14v23.72Zm-1.2-15.35h-5.09a13.64,13.64,0,0,0-3.59.41,6.9,6.9,0,0,0-2.39,1.13,4.32,4.32,0,0,0-1.35,1.66,4.7,4.7,0,0,0-.43,2,3.9,3.9,0,0,0,1.37,3.23,5.73,5.73,0,0,0,3.72,1.11,6.47,6.47,0,0,0,3.62-1.27,25.61,25.61,0,0,0,4.14-3.62Z" style="fill:#a2c47d"/><path d="M1516.08,181.25V158.62q0-5.7-4.24-5.7a6.1,6.1,0,0,0-4,1.7,30.18,30.18,0,0,0-4.08,4.65v22h-8.34V146.52h7.21l.21,5.13a23.61,23.61,0,0,1,2.2-2.43,13.07,13.07,0,0,1,2.48-1.86,12.29,12.29,0,0,1,2.87-1.18,13.6,13.6,0,0,1,3.45-.41,11.48,11.48,0,0,1,4.65.87,9,9,0,0,1,3.32,2.46,10.66,10.66,0,0,1,2,3.83,17.67,17.67,0,0,1,.66,5v23.31Z" style="fill:#a2c47d"/><path d="M1559.9,152.61a7.33,7.33,0,0,1,1.35,2.51,9.39,9.39,0,0,1,.39,2.68,12.33,12.33,0,0,1-1,5.13,10.39,10.39,0,0,1-2.84,3.73,12.48,12.48,0,0,1-4.38,2.27,19.43,19.43,0,0,1-5.62.77,14.71,14.71,0,0,1-3.35-.36,8.17,8.17,0,0,1-2.32-.84,6.36,6.36,0,0,0-1,1.28,3,3,0,0,0-.41,1.59,2.48,2.48,0,0,0,.27,1.1,2.93,2.93,0,0,0,.8,1,4.43,4.43,0,0,0,1.27.7,5.27,5.27,0,0,0,1.66.31l8.23.31a20.06,20.06,0,0,1,5,.7,12.33,12.33,0,0,1,3.85,1.79,8.19,8.19,0,0,1,2.47,2.82,7.9,7.9,0,0,1,.88,3.78,10,10,0,0,1-1.1,4.58,10.51,10.51,0,0,1-3.3,3.74,17.26,17.26,0,0,1-5.48,2.51,28.08,28.08,0,0,1-7.62.93,34.22,34.22,0,0,1-7.23-.67,16,16,0,0,1-5-1.86,7.87,7.87,0,0,1-2.85-2.86,7.3,7.3,0,0,1-.93-3.64,7.83,7.83,0,0,1,.31-2.22,7.6,7.6,0,0,1,.92-2,10.69,10.69,0,0,1,1.54-1.83,18.11,18.11,0,0,1,2.19-1.78,6.71,6.71,0,0,1-2.55-2.46,6.32,6.32,0,0,1-.87-3.21,7.32,7.32,0,0,1,.31-2.18,10.48,10.48,0,0,1,.8-1.93,13,13,0,0,1,1.15-1.77c.43-.57.89-1.13,1.36-1.68a10,10,0,0,1-2.94-7.55,12.2,12.2,0,0,1,1-5.18,10.79,10.79,0,0,1,2.89-3.83,12.61,12.61,0,0,1,4.39-2.36,18.52,18.52,0,0,1,5.55-.8,28.19,28.19,0,0,1,3,.15,13.67,13.67,0,0,1,2.58.53h12v6.09Zm-19.65,33.25a3.14,3.14,0,0,0,2,3,13.8,13.8,0,0,0,5.73.95,15.14,15.14,0,0,0,4-.44,8.7,8.7,0,0,0,2.65-1.16,4.31,4.31,0,0,0,1.47-1.68,4.72,4.72,0,0,0,.44-2,2.74,2.74,0,0,0-.42-1.55,3.36,3.36,0,0,0-1.2-1.06,6.42,6.42,0,0,0-1.81-.65,14.27,14.27,0,0,0-2.31-.29l-7.35-.14a12.87,12.87,0,0,0-1.62,1.3,6.13,6.13,0,0,0-1,1.21,3.78,3.78,0,0,0-.48,1.22A6.73,6.73,0,0,0,1540.25,185.86Zm1.4-27.85a5.94,5.94,0,0,0,1.62,4.39,6.12,6.12,0,0,0,4.53,1.62,6.51,6.51,0,0,0,2.68-.51,5.37,5.37,0,0,0,1.9-1.37,5.71,5.71,0,0,0,1.13-2,7.43,7.43,0,0,0,.38-2.36,5.64,5.64,0,0,0-6.16-6.15,6.54,6.54,0,0,0-2.68.51,5.38,5.38,0,0,0-1.9,1.39,5.82,5.82,0,0,0-1.12,2A7.63,7.63,0,0,0,1541.65,158Z" style="fill:#a2c47d"/><path d="M1602.59,161.22c0,.57,0,1.31,0,2.22s-.08,1.77-.15,2.57h-22.84a10.7,10.7,0,0,0,.71,4,7.8,7.8,0,0,0,2,2.92,8.54,8.54,0,0,0,3.07,1.8,12.28,12.28,0,0,0,4,.61,40.51,40.51,0,0,0,5.41-.39,42.77,42.77,0,0,0,6-1.28v6.63c-.89.25-1.86.48-2.9.68s-2.12.39-3.22.55-2.2.28-3.31.36-2.2.12-3.25.12a21,21,0,0,1-7.11-1.13,14.11,14.11,0,0,1-5.33-3.33,14.5,14.5,0,0,1-3.35-5.46,22.13,22.13,0,0,1-1.16-7.52,24,24,0,0,1,1.16-7.7,17.56,17.56,0,0,1,3.28-6,14.4,14.4,0,0,1,5.15-3.83,16.34,16.34,0,0,1,6.75-1.35,17.16,17.16,0,0,1,6.52,1.15,13.21,13.21,0,0,1,4.76,3.19,13.78,13.78,0,0,1,2.9,4.89A18.74,18.74,0,0,1,1602.59,161.22Zm-8.47-1.2a10,10,0,0,0-.52-3.57,7.11,7.11,0,0,0-1.48-2.51,6,6,0,0,0-2.19-1.47,7.41,7.41,0,0,0-2.68-.48,6.87,6.87,0,0,0-5.17,2.1,9.7,9.7,0,0,0-2.39,5.93Z" style="fill:#a2c47d"/><path d="M1632,195.61a50.13,50.13,0,0,1-12.46-15.11,37.39,37.39,0,0,1-4.15-17.37,38,38,0,0,1,4.69-18.52,44.25,44.25,0,0,1,5.34-7.64,60.3,60.3,0,0,1,6.78-6.68l4.75,4.75a42,42,0,0,0-10,12.92,33,33,0,0,0-3.35,14.59,34.68,34.68,0,0,0,3.35,14.92,40.41,40.41,0,0,0,10,13.08Z" style="fill:#7db2be"/><path d="M1649.76,181.25v-7.42h11.38V145.12l-9.91,5.47-2.73-6.8,14.18-7.49h7v37.53h9.81v7.42Z" style="fill:#d7c280"/><path d="M1719.73,158.73a37,37,0,0,1-1.2,9.84,21.17,21.17,0,0,1-3.5,7.33,15.2,15.2,0,0,1-5.63,4.56,18.74,18.74,0,0,1-14.39.28,13.58,13.58,0,0,1-5.36-4.09,19.94,19.94,0,0,1-3.52-7.12,37.22,37.22,0,0,1-1.27-10.39,36.62,36.62,0,0,1,1.22-9.85,21.17,21.17,0,0,1,3.5-7.33,15.19,15.19,0,0,1,5.64-4.56,18.86,18.86,0,0,1,14.39-.28,13.69,13.69,0,0,1,5.35,4.07,20.2,20.2,0,0,1,3.5,7.11A37.7,37.7,0,0,1,1719.73,158.73Zm-26.46.13v1.28a10.1,10.1,0,0,0,.07,1.22l16.75-12.1a11.13,11.13,0,0,0-3.16-5,7.09,7.09,0,0,0-4.64-1.62,6.82,6.82,0,0,0-3.55,1,8.5,8.5,0,0,0-2.86,3,17.78,17.78,0,0,0-1.91,5.06A32.31,32.31,0,0,0,1693.27,158.86Zm18,.14c0-.39,0-.78,0-1.18s0-.78,0-1.15l-16.65,12a10.3,10.3,0,0,0,3.08,4.92,7.11,7.11,0,0,0,4.61,1.6,6.88,6.88,0,0,0,3.58-1,8.61,8.61,0,0,0,2.87-3,16.89,16.89,0,0,0,1.89-5.06A32.89,32.89,0,0,0,1711.32,159Z" style="fill:#d7c280"/><path d="M1734.29,130.29a48.25,48.25,0,0,1,12.47,15.05,39.29,39.29,0,0,1,2.87,27.23,40.18,40.18,0,0,1-3.43,8.71,42.59,42.59,0,0,1-5.28,7.68,58.32,58.32,0,0,1-6.77,6.65l-4.79-4.76a41.43,41.43,0,0,0,10.05-12.95,33.27,33.27,0,0,0,3.35-14.63,34.72,34.72,0,0,0-3.35-14.9,40.41,40.41,0,0,0-10.05-13.13Z" style="fill:#7db2be"/><path d="M1769.05,194.82v-6.49h10.22V137.91h-10.22v-6.49H1787v63.4Z" style="fill:#c46d76"/><rect x="1068.32" y="227.69" width="672" height="17" style="fill:#009245"/><path d="M1256.82,303h2V314.3h-4.32l-.78-7h-12.91l-.77,7h-4.33V303h1.68a6.77,6.77,0,0,0,1.45-2,13.34,13.34,0,0,0,.94-3.3,56.61,56.61,0,0,0,.66-5.77l.56-7.25h15.85Zm-5.37-14.28H1246l-.21,2.93a54.13,54.13,0,0,1-.72,5.93,10.75,10.75,0,0,1-1.1,3.3A7.06,7.06,0,0,1,1242,303h9.44Z" style="fill:#009245"/><path d="M1282.48,284.67v22.59h-5.64V288.93h-6.08l-.28,3.89a47.45,47.45,0,0,1-1,8,10.36,10.36,0,0,1-2,4.35,12.39,12.39,0,0,1-3.87,2.86l-2.34-3.59a7.1,7.1,0,0,0,1.87-1.83,9.66,9.66,0,0,0,1.18-3.2,52,52,0,0,0,.83-6.34l.62-8.36Z" style="fill:#009245"/><path d="M1307.34,284.67v22.59h-5.63v-8.19h-4.31l-4.48,8.19h-6l5.48-9.41a7.12,7.12,0,0,1-2.9-2.41,6.1,6.1,0,0,1-1-3.5,6.59,6.59,0,0,1,1.14-3.87,7.19,7.19,0,0,1,3.42-2.52,15.62,15.62,0,0,1,5.61-.88Zm-5.63,10.75v-7h-3.16a5,5,0,0,0-3.24.85,3.07,3.07,0,0,0-1,2.55,3.35,3.35,0,0,0,1,2.7,5,5,0,0,0,3.28.88Z" style="fill:#009245"/><path d="M1345.4,307.26h-5.64V284.67h5.64v8.81h3.6l5.47-8.81h5.65l-6.72,10.47,7.53,12.12h-6.14l-5.94-9.85h-3.45Z" style="fill:#009245"/><path d="M1382.94,301.31a3.67,3.67,0,0,0,.37,1.87,2.25,2.25,0,0,0,1.25.9l-1.22,3.78a7.65,7.65,0,0,1-3.12-.93,4.75,4.75,0,0,1-1.91-2.12,7.82,7.82,0,0,1-3.18,2.3,10.86,10.86,0,0,1-4.14.79,8.51,8.51,0,0,1-4-.88,6.32,6.32,0,0,1-2.63-2.49,7.32,7.32,0,0,1-.91-3.69,6.65,6.65,0,0,1,1.26-4.08,7.68,7.68,0,0,1,3.69-2.56,17.54,17.54,0,0,1,5.89-.87h3.15v-1.22a3.4,3.4,0,0,0-1.21-2.89,5.85,5.85,0,0,0-3.59-.93,16,16,0,0,0-2.79.31,25,25,0,0,0-3.29.87l-1.34-3.86a25,25,0,0,1,4.25-1.18,22.47,22.47,0,0,1,4.07-.4q4.67,0,7,2a7.12,7.12,0,0,1,2.35,5.73Zm-7.5,1.78a5.37,5.37,0,0,0,2-2v-4.4h-2.22a8.17,8.17,0,0,0-4.5,1,3.25,3.25,0,0,0-1.43,2.87,3.19,3.19,0,0,0,.9,2.45,3.62,3.62,0,0,0,2.6.86A5.26,5.26,0,0,0,1375.44,303.09Z" style="fill:#009245"/><path d="M1401.63,307.26h-4.09V297.13H1396l-3.9,10.13h-5.15l5.21-12.12-5-10.47h5.08l3.69,9h1.6v-9h4.09v9h1.6l3.85-9H1412l-4.92,10.47,5.2,12.12h-5.14l-4-10.13h-1.52Z" style="fill:#009245"/><path d="M1434,303h2V314.3h-4.31l-.79-7H1418l-.76,7h-4.34V303h1.69a6.77,6.77,0,0,0,1.45-2,13.79,13.79,0,0,0,.94-3.3,56.61,56.61,0,0,0,.66-5.77l.56-7.25H1434Zm-5.38-14.28h-5.46l-.21,2.93a54.13,54.13,0,0,1-.72,5.93,11,11,0,0,1-1.11,3.3,6.89,6.89,0,0,1-1.93,2.12h9.43Z" style="fill:#009245"/><path d="M1455.93,285.49a9.15,9.15,0,0,1,3.59,4.14,14.91,14.91,0,0,1,1.23,6.28,15.08,15.08,0,0,1-1.24,6.37,9.25,9.25,0,0,1-3.61,4.16,10.61,10.61,0,0,1-5.69,1.46,10.77,10.77,0,0,1-5.7-1.43,9.08,9.08,0,0,1-3.6-4.12,15.1,15.1,0,0,1-1.24-6.4,14.76,14.76,0,0,1,1.25-6.24,9.53,9.53,0,0,1,3.63-4.19,10.41,10.41,0,0,1,5.68-1.49A10.6,10.6,0,0,1,1455.93,285.49Zm-9.24,4.65a11.34,11.34,0,0,0-1.15,5.81q0,4,1.15,5.85a4.25,4.25,0,0,0,7,0c.77-1.25,1.15-3.2,1.15-5.88a11.24,11.24,0,0,0-1.15-5.77,3.84,3.84,0,0,0-3.5-1.87A3.89,3.89,0,0,0,1446.69,290.14Z" style="fill:#009245"/><path d="M1474.09,289.08v18.18h-5.63V284.67h17l-.64,4.41Z" style="fill:#009245"/><path d="M1506.55,285.49a9.23,9.23,0,0,1,3.6,4.14,14.91,14.91,0,0,1,1.23,6.28,15.24,15.24,0,0,1-1.24,6.37,9.27,9.27,0,0,1-3.62,4.16,10.58,10.58,0,0,1-5.68,1.46,10.77,10.77,0,0,1-5.7-1.43,9.1,9.1,0,0,1-3.61-4.12,15.25,15.25,0,0,1-1.24-6.4,14.76,14.76,0,0,1,1.25-6.24,9.59,9.59,0,0,1,3.63-4.19,10.45,10.45,0,0,1,5.69-1.49A10.56,10.56,0,0,1,1506.55,285.49Zm-9.23,4.65a11.32,11.32,0,0,0-1.16,5.81q0,4,1.16,5.85a4.25,4.25,0,0,0,7,0c.77-1.25,1.15-3.2,1.15-5.88a11.24,11.24,0,0,0-1.15-5.77,4.25,4.25,0,0,0-7,0Z" style="fill:#009245"/><path d="M1543.05,284.67h12v18.6h6v4h-18.2v-4h6.62V288.66h-6.41Zm10.2-11a3.14,3.14,0,0,1,1.24,1.21,3.36,3.36,0,0,1-1.24,4.63,3.67,3.67,0,0,1-1.81.44,3.74,3.74,0,0,1-1.82-.44,3.26,3.26,0,0,1-1.25-1.22,3.46,3.46,0,0,1,0-3.41,3.1,3.1,0,0,1,1.25-1.21,3.74,3.74,0,0,1,1.82-.44A3.67,3.67,0,0,1,1553.25,273.71Z" style="fill:#009245"/><path d="M1181,346.6a5.09,5.09,0,0,1,1.46,3.83,5.54,5.54,0,0,1-2.79,5.11,14.27,14.27,0,0,1-7.3,1.65h-9.5V334.85c1.6-.3,3.09-.52,4.47-.67a39.94,39.94,0,0,1,4.28-.22,17.07,17.07,0,0,1,5.1.68,7.36,7.36,0,0,1,3.41,2,4.63,4.63,0,0,1,1.22,3.26q0,3.7-4.65,4.91A7.19,7.19,0,0,1,1181,346.6Zm-12.49-8.66v5.62h3.47a4.9,4.9,0,0,0,2.87-.7,2.5,2.5,0,0,0,1-2.21,2.46,2.46,0,0,0-1.06-2.19,5.85,5.85,0,0,0-3.21-.71A24.08,24.08,0,0,0,1168.47,337.94Zm3.69,15.35a5.93,5.93,0,0,0,3.39-.79,3.15,3.15,0,0,0-.08-4.87,5.69,5.69,0,0,0-3.18-.79h-3.82v6.45Z" style="fill:#009245"/><path d="M1231.77,357.19h-5.62V338.86h-7.51v18.33H1213v-22.6h18.74Z" style="fill:#009245"/><path d="M1253.43,335.42a9.15,9.15,0,0,1,3.59,4.14,14.91,14.91,0,0,1,1.23,6.28,15.08,15.08,0,0,1-1.24,6.37,9.25,9.25,0,0,1-3.61,4.16,10.7,10.7,0,0,1-5.69,1.46,10.86,10.86,0,0,1-5.7-1.43,9.08,9.08,0,0,1-3.6-4.12,15.1,15.1,0,0,1-1.24-6.4,14.76,14.76,0,0,1,1.25-6.24,9.48,9.48,0,0,1,3.63-4.19,10.41,10.41,0,0,1,5.68-1.49A10.6,10.6,0,0,1,1253.43,335.42Zm-9.24,4.65a11.34,11.34,0,0,0-1.15,5.81q0,4,1.15,5.85a4.27,4.27,0,0,0,7,0q1.15-1.87,1.15-5.88a11.24,11.24,0,0,0-1.15-5.77,3.82,3.82,0,0,0-3.5-1.87A3.87,3.87,0,0,0,1244.19,340.07Z" style="fill:#009245"/><path d="M1277.73,352.79a12.58,12.58,0,0,0,2.63-1.45l2.56,3.61a11.63,11.63,0,0,1-3.67,2.1,12.88,12.88,0,0,1-4.46.78,11.88,11.88,0,0,1-6-1.47,9.71,9.71,0,0,1-3.91-4.14,13.53,13.53,0,0,1-1.35-6.19,13.7,13.7,0,0,1,1.37-6.24,10.26,10.26,0,0,1,4-4.29,11.57,11.57,0,0,1,6.06-1.54,13.16,13.16,0,0,1,4.38.68,11.31,11.31,0,0,1,3.64,2.07l-2.49,3.45a9.45,9.45,0,0,0-5.36-1.79,5,5,0,0,0-4.13,1.88q-1.5,1.88-1.5,5.78t1.5,5.55a5.17,5.17,0,0,0,4.11,1.73A7.09,7.09,0,0,0,1277.73,352.79Z" style="fill:#009245"/><path d="M1307.79,334.59v22.6h-5.63V338.86h-6.09l-.27,3.89a48,48,0,0,1-1,7.95,10.35,10.35,0,0,1-2,4.36,12.57,12.57,0,0,1-3.88,2.86l-2.34-3.59a7.3,7.3,0,0,0,1.88-1.83,9.91,9.91,0,0,0,1.17-3.2,50,50,0,0,0,.83-6.34l.62-8.37Z" style="fill:#009245"/><path d="M1319.08,347.61a6.71,6.71,0,0,0,1.8,4.52,5.63,5.63,0,0,0,4,1.48,9.26,9.26,0,0,0,3-.49,12.87,12.87,0,0,0,2.89-1.46l2.34,3.23a12.19,12.19,0,0,1-3.84,2.16,14,14,0,0,1-4.74.78,11.92,11.92,0,0,1-6.13-1.49,9.54,9.54,0,0,1-3.82-4.18,15.53,15.53,0,0,1,0-12.35,10.62,10.62,0,0,1,14.69-4.49,9,9,0,0,1,3.52,3.94,13.88,13.88,0,0,1,1.24,6.11,22,22,0,0,1-.11,2.24Zm1.44-8.18A7.73,7.73,0,0,0,1319,344h9.52a7.77,7.77,0,0,0-1.21-4.5,4,4,0,0,0-3.4-1.58A4.26,4.26,0,0,0,1320.52,339.43Z" style="fill:#009245"/><path d="M1358.07,352.94h2v11.29h-4.32l-.78-7H1342l-.77,7h-4.33V352.94h1.68a6.6,6.6,0,0,0,1.45-2,13.34,13.34,0,0,0,.94-3.3,56.61,56.61,0,0,0,.66-5.77l.56-7.26h15.85Zm-5.37-14.27h-5.47l-.21,2.92a54.05,54.05,0,0,1-.72,5.94,10.75,10.75,0,0,1-1.1,3.3,7,7,0,0,1-1.94,2.11h9.44Z" style="fill:#009245"/><path d="M1380,335.42a9.23,9.23,0,0,1,3.6,4.14,15.07,15.07,0,0,1,1.22,6.28,15.24,15.24,0,0,1-1.23,6.37,9.33,9.33,0,0,1-3.62,4.16,10.7,10.7,0,0,1-5.69,1.46,10.83,10.83,0,0,1-5.69-1.43,9,9,0,0,1-3.61-4.12,15.25,15.25,0,0,1-1.24-6.4,14.76,14.76,0,0,1,1.25-6.24,9.48,9.48,0,0,1,3.63-4.19,10.41,10.41,0,0,1,5.68-1.49A10.6,10.6,0,0,1,1380,335.42Zm-9.24,4.65a11.34,11.34,0,0,0-1.15,5.81q0,4,1.15,5.85a4.27,4.27,0,0,0,7,0,11.54,11.54,0,0,0,1.16-5.88,11.23,11.23,0,0,0-1.16-5.77,3.81,3.81,0,0,0-3.5-1.87A3.87,3.87,0,0,0,1370.75,340.07Z" style="fill:#009245"/><path d="M1408.77,346.6a5.06,5.06,0,0,1,1.46,3.83,5.54,5.54,0,0,1-2.79,5.11,14.27,14.27,0,0,1-7.3,1.65h-9.49V334.85c1.59-.3,3.08-.52,4.47-.67a39.61,39.61,0,0,1,4.27-.22,17,17,0,0,1,5.1.68,7.39,7.39,0,0,1,3.42,2,4.67,4.67,0,0,1,1.21,3.26q0,3.7-4.65,4.91A7.16,7.16,0,0,1,1408.77,346.6Zm-12.49-8.66v5.62h3.48a5,5,0,0,0,2.87-.7,2.5,2.5,0,0,0,1-2.21,2.44,2.44,0,0,0-1.06-2.19,5.83,5.83,0,0,0-3.21-.71A24.19,24.19,0,0,0,1396.28,337.94Zm3.69,15.35a5.93,5.93,0,0,0,3.39-.79,3.16,3.16,0,0,0-.07-4.87,5.75,5.75,0,0,0-3.19-.79h-3.82v6.45Z" style="fill:#009245"/><path d="M1433.56,351.24a3.71,3.71,0,0,0,.37,1.86,2.25,2.25,0,0,0,1.25.91l-1.21,3.78a7.65,7.65,0,0,1-3.13-.93,4.81,4.81,0,0,1-1.91-2.12,7.69,7.69,0,0,1-3.18,2.3,10.78,10.78,0,0,1-4.14.79,8.51,8.51,0,0,1-4-.88,6.3,6.3,0,0,1-2.62-2.49,7.32,7.32,0,0,1-.92-3.69,6.65,6.65,0,0,1,1.26-4.08,7.78,7.78,0,0,1,3.69-2.56,17.59,17.59,0,0,1,5.89-.87h3.16V342a3.41,3.41,0,0,0-1.22-2.89,5.82,5.82,0,0,0-3.58-.93,16.17,16.17,0,0,0-2.8.31,24.85,24.85,0,0,0-3.28.87l-1.35-3.87a25.8,25.8,0,0,1,4.26-1.17,22.37,22.37,0,0,1,4.06-.4q4.68,0,7,2a7.09,7.09,0,0,1,2.35,5.73Zm-7.5,1.78a5.42,5.42,0,0,0,2-2v-4.39h-2.22a8.13,8.13,0,0,0-4.5,1,3.69,3.69,0,0,0-.54,5.32,3.65,3.65,0,0,0,2.61.86A5.23,5.23,0,0,0,1426.06,353Z" style="fill:#009245"/><path d="M1439.56,334.59h21.55l-.68,4.29H1453v18.31h-5.64V338.88h-7.83Z" style="fill:#009245"/><path d="M1471,347.61a6.61,6.61,0,0,0,1.8,4.52,5.62,5.62,0,0,0,4,1.48,9.32,9.32,0,0,0,3-.49,13,13,0,0,0,2.88-1.46l2.35,3.23a12.42,12.42,0,0,1-3.84,2.16,14.11,14.11,0,0,1-4.74.78,11.9,11.9,0,0,1-6.13-1.49,9.54,9.54,0,0,1-3.82-4.18,15.48,15.48,0,0,1,0-12.35,10.62,10.62,0,0,1,14.69-4.49,9,9,0,0,1,3.53,3.94,14,14,0,0,1,1.23,6.11,22.1,22.1,0,0,1-.1,2.24Zm1.44-8.18a7.8,7.8,0,0,0-1.51,4.57h9.52a7.69,7.69,0,0,0-1.21-4.5,4,4,0,0,0-3.4-1.58A4.24,4.24,0,0,0,1472.4,339.43Z" style="fill:#009245"/><path d="M1510.29,334.59v22.6h-5.63V338.86h-6.09l-.27,3.89a48,48,0,0,1-1,7.95,10.35,10.35,0,0,1-2,4.36,12.57,12.57,0,0,1-3.88,2.86l-2.34-3.59a7.3,7.3,0,0,0,1.88-1.83,9.91,9.91,0,0,0,1.17-3.2,50,50,0,0,0,.83-6.34l.62-8.37Z" style="fill:#009245"/><path d="M1523.31,334.59v6.88h3.07c3.54,0,6.16.65,7.84,2a6.93,6.93,0,0,1,2.53,5.84q0,4.17-2.74,6a12.65,12.65,0,0,1-7.26,1.88h-9.07v-22.6Zm0,10.76v7.81h3.41a4.62,4.62,0,0,0,3.11-.91,3.83,3.83,0,0,0,1.05-3,3.77,3.77,0,0,0-1-2.94,5.1,5.1,0,0,0-3.46-.92Z" style="fill:#009245"/><path d="M1560.83,357.19h-5.64v-9.37h-7.46v9.37h-5.64v-22.6h5.64v9h7.46v-9h5.64Z" style="fill:#009245"/><path d="M1582.49,335.42a9.23,9.23,0,0,1,3.6,4.14,15.07,15.07,0,0,1,1.22,6.28,15.24,15.24,0,0,1-1.23,6.37,9.33,9.33,0,0,1-3.62,4.16,11.93,11.93,0,0,1-11.38,0,9,9,0,0,1-3.61-4.12,15.1,15.1,0,0,1-1.24-6.4,14.76,14.76,0,0,1,1.25-6.24,9.48,9.48,0,0,1,3.63-4.19,10.41,10.41,0,0,1,5.68-1.49A10.6,10.6,0,0,1,1582.49,335.42Zm-9.24,4.65a11.34,11.34,0,0,0-1.15,5.81q0,4,1.15,5.85a4.27,4.27,0,0,0,7,0,11.54,11.54,0,0,0,1.16-5.88,11.23,11.23,0,0,0-1.16-5.77,3.81,3.81,0,0,0-3.5-1.87A3.87,3.87,0,0,0,1573.25,340.07Z" style="fill:#009245"/><path d="M1606.79,352.79a12.89,12.89,0,0,0,2.64-1.45L1612,355a11.86,11.86,0,0,1-3.67,2.1,12.92,12.92,0,0,1-4.46.78,11.89,11.89,0,0,1-6-1.47,9.83,9.83,0,0,1-3.91-4.14,13.53,13.53,0,0,1-1.35-6.19,13.83,13.83,0,0,1,1.37-6.24,10.26,10.26,0,0,1,4-4.29,11.57,11.57,0,0,1,6.06-1.54,13.26,13.26,0,0,1,4.39.68,11.27,11.27,0,0,1,3.63,2.07l-2.49,3.45a9.45,9.45,0,0,0-5.36-1.79,5,5,0,0,0-4.13,1.88q-1.5,1.88-1.5,5.78t1.5,5.55a5.19,5.19,0,0,0,4.11,1.73A7.09,7.09,0,0,0,1606.79,352.79Z" style="fill:#009245"/><path d="M1616.75,334.59h21.55l-.68,4.29h-7.41v18.31h-5.63V338.88h-7.83Z" style="fill:#009245"/><path d="M1662.08,334.59v22.6h-5.4v-8.36a46.76,46.76,0,0,1,.24-4.83,36.94,36.94,0,0,1,.66-4.13l-8.18,17.32h-6.06v-22.6h5.4V343a47,47,0,0,1-.24,4.77,32,32,0,0,1-.68,4.13l8.15-17.33Z" style="fill:#009245"/><rect x="228.32" y="227.69" width="607" height="17" style="fill:#c184ae"/><rect x="26.32" y="265.69" width="619" height="17" style="fill:#29abe2"/><rect x="688.32" y="265.69" width="338" height="17" style="fill:#f7931e"/><path d="M142.85,353h2V364.3h-4.31l-.79-7H126.81l-.77,7h-4.33V353h1.68a6.77,6.77,0,0,0,1.45-2,13.34,13.34,0,0,0,.94-3.3,56.61,56.61,0,0,0,.66-5.77l.56-7.25h15.85Zm-5.37-14.28H132l-.21,2.93a54.13,54.13,0,0,1-.72,5.93,10.75,10.75,0,0,1-1.1,3.3A7.06,7.06,0,0,1,128,353h9.44Z" style="fill:#29abe2"/><path d="M154.49,347.68a6.69,6.69,0,0,0,1.8,4.53,5.66,5.66,0,0,0,4,1.47,9.32,9.32,0,0,0,3-.49,13,13,0,0,0,2.88-1.45l2.35,3.22a12.42,12.42,0,0,1-3.84,2.16,14.11,14.11,0,0,1-4.74.78,11.9,11.9,0,0,1-6.13-1.49,9.54,9.54,0,0,1-3.82-4.18,15.53,15.53,0,0,1,0-12.35,9.84,9.84,0,0,1,9.33-5.85,10.27,10.27,0,0,1,5.36,1.36,9.08,9.08,0,0,1,3.52,3.94,14,14,0,0,1,1.23,6.11,22.1,22.1,0,0,1-.1,2.24Zm1.44-8.18a7.81,7.81,0,0,0-1.51,4.58h9.52a7.78,7.78,0,0,0-1.2-4.51,4,4,0,0,0-3.41-1.57A4.26,4.26,0,0,0,155.93,339.5Z" style="fill:#29abe2"/><path d="M193.82,334.67v22.59h-5.63V338.93h-6.08l-.28,3.89a49.66,49.66,0,0,1-1,8,10.49,10.49,0,0,1-2,4.35,12.64,12.64,0,0,1-3.87,2.86l-2.35-3.59a7.15,7.15,0,0,0,1.88-1.83,9.91,9.91,0,0,0,1.17-3.2,50,50,0,0,0,.83-6.34l.62-8.36Z" style="fill:#29abe2"/><path d="M218.34,351.31a3.66,3.66,0,0,0,.38,1.87,2.22,2.22,0,0,0,1.24.9l-1.21,3.78a7.7,7.7,0,0,1-3.13-.93,4.81,4.81,0,0,1-1.91-2.12,7.69,7.69,0,0,1-3.18,2.3,10.78,10.78,0,0,1-4.14.79,8.54,8.54,0,0,1-4-.88,6.3,6.3,0,0,1-2.62-2.49,7.32,7.32,0,0,1-.92-3.69,6.65,6.65,0,0,1,1.26-4.08,7.78,7.78,0,0,1,3.69-2.56,17.63,17.63,0,0,1,5.89-.87h3.16v-1.22a3.41,3.41,0,0,0-1.22-2.89,5.82,5.82,0,0,0-3.58-.93,16.17,16.17,0,0,0-2.8.31,24.85,24.85,0,0,0-3.28.87l-1.35-3.86a24.88,24.88,0,0,1,4.26-1.18A22.39,22.39,0,0,1,209,334q4.67,0,7,2a7.11,7.11,0,0,1,2.34,5.73Zm-7.5,1.78a5.47,5.47,0,0,0,2-2v-4.4h-2.22a8.13,8.13,0,0,0-4.5,1,3.25,3.25,0,0,0-1.43,2.87,3.19,3.19,0,0,0,.9,2.45,3.61,3.61,0,0,0,2.6.86A5.23,5.23,0,0,0,210.84,353.09Z" style="fill:#29abe2"/><path d="M230.43,347.68a6.64,6.64,0,0,0,1.8,4.53,5.64,5.64,0,0,0,4,1.47,9.32,9.32,0,0,0,3-.49,13,13,0,0,0,2.88-1.45l2.35,3.22a12.42,12.42,0,0,1-3.84,2.16,14.11,14.11,0,0,1-4.74.78,11.93,11.93,0,0,1-6.14-1.49,9.6,9.6,0,0,1-3.82-4.18,14.27,14.27,0,0,1-1.29-6.23,14.44,14.44,0,0,1,1.27-6.12,10.62,10.62,0,0,1,14.69-4.49,9,9,0,0,1,3.52,3.94,13.88,13.88,0,0,1,1.24,6.11,19.41,19.41,0,0,1-.11,2.24Zm1.44-8.18a7.67,7.67,0,0,0-1.51,4.58h9.52a7.71,7.71,0,0,0-1.21-4.51,4,4,0,0,0-3.4-1.57A4.26,4.26,0,0,0,231.87,339.5Z" style="fill:#29abe2"/><path d="M270.33,334.67l1.58,22.59h-5.1l-.51-8.87c-.09-1.44-.13-2.91-.13-4.4,0-1.31,0-2.67.13-4.1h-.17l-3.59,13.72h-4.41l-3.88-13.72h-.18c.12,1.19.18,2.53.18,4,0,1-.05,2.54-.13,4.58l-.41,8.75h-5l1.53-22.59h6.38l3.8,14.44,3.39-14.44Z" style="fill:#29abe2"/><path d="M287.78,349.65a4,4,0,0,1,1.52,1.51,4.27,4.27,0,0,1,.54,2.13,6.89,6.89,0,0,1-.33,2.08,30.45,30.45,0,0,1-1.14,2.92l-3.22,7.29h-4.06l2.14-8.83a3.85,3.85,0,0,1-1.33-1.47,4.38,4.38,0,0,1-.47-2,4.23,4.23,0,0,1,.55-2.11,4,4,0,0,1,1.5-1.51,4.19,4.19,0,0,1,2.14-.56A4.29,4.29,0,0,1,287.78,349.65Z" style="fill:#29abe2"/><path d="M331.68,347.68a6.64,6.64,0,0,0,1.8,4.53,5.64,5.64,0,0,0,4,1.47,9.32,9.32,0,0,0,3-.49,13,13,0,0,0,2.88-1.45l2.35,3.22a12.42,12.42,0,0,1-3.84,2.16,14.11,14.11,0,0,1-4.74.78,11.93,11.93,0,0,1-6.14-1.49,9.6,9.6,0,0,1-3.82-4.18,14.27,14.27,0,0,1-1.29-6.23,14.44,14.44,0,0,1,1.27-6.12,10.62,10.62,0,0,1,14.69-4.49,9,9,0,0,1,3.52,3.94,13.88,13.88,0,0,1,1.24,6.11,19.41,19.41,0,0,1-.11,2.24Zm1.44-8.18a7.67,7.67,0,0,0-1.51,4.58h9.52a7.71,7.71,0,0,0-1.21-4.51,4,4,0,0,0-3.4-1.57A4.26,4.26,0,0,0,333.12,339.5Z" style="fill:#29abe2"/><path d="M366.26,352.87a13.05,13.05,0,0,0,2.63-1.45l2.57,3.6a11.86,11.86,0,0,1-3.67,2.1,12.92,12.92,0,0,1-4.46.78,11.89,11.89,0,0,1-6.05-1.47,9.77,9.77,0,0,1-3.91-4.14A13.53,13.53,0,0,1,352,346.1a13.83,13.83,0,0,1,1.37-6.24,10.32,10.32,0,0,1,4-4.29,11.57,11.57,0,0,1,6.06-1.54,13.16,13.16,0,0,1,4.38.68,11.5,11.5,0,0,1,3.64,2.07l-2.49,3.46a9.39,9.39,0,0,0-5.36-1.8,5,5,0,0,0-4.13,1.88q-1.5,1.88-1.5,5.78t1.5,5.55a5.18,5.18,0,0,0,4.11,1.73A7.28,7.28,0,0,0,366.26,352.87Z" style="fill:#29abe2"/><path d="M396.32,334.67v22.59h-5.63V338.93h-6.08l-.28,3.89a49.66,49.66,0,0,1-1,8,10.49,10.49,0,0,1-2,4.35,12.64,12.64,0,0,1-3.87,2.86l-2.35-3.59a7.15,7.15,0,0,0,1.88-1.83,9.91,9.91,0,0,0,1.17-3.2A50,50,0,0,0,379,343l.62-8.36Z" style="fill:#29abe2"/><path d="M421.55,334.67v22.59h-5.4V348.9a46.42,46.42,0,0,1,.24-4.82,39.36,39.36,0,0,1,.65-4.14l-8.17,17.32h-6.06V334.67h5.4v8.42a44.28,44.28,0,0,1-.25,4.77,30.23,30.23,0,0,1-.67,4.13l8.15-17.32Z" style="fill:#29abe2"/><path d="M473.94,332.34h-8.28v24.92h-5.82V332.34h-8.62v-4.59h23.32Z" style="fill:#29abe2"/><path d="M497.17,334.21a10.22,10.22,0,0,1,1.68.46l-1,8.81h-3.76v-4.42a5.57,5.57,0,0,0-3.76,1.94,12.46,12.46,0,0,0-2.55,4.8v7.56h4.5v3.9H479v-3.9h3.18V338.55H479v-3.88h7.47l1.05,5.18a10.58,10.58,0,0,1,3.14-4.36,7.51,7.51,0,0,1,4.69-1.44A9.69,9.69,0,0,1,497.17,334.21Z" style="fill:#29abe2"/><path d="M509.7,350.33a3.75,3.75,0,0,0,.7,2.56,2.76,2.76,0,0,0,2.13.77,4.85,4.85,0,0,0,2.57-.79,6.31,6.31,0,0,0,2.06-2.05V334.67h5.64v22.59h-4.91l-.3-2.77a8,8,0,0,1-3.07,2.53,9.2,9.2,0,0,1-4,.88,6.21,6.21,0,0,1-4.86-1.81,7.36,7.36,0,0,1-1.63-5.08V334.67h5.64Z" style="fill:#29abe2"/><path d="M534.17,347.68a6.69,6.69,0,0,0,1.81,4.53,5.62,5.62,0,0,0,4,1.47,9.37,9.37,0,0,0,3-.49,13,13,0,0,0,2.88-1.45l2.34,3.22a12.19,12.19,0,0,1-3.84,2.16,14,14,0,0,1-4.73.78,11.93,11.93,0,0,1-6.14-1.49,9.6,9.6,0,0,1-3.82-4.18,14.27,14.27,0,0,1-1.29-6.23,14.44,14.44,0,0,1,1.27-6.12,10.62,10.62,0,0,1,14.69-4.49,9,9,0,0,1,3.52,3.94,13.88,13.88,0,0,1,1.24,6.11,19.41,19.41,0,0,1-.11,2.24Zm1.45-8.18a7.67,7.67,0,0,0-1.51,4.58h9.52a7.71,7.71,0,0,0-1.21-4.51A4,4,0,0,0,539,338,4.26,4.26,0,0,0,535.62,339.5Z" style="fill:#29abe2"/><rect x="26.32" y="227.69" width="148" height="17" style="fill:#ed1e79"/><rect x="878.32" y="227.69" width="148" height="17" style="fill:#ed1e79"/><path d="M730,334.59v22.6h-5.4v-8.36a46.76,46.76,0,0,1,.24-4.83,37.52,37.52,0,0,1,.66-4.14l-8.18,17.33h-6.06v-22.6h5.4V343a47,47,0,0,1-.24,4.77,32,32,0,0,1-.68,4.13l8.16-17.33Z" style="fill:#f7931e"/><path d="M755.3,357.19h-5.63v-9.37H742.2v9.37h-5.63v-22.6h5.63v9h7.47v-9h5.63Z" style="fill:#f7931e"/><path d="M779.91,351.24a3.6,3.6,0,0,0,.37,1.86,2.25,2.25,0,0,0,1.25.91l-1.22,3.78a7.65,7.65,0,0,1-3.12-.93,4.81,4.81,0,0,1-1.91-2.12,7.92,7.92,0,0,1-3.18,2.3,10.86,10.86,0,0,1-4.14.79,8.39,8.39,0,0,1-4-.89,6.22,6.22,0,0,1-2.62-2.48,7.32,7.32,0,0,1-.92-3.69,6.63,6.63,0,0,1,1.26-4.08,7.78,7.78,0,0,1,3.69-2.56,17.54,17.54,0,0,1,5.89-.87h3.16V342a3.41,3.41,0,0,0-1.22-2.89,5.84,5.84,0,0,0-3.58-.93,16.17,16.17,0,0,0-2.8.31,25,25,0,0,0-3.29.87l-1.34-3.87a25.8,25.8,0,0,1,4.26-1.17,22.43,22.43,0,0,1,4.06-.41q4.68,0,7,2a7.09,7.09,0,0,1,2.35,5.73Zm-7.5,1.78a5.42,5.42,0,0,0,2-2v-4.39h-2.22a8.13,8.13,0,0,0-4.5,1,3.69,3.69,0,0,0-.54,5.32,3.64,3.64,0,0,0,2.6.85A5.22,5.22,0,0,0,772.41,353Z" style="fill:#f7931e"/><path d="M805.65,334.59v22.6H800v-8.81a9.53,9.53,0,0,1-3,1.64,11.25,11.25,0,0,1-3.72.6,7,7,0,0,1-5.17-1.82,6.87,6.87,0,0,1-1.79-5.05v-9.16H792V343a3.45,3.45,0,0,0,.82,2.56,3.37,3.37,0,0,0,2.43.79,7.14,7.14,0,0,0,2.59-.51,6.81,6.81,0,0,0,2.19-1.34v-10Z" style="fill:#f7931e"/><path d="M817.3,347.61a6.66,6.66,0,0,0,1.81,4.52,5.59,5.59,0,0,0,4,1.48,9.37,9.37,0,0,0,3-.49,13,13,0,0,0,2.88-1.46l2.34,3.23a12.19,12.19,0,0,1-3.84,2.16,14,14,0,0,1-4.73.78,11.93,11.93,0,0,1-6.14-1.49,9.57,9.57,0,0,1-3.82-4.19,14.21,14.21,0,0,1-1.29-6.23,14.39,14.39,0,0,1,1.27-6.11,10.59,10.59,0,0,1,14.69-4.49,9,9,0,0,1,3.52,3.94,13.88,13.88,0,0,1,1.24,6.11,19.41,19.41,0,0,1-.11,2.24Zm1.45-8.18a7.67,7.67,0,0,0-1.51,4.57h9.52a7.67,7.67,0,0,0-1.21-4.5,4,4,0,0,0-3.4-1.58A4.24,4.24,0,0,0,818.75,339.43Z" style="fill:#f7931e"/><path d="M881.61,352.94h2v11.29h-4.31l-.79-7H865.56l-.77,7h-4.33V352.94h1.69a6.6,6.6,0,0,0,1.45-2,13.93,13.93,0,0,0,.94-3.3c.25-1.41.47-3.34.66-5.77l.55-7.26h15.86Zm-5.38-14.27h-5.46l-.22,2.92a51.57,51.57,0,0,1-.71,5.93,11,11,0,0,1-1.11,3.31,7,7,0,0,1-1.93,2.11h9.43Z" style="fill:#f7931e"/><path d="M893.24,347.61a6.71,6.71,0,0,0,1.8,4.52,5.63,5.63,0,0,0,4,1.48,9.26,9.26,0,0,0,3-.49,12.87,12.87,0,0,0,2.89-1.46l2.34,3.23a12.19,12.19,0,0,1-3.84,2.16,14,14,0,0,1-4.73.78,11.93,11.93,0,0,1-6.14-1.49,9.52,9.52,0,0,1-3.82-4.19,15.51,15.51,0,0,1,0-12.34,10.59,10.59,0,0,1,14.69-4.49,9,9,0,0,1,3.52,3.94,13.88,13.88,0,0,1,1.24,6.11,22,22,0,0,1-.11,2.24Zm1.44-8.18a7.73,7.73,0,0,0-1.5,4.57h9.52a7.75,7.75,0,0,0-1.21-4.5,4,4,0,0,0-3.4-1.58A4.26,4.26,0,0,0,894.68,339.43Z" style="fill:#f7931e"/><path d="M932.57,334.59v22.6h-5.63V338.86h-6.08l-.28,3.89a48.23,48.23,0,0,1-1,7.95,10.47,10.47,0,0,1-2,4.36,12.8,12.8,0,0,1-3.87,2.86l-2.35-3.59a7,7,0,0,0,1.88-1.83,9.46,9.46,0,0,0,1.17-3.2,49.7,49.7,0,0,0,.84-6.34l.62-8.37Z" style="fill:#f7931e"/><path d="M957.1,351.24a3.6,3.6,0,0,0,.37,1.86,2.21,2.21,0,0,0,1.25.91l-1.22,3.78a7.65,7.65,0,0,1-3.12-.93,4.75,4.75,0,0,1-1.91-2.12,7.92,7.92,0,0,1-3.18,2.3,10.86,10.86,0,0,1-4.14.79,8.39,8.39,0,0,1-4-.89,6.3,6.3,0,0,1-2.63-2.48,7.32,7.32,0,0,1-.91-3.69,6.63,6.63,0,0,1,1.26-4.08,7.68,7.68,0,0,1,3.69-2.56,17.54,17.54,0,0,1,5.89-.87h3.15V342a3.4,3.4,0,0,0-1.21-2.89,5.85,5.85,0,0,0-3.59-.93,16,16,0,0,0-2.79.31,25,25,0,0,0-3.29.87l-1.34-3.87a26,26,0,0,1,4.25-1.17,22.53,22.53,0,0,1,4.07-.41q4.66,0,7,2a7.12,7.12,0,0,1,2.35,5.73ZM949.6,353a5.32,5.32,0,0,0,2-2v-4.39h-2.21a8.19,8.19,0,0,0-4.51,1,3.68,3.68,0,0,0-.53,5.32,3.62,3.62,0,0,0,2.6.85A5.25,5.25,0,0,0,949.6,353Z" style="fill:#f7931e"/><path d="M969.18,347.61a6.71,6.71,0,0,0,1.8,4.52,5.62,5.62,0,0,0,4,1.48,9.32,9.32,0,0,0,3-.49,12.81,12.81,0,0,0,2.88-1.46l2.35,3.23a12.42,12.42,0,0,1-3.84,2.16,14.11,14.11,0,0,1-4.74.78,11.9,11.9,0,0,1-6.13-1.49,9.52,9.52,0,0,1-3.82-4.19,15.51,15.51,0,0,1,0-12.34A9.86,9.86,0,0,1,974,334a10.25,10.25,0,0,1,5.36,1.37,9,9,0,0,1,3.52,3.94,14,14,0,0,1,1.24,6.11,22,22,0,0,1-.11,2.24Zm1.44-8.18a7.73,7.73,0,0,0-1.5,4.57h9.51a7.75,7.75,0,0,0-1.2-4.5,4,4,0,0,0-3.41-1.58A4.25,4.25,0,0,0,970.62,339.43Z" style="fill:#f7931e"/><path d="M1009.09,334.59l1.58,22.6h-5.1l-.52-8.88c-.08-1.43-.12-2.9-.12-4.39,0-1.31,0-2.68.12-4.1h-.17l-3.58,13.72h-4.42L993,339.82h-.17c.11,1.18.17,2.53.17,4,0,1,0,2.54-.13,4.59l-.41,8.75h-5l1.54-22.6h6.38l3.8,14.45,3.39-14.45Z" style="fill:#f7931e"/><path d="M1308,.51V15.06h2.5v9h-3.41l-.61-5.58h-13.32V.51h4.43V15h6V.51Z" style="fill:#009245"/><path d="M1328.48.51V18.43h-4.28V11.8c0-1.34.07-2.61.19-3.83a31,31,0,0,1,.52-3.28l-6.48,13.74h-4.81V.51h4.29V7.19a36.22,36.22,0,0,1-.2,3.78,26.52,26.52,0,0,1-.53,3.28L1323.64.51Z" style="fill:#009245"/><path d="M1338.3,18.43h-4.47V.51h4.47v7h2.86l4.34-7H1350l-5.33,8.31,6,9.61h-4.87L1341,10.61h-2.74Z" style="fill:#009245"/><path d="M1368.7.51V18.43h-4.47V3.89h-4.82L1359.19,7a38.32,38.32,0,0,1-.79,6.31,8.38,8.38,0,0,1-1.6,3.46,10,10,0,0,1-3.07,2.26l-1.87-2.84a5.58,5.58,0,0,0,1.49-1.45,7.73,7.73,0,0,0,.93-2.54,39.36,39.36,0,0,0,.66-5l.5-6.63Z" style="fill:#009245"/><path d="M1408.64,10a4,4,0,0,1,1.16,3,4.41,4.41,0,0,1-2.21,4.06,11.33,11.33,0,0,1-5.79,1.31h-7.53V.71c1.26-.24,2.44-.41,3.54-.53a31.3,31.3,0,0,1,3.4-.18,13.67,13.67,0,0,1,4,.54A6,6,0,0,1,1408,2.15a3.72,3.72,0,0,1,1,2.59q0,2.94-3.69,3.89A5.73,5.73,0,0,1,1408.64,10Zm-9.91-6.86V7.62h2.76a4,4,0,0,0,2.28-.55,2,2,0,0,0,.79-1.76,1.94,1.94,0,0,0-.84-1.74,4.68,4.68,0,0,0-2.55-.56A16.85,16.85,0,0,0,1398.73,3.17Zm2.93,12.16a4.71,4.71,0,0,0,2.69-.62,2.2,2.2,0,0,0,.88-1.92,2.15,2.15,0,0,0-.94-1.94,4.47,4.47,0,0,0-2.53-.63h-3v5.11Z" style="fill:#009245"/><path d="M1445.24,14.94a10.16,10.16,0,0,0,2.09-1.15l2,2.86a9.2,9.2,0,0,1-2.91,1.67,10.29,10.29,0,0,1-3.53.62,9.38,9.38,0,0,1-4.8-1.17,7.79,7.79,0,0,1-3.1-3.28A10.66,10.66,0,0,1,1434,9.58,10.86,10.86,0,0,1,1435,4.63a8.06,8.06,0,0,1,3.14-3.4A9.12,9.12,0,0,1,1443,0a10.59,10.59,0,0,1,3.48.54,9.26,9.26,0,0,1,2.89,1.64l-2,2.74a7.53,7.53,0,0,0-4.25-1.42A4,4,0,0,0,1439.84,5a7.33,7.33,0,0,0-1.19,4.59,6.67,6.67,0,0,0,1.19,4.4,4.11,4.11,0,0,0,3.26,1.37A5.74,5.74,0,0,0,1445.24,14.94Z" style="fill:#009245"/><path d="M1453.14.51h17.09l-.54,3.4h-5.87V18.43h-4.47V3.91h-6.21Z" style="fill:#009245"/><path d="M1490,9.43a14.1,14.1,0,0,1-.8,4.92,7.57,7.57,0,0,1-2.35,3.37,5.89,5.89,0,0,1-3.74,1.22,5.62,5.62,0,0,1-4.43-2v8.34l-4.47.48V.51h3.93l.24,2.18a6.94,6.94,0,0,1,2.35-2,5.94,5.94,0,0,1,2.74-.68Q1490,0,1490,9.43ZM1478.7,5.7v8a3.69,3.69,0,0,0,3.15,1.83,2.89,2.89,0,0,0,2.63-1.46,9.21,9.21,0,0,0,.89-4.61,10.28,10.28,0,0,0-.79-4.72,2.56,2.56,0,0,0-2.39-1.41C1480.86,3.35,1479.69,4.14,1478.7,5.7Z" style="fill:#009245"/><path d="M1506.28,1.16a7.37,7.37,0,0,1,2.85,3.28,11.88,11.88,0,0,1,1,5,12.1,12.1,0,0,1-1,5.05,7.41,7.41,0,0,1-2.87,3.3,9.44,9.44,0,0,1-9,0,7.24,7.24,0,0,1-2.86-3.26,12.15,12.15,0,0,1-1-5.08,11.7,11.7,0,0,1,1-5,7.57,7.57,0,0,1,2.88-3.33A8.37,8.37,0,0,1,1501.76,0,8.49,8.49,0,0,1,1506.28,1.16ZM1499,4.85a9,9,0,0,0-.92,4.61,9.05,9.05,0,0,0,.92,4.64,3.38,3.38,0,0,0,5.58,0,9.14,9.14,0,0,0,.92-4.66,8.93,8.93,0,0,0-.92-4.58,3,3,0,0,0-2.77-1.48A3.06,3.06,0,0,0,1499,4.85Z" style="fill:#009245"/><path d="M1519,18.43h-4.47V.51H1519v7h2.86l4.33-7h4.49l-5.33,8.31,6,9.61h-4.87l-4.71-7.82H1519Z" style="fill:#009245"/><path d="M1544.62,18.46a11.35,11.35,0,0,1-3.36,5.27,10.13,10.13,0,0,1-6,2.1l-.56-3.24a10.57,10.57,0,0,0,2.86-.75,4.85,4.85,0,0,0,1.74-1.3,8.12,8.12,0,0,0,1.16-2.11H1539L1533.09.51h4.72l4.07,14.94L1546.11.51h4.58Z" style="fill:#009245"/><path d="M14.38,10a4,4,0,0,1,1.16,3,4.4,4.4,0,0,1-2.22,4.06,11.33,11.33,0,0,1-5.79,1.31H0V.71C1.26.47,2.45.3,3.54.18A31.57,31.57,0,0,1,6.94,0a13.67,13.67,0,0,1,4,.54,5.93,5.93,0,0,1,2.71,1.61,3.73,3.73,0,0,1,1,2.59q0,2.94-3.69,3.89A5.76,5.76,0,0,1,14.38,10ZM4.47,3.17V7.62H7.23A4,4,0,0,0,9.5,7.07a2,2,0,0,0,.79-1.76,1.94,1.94,0,0,0-.84-1.74A4.68,4.68,0,0,0,6.9,3,16.71,16.71,0,0,0,4.47,3.17ZM7.4,15.33a4.75,4.75,0,0,0,2.69-.62A2.22,2.22,0,0,0,11,12.79,2.17,2.17,0,0,0,10,10.85a4.49,4.49,0,0,0-2.53-.63h-3v5.11Z" style="fill:#ed1e79"/><path d="M31.7,1.16a7.25,7.25,0,0,1,2.85,3.28,11.88,11.88,0,0,1,1,5,11.94,11.94,0,0,1-1,5.05,7.33,7.33,0,0,1-2.86,3.3,8.48,8.48,0,0,1-4.51,1.16,8.55,8.55,0,0,1-4.52-1.14,7.19,7.19,0,0,1-2.86-3.26,12,12,0,0,1-1-5.08,11.7,11.7,0,0,1,1-5,7.61,7.61,0,0,1,2.87-3.33A8.42,8.42,0,0,1,27.18,0,8.46,8.46,0,0,1,31.7,1.16ZM24.38,4.85a9,9,0,0,0-.92,4.61,9.05,9.05,0,0,0,.92,4.64,3,3,0,0,0,2.79,1.47A3,3,0,0,0,30,14.09a9.15,9.15,0,0,0,.91-4.66A8.94,8.94,0,0,0,30,4.85a3,3,0,0,0-2.78-1.48A3,3,0,0,0,24.38,4.85Z" style="fill:#ed1e79"/><path d="M46.29,7.65A4.06,4.06,0,0,0,48.69,7a1.91,1.91,0,0,0,.85-1.64,1.82,1.82,0,0,0-.88-1.65,4.88,4.88,0,0,0-2.55-.55,10.78,10.78,0,0,0-2.76.36,9.17,9.17,0,0,0-2.47,1.06l-2-2.44A11,11,0,0,1,42.32.57a14.27,14.27,0,0,1,4-.57,12.83,12.83,0,0,1,4,.57,6,6,0,0,1,2.75,1.68,3.88,3.88,0,0,1,1,2.69A3.23,3.23,0,0,1,53,7.4a7,7,0,0,1-3,1.52,7.13,7.13,0,0,1,3.68,1.29,3.56,3.56,0,0,1,1.33,3,4.61,4.61,0,0,1-1.12,3.14,6.75,6.75,0,0,1-3.08,2,14.24,14.24,0,0,1-4.52.66,12.68,12.68,0,0,1-8-2.41l2-2.64a11.7,11.7,0,0,0,2.84,1.32,11.2,11.2,0,0,0,3.17.43,5.33,5.33,0,0,0,3-.7,2.19,2.19,0,0,0,1-1.91,2,2,0,0,0-.93-1.76,5.31,5.31,0,0,0-2.79-.59H42.79l.27-3Z" style="fill:#ed1e79"/><path d="M74.61,10a4,4,0,0,1,1.15,3,4.39,4.39,0,0,1-2.21,4.06,11.33,11.33,0,0,1-5.79,1.31H60.23V.71C61.49.47,62.67.3,63.77.18A31.57,31.57,0,0,1,67.17,0a13.67,13.67,0,0,1,4,.54,5.93,5.93,0,0,1,2.71,1.61,3.72,3.72,0,0,1,1,2.59q0,2.94-3.68,3.89A5.76,5.76,0,0,1,74.61,10ZM64.7,3.17V7.62h2.76a4,4,0,0,0,2.27-.55,2,2,0,0,0,.79-1.76,1.94,1.94,0,0,0-.84-1.74A4.68,4.68,0,0,0,67.13,3,16.61,16.61,0,0,0,64.7,3.17Zm2.93,12.16a4.75,4.75,0,0,0,2.69-.62,2.22,2.22,0,0,0,.88-1.92,2.17,2.17,0,0,0-.94-1.94,4.49,4.49,0,0,0-2.53-.63h-3v5.11Z" style="fill:#ed1e79"/><path d="M95.76,9.43A13.87,13.87,0,0,1,95,14.35a7.49,7.49,0,0,1-2.35,3.37,5.87,5.87,0,0,1-3.73,1.22,5.63,5.63,0,0,1-4.44-2v8.34L80,25.81V.51h3.92l.24,2.18a7,7,0,0,1,2.35-2A6,6,0,0,1,89.22,0Q95.76,0,95.76,9.43ZM84.43,5.7v8a3.7,3.7,0,0,0,3.15,1.83,2.89,2.89,0,0,0,2.63-1.46,9.1,9.1,0,0,0,.89-4.61,10.44,10.44,0,0,0-.78-4.72,2.59,2.59,0,0,0-2.4-1.41C86.59,3.35,85.43,4.14,84.43,5.7Z" style="fill:#ed1e79"/><path d="M114.34,13.71a2.87,2.87,0,0,0,.3,1.48,1.81,1.81,0,0,0,1,.72l-1,3a6,6,0,0,1-2.47-.73,3.79,3.79,0,0,1-1.52-1.69,6.19,6.19,0,0,1-2.52,1.83,8.59,8.59,0,0,1-3.28.63,6.71,6.71,0,0,1-3.15-.71,4.89,4.89,0,0,1-2.08-2,5.72,5.72,0,0,1-.73-2.93,5.24,5.24,0,0,1,1-3.23,6.13,6.13,0,0,1,2.93-2,13.89,13.89,0,0,1,4.67-.69H110v-1a2.71,2.71,0,0,0-1-2.29,4.66,4.66,0,0,0-2.85-.74,12.52,12.52,0,0,0-2.21.25,18,18,0,0,0-2.61.69l-1.07-3.07a21.66,21.66,0,0,1,3.38-.93A18.16,18.16,0,0,1,106.91,0a8.45,8.45,0,0,1,5.57,1.58,5.65,5.65,0,0,1,1.86,4.55Zm-6,1.41a4.22,4.22,0,0,0,1.62-1.6V10h-1.76a6.44,6.44,0,0,0-3.57.77,2.55,2.55,0,0,0-1.13,2.27,2.54,2.54,0,0,0,.71,1.95,2.87,2.87,0,0,0,2.06.67A4.11,4.11,0,0,0,108.39,15.12Z" style="fill:#ed1e79"/><path d="M136.59.51V15.06h2v9h-3.44l-.61-5.58h-16V.51h3.89V15h3.4V.51h3.49V15h3.39V.51Z" style="fill:#ed1e79"/><path d="M154.5,13.71a2.89,2.89,0,0,0,.29,1.48,1.81,1.81,0,0,0,1,.72l-1,3a6,6,0,0,1-2.48-.73,3.79,3.79,0,0,1-1.52-1.69,6.19,6.19,0,0,1-2.52,1.83,8.55,8.55,0,0,1-3.28.63,6.71,6.71,0,0,1-3.15-.71,4.89,4.89,0,0,1-2.08-2,5.72,5.72,0,0,1-.73-2.93,5.24,5.24,0,0,1,1-3.23,6.18,6.18,0,0,1,2.93-2,13.89,13.89,0,0,1,4.67-.69h2.5v-1a2.71,2.71,0,0,0-1-2.29,4.65,4.65,0,0,0-2.84-.74,12.72,12.72,0,0,0-2.22.25,18,18,0,0,0-2.61.69l-1.06-3.07a21.54,21.54,0,0,1,3.37-.93A18.18,18.18,0,0,1,147.07,0a8.42,8.42,0,0,1,5.56,1.58,5.62,5.62,0,0,1,1.87,4.55Zm-5.95,1.41a4.26,4.26,0,0,0,1.61-1.6V10H148.4a6.44,6.44,0,0,0-3.57.77,2.57,2.57,0,0,0-1.13,2.27,2.58,2.58,0,0,0,.71,1.95,2.87,2.87,0,0,0,2.06.67A4.17,4.17,0,0,0,148.55,15.12Z" style="fill:#ed1e79"/><path d="M164.08,10.83a5.28,5.28,0,0,0,1.43,3.59,4.47,4.47,0,0,0,3.19,1.17,7.27,7.27,0,0,0,2.37-.39,10.39,10.39,0,0,0,2.28-1.15l1.86,2.55a9.62,9.62,0,0,1-3,1.72,11.23,11.23,0,0,1-3.76.62,9.39,9.39,0,0,1-4.86-1.19,7.53,7.53,0,0,1-3-3.31,11.23,11.23,0,0,1-1-4.95,11.3,11.3,0,0,1,1-4.84,8,8,0,0,1,2.91-3.41,8.82,8.82,0,0,1,8.74-.16,7.15,7.15,0,0,1,2.79,3.13,11,11,0,0,1,1,4.84,16.15,16.15,0,0,1-.09,1.78Zm1.14-6.49A6.17,6.17,0,0,0,164,8h7.55a6.11,6.11,0,0,0-1-3.57,3.14,3.14,0,0,0-2.7-1.25A3.39,3.39,0,0,0,165.22,4.34Z" style="fill:#ed1e79"/><path d="M195.73.51,197,18.43h-4l-.41-7c-.07-1.14-.1-2.3-.1-3.49,0-1,0-2.12.1-3.25h-.13l-2.85,10.89h-3.5L183,4.65h-.13c.09.94.13,2,.13,3.2,0,.8,0,2-.1,3.64l-.32,6.94h-4L179.79.51h5.06l3,11.45L190.55.51Z" style="fill:#ed1e79"/><line x1="97.82" y1="101.69" x2="97.82" y2="74.99" style="fill:none;stroke:#ed1e79;stroke-miterlimit:10;stroke-width:11px"/><polygon points="97.82 51.69 111.23 84.53 97.82 76.74 84.41 84.53 97.82 51.69" style="fill:#ed1e79"/><path d="M869.38,10a4,4,0,0,1,1.16,3,4.4,4.4,0,0,1-2.22,4.06,11.33,11.33,0,0,1-5.79,1.31H855V.71c1.26-.24,2.45-.41,3.54-.53a31.57,31.57,0,0,1,3.4-.18,13.67,13.67,0,0,1,4,.54,5.93,5.93,0,0,1,2.71,1.61,3.73,3.73,0,0,1,1,2.59q0,2.94-3.69,3.89A5.76,5.76,0,0,1,869.38,10Zm-9.91-6.86V7.62h2.76a4,4,0,0,0,2.27-.55,2,2,0,0,0,.79-1.76,1.94,1.94,0,0,0-.84-1.74A4.68,4.68,0,0,0,861.9,3,16.71,16.71,0,0,0,859.47,3.17Zm2.93,12.16a4.75,4.75,0,0,0,2.69-.62,2.22,2.22,0,0,0,.88-1.92,2.17,2.17,0,0,0-.94-1.94,4.49,4.49,0,0,0-2.53-.63h-3v5.11Z" style="fill:#ed1e79"/><path d="M886.7,1.16a7.25,7.25,0,0,1,2.85,3.28,11.88,11.88,0,0,1,1,5,11.94,11.94,0,0,1-1,5.05,7.33,7.33,0,0,1-2.86,3.3,9.44,9.44,0,0,1-9,0,7.19,7.19,0,0,1-2.86-3.26,12,12,0,0,1-1-5.08,11.7,11.7,0,0,1,1-5,7.61,7.61,0,0,1,2.87-3.33,9.3,9.3,0,0,1,9,0Zm-7.32,3.69a9,9,0,0,0-.92,4.61,9.05,9.05,0,0,0,.92,4.64,3.38,3.38,0,0,0,5.58,0,9.15,9.15,0,0,0,.91-4.66A8.94,8.94,0,0,0,885,4.85a3.37,3.37,0,0,0-5.58,0Z" style="fill:#ed1e79"/><path d="M901.29,7.65a4.06,4.06,0,0,0,2.4-.61,1.91,1.91,0,0,0,.85-1.64,1.82,1.82,0,0,0-.88-1.65,4.88,4.88,0,0,0-2.55-.55,10.78,10.78,0,0,0-2.76.36,9.17,9.17,0,0,0-2.47,1.06l-2-2.44A11,11,0,0,1,897.32.57a14.27,14.27,0,0,1,4-.57,12.83,12.83,0,0,1,4,.57,6,6,0,0,1,2.75,1.68,3.88,3.88,0,0,1,1,2.69A3.23,3.23,0,0,1,908,7.4a7,7,0,0,1-3,1.52,7.13,7.13,0,0,1,3.68,1.29,3.56,3.56,0,0,1,1.33,3,4.61,4.61,0,0,1-1.12,3.14,6.75,6.75,0,0,1-3.08,2,14.24,14.24,0,0,1-4.52.66,12.68,12.68,0,0,1-8-2.41l2-2.64a11.7,11.7,0,0,0,2.84,1.32,11.2,11.2,0,0,0,3.17.43,5.33,5.33,0,0,0,3-.7,2.19,2.19,0,0,0,1-1.91,2,2,0,0,0-.93-1.76,5.31,5.31,0,0,0-2.79-.59h-3.81l.27-3Z" style="fill:#ed1e79"/><path d="M929.61,10a4,4,0,0,1,1.15,3,4.39,4.39,0,0,1-2.21,4.06,11.33,11.33,0,0,1-5.79,1.31h-7.53V.71c1.26-.24,2.44-.41,3.54-.53a31.57,31.57,0,0,1,3.4-.18,13.67,13.67,0,0,1,4,.54,5.93,5.93,0,0,1,2.71,1.61,3.72,3.72,0,0,1,1,2.59q0,2.94-3.68,3.89A5.76,5.76,0,0,1,929.61,10ZM919.7,3.17V7.62h2.76a4,4,0,0,0,2.27-.55,2,2,0,0,0,.79-1.76,1.94,1.94,0,0,0-.84-1.74A4.68,4.68,0,0,0,922.13,3,16.61,16.61,0,0,0,919.7,3.17Zm2.93,12.16a4.75,4.75,0,0,0,2.69-.62,2.22,2.22,0,0,0,.88-1.92,2.17,2.17,0,0,0-.94-1.94,4.49,4.49,0,0,0-2.53-.63h-3v5.11Z" style="fill:#ed1e79"/><path d="M950.76,9.43a13.87,13.87,0,0,1-.81,4.92,7.49,7.49,0,0,1-2.35,3.37,5.87,5.87,0,0,1-3.73,1.22,5.63,5.63,0,0,1-4.44-2v8.34l-4.46.48V.51h3.92l.24,2.18a7,7,0,0,1,2.35-2A6,6,0,0,1,944.22,0Q950.76,0,950.76,9.43ZM939.43,5.7v8a3.7,3.7,0,0,0,3.15,1.83,2.89,2.89,0,0,0,2.63-1.46,9.1,9.1,0,0,0,.89-4.61,10.44,10.44,0,0,0-.78-4.72,2.59,2.59,0,0,0-2.4-1.41C941.59,3.35,940.43,4.14,939.43,5.7Z" style="fill:#ed1e79"/><path d="M969.34,13.71a2.87,2.87,0,0,0,.3,1.48,1.81,1.81,0,0,0,1,.72l-1,3a6,6,0,0,1-2.47-.73,3.79,3.79,0,0,1-1.52-1.69,6.19,6.19,0,0,1-2.52,1.83,8.59,8.59,0,0,1-3.28.63,6.71,6.71,0,0,1-3.15-.71,4.89,4.89,0,0,1-2.08-2,5.72,5.72,0,0,1-.73-2.93,5.24,5.24,0,0,1,1-3.23,6.13,6.13,0,0,1,2.93-2,13.89,13.89,0,0,1,4.67-.69H965v-1a2.71,2.71,0,0,0-1-2.29,4.66,4.66,0,0,0-2.85-.74,12.52,12.52,0,0,0-2.21.25,18,18,0,0,0-2.61.69l-1.07-3.07a21.66,21.66,0,0,1,3.38-.93A18.16,18.16,0,0,1,961.91,0a8.45,8.45,0,0,1,5.57,1.58,5.65,5.65,0,0,1,1.86,4.55Zm-6,1.41a4.22,4.22,0,0,0,1.62-1.6V10h-1.76a6.44,6.44,0,0,0-3.57.77,2.55,2.55,0,0,0-1.13,2.27,2.54,2.54,0,0,0,.71,1.95,2.87,2.87,0,0,0,2.06.67A4.11,4.11,0,0,0,963.39,15.12Z" style="fill:#ed1e79"/><path d="M991.59.51V15.06h2v9h-3.44l-.61-5.58h-16V.51h3.89V15h3.4V.51h3.49V15h3.39V.51Z" style="fill:#ed1e79"/><path d="M1009.5,13.71a2.89,2.89,0,0,0,.29,1.48,1.81,1.81,0,0,0,1,.72l-1,3a6,6,0,0,1-2.48-.73,3.79,3.79,0,0,1-1.52-1.69,6.19,6.19,0,0,1-2.52,1.83,8.55,8.55,0,0,1-3.28.63,6.71,6.71,0,0,1-3.15-.71,4.89,4.89,0,0,1-2.08-2,5.72,5.72,0,0,1-.73-2.93,5.24,5.24,0,0,1,1-3.23,6.18,6.18,0,0,1,2.93-2,13.89,13.89,0,0,1,4.67-.69h2.5v-1a2.71,2.71,0,0,0-1-2.29,4.65,4.65,0,0,0-2.84-.74,12.72,12.72,0,0,0-2.22.25,18,18,0,0,0-2.61.69l-1.06-3.07a21.54,21.54,0,0,1,3.37-.93,18.18,18.18,0,0,1,3.23-.32,8.42,8.42,0,0,1,5.56,1.58,5.62,5.62,0,0,1,1.87,4.55Zm-6,1.41a4.26,4.26,0,0,0,1.61-1.6V10h-1.76a6.44,6.44,0,0,0-3.57.77,2.57,2.57,0,0,0-1.13,2.27,2.58,2.58,0,0,0,.71,1.95,2.87,2.87,0,0,0,2.06.67A4.17,4.17,0,0,0,1003.55,15.12Z" style="fill:#ed1e79"/><path d="M1019.08,10.83a5.28,5.28,0,0,0,1.43,3.59,4.47,4.47,0,0,0,3.19,1.17,7.27,7.27,0,0,0,2.37-.39,10.39,10.39,0,0,0,2.28-1.15l1.86,2.55a9.62,9.62,0,0,1-3,1.72,11.23,11.23,0,0,1-3.76.62,9.39,9.39,0,0,1-4.86-1.19,7.53,7.53,0,0,1-3-3.31,11.23,11.23,0,0,1-1-4.95,11.3,11.3,0,0,1,1-4.84,8,8,0,0,1,2.91-3.41,8.82,8.82,0,0,1,8.74-.16,7.15,7.15,0,0,1,2.79,3.13,11,11,0,0,1,1,4.84,16.15,16.15,0,0,1-.09,1.78Zm1.14-6.49A6.17,6.17,0,0,0,1019,8h7.55a6.11,6.11,0,0,0-1-3.57,3.14,3.14,0,0,0-2.7-1.25A3.39,3.39,0,0,0,1020.22,4.34Z" style="fill:#ed1e79"/><path d="M1050.73.51,1052,18.43h-4l-.41-7c-.07-1.14-.1-2.3-.1-3.49,0-1,0-2.12.1-3.25h-.13l-2.85,10.89h-3.5L1038,4.65h-.13c.09.94.13,2,.13,3.2,0,.8,0,2-.1,3.64l-.32,6.94h-4L1034.79.51h5.06l3,11.45L1045.55.51Z" style="fill:#ed1e79"/><line x1="952.82" y1="101.69" x2="952.82" y2="74.99" style="fill:none;stroke:#ed1e79;stroke-miterlimit:10;stroke-width:11px"/><polygon points="952.82 51.69 966.23 84.53 952.82 76.74 939.41 84.53 952.82 51.69" style="fill:#ed1e79"/><path d="M474.71,18.46a11.35,11.35,0,0,1-3.36,5.27,10.13,10.13,0,0,1-6,2.1l-.56-3.24a10.57,10.57,0,0,0,2.86-.75,4.77,4.77,0,0,0,1.74-1.3,8.12,8.12,0,0,0,1.16-2.11h-1.53L463.18.51h4.72L472,15.45,476.2.51h4.58Z" style="fill:#c184ae"/><path d="M495.79,14.94a10.16,10.16,0,0,0,2.09-1.15l2,2.86A9.2,9.2,0,0,1,497,18.32a10.3,10.3,0,0,1-3.54.62,9.37,9.37,0,0,1-4.79-1.17,7.79,7.79,0,0,1-3.1-3.28,10.66,10.66,0,0,1-1.08-4.91,10.86,10.86,0,0,1,1.1-4.95,8,8,0,0,1,3.13-3.4A9.18,9.18,0,0,1,493.53,0,10.63,10.63,0,0,1,497,.54a9.21,9.21,0,0,1,2.88,1.64l-2,2.74a7.48,7.48,0,0,0-4.24-1.42A4,4,0,0,0,490.39,5a7.33,7.33,0,0,0-1.19,4.59,6.67,6.67,0,0,0,1.19,4.4,4.11,4.11,0,0,0,3.26,1.37A5.78,5.78,0,0,0,495.79,14.94Z" style="fill:#c184ae"/><path d="M519.63.51V18.43h-4.47V3.89h-4.82L510.12,7a38.62,38.62,0,0,1-.79,6.32,8.52,8.52,0,0,1-1.6,3.45A10,10,0,0,1,504.66,19l-1.87-2.84a5.73,5.73,0,0,0,1.49-1.45,7.73,7.73,0,0,0,.93-2.54,39.36,39.36,0,0,0,.66-5l.49-6.63Z" style="fill:#c184ae"/><path d="M536.75,1.16a7.37,7.37,0,0,1,2.85,3.28,11.88,11.88,0,0,1,1,5,12.1,12.1,0,0,1-1,5.05,7.35,7.35,0,0,1-2.87,3.3,8.48,8.48,0,0,1-4.51,1.16,8.57,8.57,0,0,1-4.52-1.14,7.24,7.24,0,0,1-2.86-3.26,12.15,12.15,0,0,1-1-5.08,11.7,11.7,0,0,1,1-5,7.57,7.57,0,0,1,2.88-3.33,9.3,9.3,0,0,1,9,0Zm-7.33,3.69a9,9,0,0,0-.91,4.61,9.07,9.07,0,0,0,.91,4.64,3.38,3.38,0,0,0,5.58,0,9.14,9.14,0,0,0,.92-4.66A8.93,8.93,0,0,0,535,4.85a3,3,0,0,0-2.77-1.48A3.06,3.06,0,0,0,529.42,4.85Z" style="fill:#c184ae"/><path d="M559.57,10a4,4,0,0,1,1.16,3,4.41,4.41,0,0,1-2.21,4.06,11.33,11.33,0,0,1-5.79,1.31H545.2V.71c1.26-.24,2.44-.41,3.54-.53a31.3,31.3,0,0,1,3.4-.18,13.67,13.67,0,0,1,4,.54,5.93,5.93,0,0,1,2.71,1.61,3.72,3.72,0,0,1,1,2.59q0,2.94-3.69,3.89A5.73,5.73,0,0,1,559.57,10Zm-9.9-6.86V7.62h2.75a4,4,0,0,0,2.28-.55,2,2,0,0,0,.79-1.76,1.94,1.94,0,0,0-.84-1.74A4.68,4.68,0,0,0,552.1,3,16.61,16.61,0,0,0,549.67,3.17Zm2.92,12.16a4.71,4.71,0,0,0,2.69-.62,2.2,2.2,0,0,0,.88-1.92,2.16,2.16,0,0,0-.94-1.94,4.47,4.47,0,0,0-2.53-.63h-3v5.11Z" style="fill:#c184ae"/><path d="M579.79.51V18.43h-4.28V11.8a36,36,0,0,1,.2-3.83,31.2,31.2,0,0,1,.51-3.28l-6.48,13.74h-4.81V.51h4.29V7.19A36.22,36.22,0,0,1,569,11a26.52,26.52,0,0,1-.53,3.28L575,.51Z" style="fill:#c184ae"/><path d="M588.82,10.83a5.28,5.28,0,0,0,1.43,3.59,4.47,4.47,0,0,0,3.19,1.17,7.27,7.27,0,0,0,2.37-.39,10.39,10.39,0,0,0,2.28-1.15L600,16.6a9.73,9.73,0,0,1-3,1.72,11.23,11.23,0,0,1-3.76.62,9.36,9.36,0,0,1-4.86-1.19,7.53,7.53,0,0,1-3-3.31,11.23,11.23,0,0,1-1-4.95,11.3,11.3,0,0,1,1-4.84,8,8,0,0,1,2.91-3.41,8.82,8.82,0,0,1,8.74-.16,7.15,7.15,0,0,1,2.79,3.13,11,11,0,0,1,1,4.84,16.15,16.15,0,0,1-.09,1.78ZM590,4.34A6.17,6.17,0,0,0,588.77,8h7.55a6.21,6.21,0,0,0-1-3.57,3.17,3.17,0,0,0-2.7-1.25A3.39,3.39,0,0,0,590,4.34Z" style="fill:#c184ae"/></svg>